SplineFontDB: 3.2
FontName: gurumukhi5
FullName: gurumukhi5
FamilyName: gurumukhi5
Weight: Book
Copyright: Copyright 2017 Google Inc. All Rights Reserved.
Version: 2.001
ItalicAngle: 0
UnderlinePosition: -125
UnderlineWidth: 50
Ascent: 800
Descent: 200
InvalidEm: 0
sfntRevision: 0x00020042
LayerCount: 2
Layer: 0 1 "Back" 1
Layer: 1 1 "Fore" 0
XUID: [1021 467 -1121320856 11252321]
StyleMap: 0x0040
FSType: 0
OS2Version: 4
OS2_WeightWidthSlopeOnly: 1
OS2_UseTypoMetrics: 0
CreationTime: 1502225473
ModificationTime: 1638549336
PfmFamily: 17
TTFWeight: 400
TTFWidth: 5
LineGap: 0
VLineGap: 0
Panose: 2 2 5 2 6 5 5 2 2 4
OS2TypoAscent: 1006
OS2TypoAOffset: 0
OS2TypoDescent: -428
OS2TypoDOffset: 0
OS2TypoLinegap: 0
OS2WinAscent: 1006
OS2WinAOffset: 0
OS2WinDescent: 428
OS2WinDOffset: 0
HheadAscent: 1006
HheadAOffset: 0
HheadDescent: -428
HheadDOffset: 0
OS2SubXSize: 650
OS2SubYSize: 600
OS2SubXOff: 0
OS2SubYOff: 75
OS2SupXSize: 650
OS2SupYSize: 600
OS2SupXOff: 0
OS2SupYOff: 350
OS2StrikeYSize: 50
OS2StrikeYPos: 322
OS2CapHeight: 622
OS2XHeight: 536
OS2Vendor: 'GOOG'
OS2CodePages: 00000001.00000000
OS2UnicodeRanges: 80028003.00006042.00000000.00000000
Lookup: 2 0 0 "Multiple Substitution lookup 0" { "Multiple Substitution lookup 0 subtable"  } []
Lookup: 4 0 0 "'nukt' Nukta Forms lookup 1" { "'nukt' Nukta Forms lookup 1 subtable"  } ['nukt' ('gur2' <'dflt' > 'guru' <'dflt' > ) ]
Lookup: 4 0 0 "'blwf' Below Base Forms in Gurmukhi2 lookup 2" { "'blwf' Below Base Forms in Gurmukhi2 lookup 2 subtable"  } ['blwf' ('gur2' <'dflt' > ) ]
Lookup: 4 0 0 "'blwf' Below Base Forms in Gurmukhi lookup 3" { "'blwf' Below Base Forms in Gurmukhi lookup 3 subtable"  } ['blwf' ('guru' <'dflt' > ) ]
Lookup: 4 0 0 "'half' Half Forms in Gurmukhi lookup 4" { "'half' Half Forms in Gurmukhi lookup 4 subtable"  } ['half' ('guru' <'dflt' > ) ]
Lookup: 4 0 0 "'pstf' Post Base Forms in Gurmukhi2 lookup 5" { "'pstf' Post Base Forms in Gurmukhi2 lookup 5 subtable"  } ['pstf' ('gur2' <'dflt' > ) ]

StartChar: .notdef
Encoding: 65536 -1 0
Width: 600
Flags: W
LayerCount: 2
Fore
SplineSet
94 0 m 1,0,-1
 94 714 l 1,1,-1
 505 714 l 1,2,-1
 505 0 l 1,3,-1
 94 0 l 1,0,-1
145 51 m 1,4,-1
 454 51 l 1,5,-1
 454 663 l 1,6,-1
 145 663 l 1,7,-1
 145 51 l 1,4,-1
EndSplineSet
EndChar

StartChar: adakbindiguru
Encoding: 2561 2561 5
Width: 0
Flags: W
LayerCount: 2
Fore
SplineSet
-188 849 m 0,0,1
 -188 869 -188 869 -174 883 c 128,-1,2
 -160 897 -160 897 -138 897 c 0,3,4
 -115 897 -115 897 -101.5 883 c 128,-1,5
 -88 869 -88 869 -88 846 c 0,6,7
 -88 825 -88 825 -101 811.5 c 128,-1,8
 -114 798 -114 798 -137 798 c 0,9,10
 -159 798 -159 798 -173.5 812 c 128,-1,11
 -188 826 -188 826 -188 849 c 0,0,1
0 850 m 1,12,13
 10 810 10 810 -2 769 c 128,-1,14
 -14 728 -14 728 -47 700.5 c 128,-1,15
 -80 673 -80 673 -132 673 c 0,16,17
 -182 673 -182 673 -216 698 c 128,-1,18
 -250 723 -250 723 -265 763 c 128,-1,19
 -280 803 -280 803 -272 847 c 1,20,-1
 -261 847 l 1,21,22
 -256 812 -256 812 -236 787.5 c 128,-1,23
 -216 763 -216 763 -189 751 c 128,-1,24
 -162 739 -162 739 -136 739 c 0,25,26
 -109 739 -109 739 -82.5 751.5 c 128,-1,27
 -56 764 -56 764 -36 789 c 128,-1,28
 -16 814 -16 814 -11 850 c 1,29,-1
 0 850 l 1,12,13
EndSplineSet
EndChar

StartChar: bindiguru
Encoding: 2562 2562 6
Width: 0
Flags: W
LayerCount: 2
Fore
SplineSet
-192 754 m 0,0,1
 -192 777 -192 777 -176 792.5 c 128,-1,2
 -160 808 -160 808 -136 808 c 0,3,4
 -111 808 -111 808 -95 792 c 128,-1,5
 -79 776 -79 776 -79 752 c 0,6,7
 -79 729 -79 729 -94.5 713 c 128,-1,8
 -110 697 -110 697 -135 697 c 256,9,10
 -160 697 -160 697 -176 713 c 128,-1,11
 -192 729 -192 729 -192 754 c 0,0,1
EndSplineSet
EndChar

StartChar: visargaguru
Encoding: 2563 2563 7
Width: 385
Flags: W
LayerCount: 2
Fore
SplineSet
70 488 m 0,0,1
 70 520 70 520 86 544.5 c 128,-1,2
 102 569 102 569 128.5 582.5 c 128,-1,3
 155 596 155 596 186 596 c 0,4,5
 222 596 222 596 253 578.5 c 128,-1,6
 284 561 284 561 302.5 532 c 128,-1,7
 321 503 321 503 321 467 c 0,8,9
 321 424 321 424 291 393.5 c 128,-1,10
 261 363 261 363 209 363 c 0,11,12
 172 363 172 363 140.5 379.5 c 128,-1,13
 109 396 109 396 89.5 424.5 c 128,-1,14
 70 453 70 453 70 488 c 0,0,1
194 411 m 0,15,16
 229 411 229 411 248 431.5 c 128,-1,17
 267 452 267 452 267 480 c 0,18,19
 267 507 267 507 249 526 c 128,-1,20
 231 545 231 545 199 545 c 0,21,22
 165 545 165 545 145 524.5 c 128,-1,23
 125 504 125 504 125 476 c 256,24,25
 125 448 125 448 143.5 429.5 c 128,-1,26
 162 411 162 411 194 411 c 0,15,16
70 125 m 0,27,28
 70 157 70 157 86 181.5 c 128,-1,29
 102 206 102 206 128.5 219.5 c 128,-1,30
 155 233 155 233 186 233 c 0,31,32
 222 233 222 233 253 215.5 c 128,-1,33
 284 198 284 198 302.5 169 c 128,-1,34
 321 140 321 140 321 104 c 0,35,36
 321 61 321 61 291 30.5 c 128,-1,37
 261 0 261 0 209 0 c 0,38,39
 172 0 172 0 140.5 16.5 c 128,-1,40
 109 33 109 33 89.5 61.5 c 128,-1,41
 70 90 70 90 70 125 c 0,27,28
194 48 m 0,42,43
 229 48 229 48 248 68.5 c 128,-1,44
 267 89 267 89 267 117 c 0,45,46
 267 144 267 144 249 163 c 128,-1,47
 231 182 231 182 199 182 c 0,48,49
 165 182 165 182 145 161.5 c 128,-1,50
 125 141 125 141 125 113 c 256,51,52
 125 85 125 85 143.5 66.5 c 128,-1,53
 162 48 162 48 194 48 c 0,42,43
EndSplineSet
EndChar

StartChar: aguru
Encoding: 2565 2565 8
Width: 768
GlyphClass: 2
Flags: W
AnchorPoint: "Anchor-0" 638 622 basechar 0
LayerCount: 2
Fore
SplineSet
809 565 m 1,0,-1
 805 555 l 1,1,-1
 686 555 l 1,2,-1
 686 -24 l 1,3,-1
 677 -29 l 1,4,-1
 604 8 l 1,5,-1
 604 365 l 1,6,7
 577 348 577 348 547 326 c 128,-1,8
 517 304 517 304 489.5 280.5 c 128,-1,9
 462 257 462 257 440 235 c 1,10,11
 434 204 434 204 421.5 172 c 128,-1,12
 409 140 409 140 392.5 114 c 128,-1,13
 376 88 376 88 356.5 72 c 128,-1,14
 337 56 337 56 318 56 c 0,15,16
 297 56 297 56 284.5 70.5 c 128,-1,17
 272 85 272 85 272 107 c 0,18,19
 272 130 272 130 285.5 159.5 c 128,-1,20
 299 189 299 189 320.5 219 c 128,-1,21
 342 249 342 249 366 273 c 1,22,23
 374 321 374 321 370.5 378.5 c 128,-1,24
 367 436 367 436 353 488 c 1,25,26
 312 458 312 458 272.5 422 c 128,-1,27
 233 386 233 386 202 350 c 1,28,29
 198 318 198 318 186.5 287.5 c 128,-1,30
 175 257 175 257 158.5 232 c 128,-1,31
 142 207 142 207 124 192 c 128,-1,32
 106 177 106 177 89 177 c 0,33,34
 70 177 70 177 55.5 190 c 128,-1,35
 41 203 41 203 41 228 c 0,36,37
 41 249 41 249 53 276 c 128,-1,38
 65 303 65 303 86.5 333 c 128,-1,39
 108 363 108 363 136 392 c 1,40,41
 137 429 137 429 127.5 473.5 c 128,-1,42
 118 518 118 518 104 555 c 1,43,-1
 -7 555 l 1,44,-1
 -29 613 l 1,45,-1
 -24 622 l 1,46,-1
 132 622 l 1,47,48
 145 597 145 597 156.5 565 c 128,-1,49
 168 533 168 533 178 500 c 128,-1,50
 188 467 188 467 193 439 c 1,51,52
 219 463 219 463 249 489 c 128,-1,53
 279 515 279 515 309.5 538.5 c 128,-1,54
 340 562 340 562 366 579 c 1,55,-1
 372 579 l 1,56,57
 389 543 389 543 402.5 498 c 128,-1,58
 416 453 416 453 424.5 407 c 128,-1,59
 433 361 433 361 436 321 c 1,60,61
 459 342 459 342 487 364.5 c 128,-1,62
 515 387 515 387 545.5 408.5 c 128,-1,63
 576 430 576 430 604 447 c 1,64,-1
 604 622 l 1,65,-1
 787 622 l 1,66,-1
 809 565 l 1,0,-1
EndSplineSet
EndChar

StartChar: iguru
Encoding: 2567 2567 10
Width: 869
GlyphClass: 2
Flags: W
AnchorPoint: "Anchor-1" 786 -8 basechar 0
AnchorPoint: "Anchor-0" 714 622 basechar 0
LayerCount: 2
Fore
SplineSet
261 914 m 0,0,1
 328 914 328 914 379 882 c 128,-1,2
 430 850 430 850 465 793 c 128,-1,3
 500 736 500 736 517 661 c 1,4,-1
 512 655 l 1,5,-1
 483 655 l 1,6,7
 460 708 460 708 431.5 748.5 c 128,-1,8
 403 789 403 789 366.5 812.5 c 128,-1,9
 330 836 330 836 281 836 c 0,10,11
 246 836 246 836 214 822.5 c 128,-1,12
 182 809 182 809 161.5 779.5 c 128,-1,13
 141 750 141 750 141 703 c 0,14,15
 141 685 141 685 145 664.5 c 128,-1,16
 149 644 149 644 157 622 c 1,17,-1
 277 622 l 1,18,-1
 299 565 l 1,19,-1
 294 555 l 1,20,-1
 172 555 l 1,21,-1
 172 -24 l 1,22,-1
 162 -29 l 1,23,-1
 90 8 l 1,24,-1
 90 555 l 1,25,-1
 -13 555 l 1,26,-1
 -35 613 l 1,27,-1
 -30 622 l 1,28,-1
 91 622 l 1,29,30
 78 651 78 651 71.5 679.5 c 128,-1,31
 65 708 65 708 65 733 c 0,32,33
 65 790 65 790 92 830.5 c 128,-1,34
 119 871 119 871 163.5 892.5 c 128,-1,35
 208 914 208 914 261 914 c 0,0,1
692 293 m 2,36,37
 598 293 598 293 518 261 c 128,-1,38
 438 229 438 229 388 170 c 1,39,40
 412 133 412 133 445.5 106 c 128,-1,41
 479 79 479 79 517.5 64.5 c 128,-1,42
 556 50 556 50 593 50 c 0,43,44
 644 50 644 50 687.5 71 c 128,-1,45
 731 92 731 92 762 126 c 1,46,-1
 773 126 l 1,47,-1
 817 64 l 1,48,49
 782 24 782 24 732.5 -2 c 128,-1,50
 683 -28 683 -28 620 -28 c 0,51,52
 568 -28 568 -28 520 -9 c 128,-1,53
 472 10 472 10 431 42.5 c 128,-1,54
 390 75 390 75 359.5 115.5 c 128,-1,55
 329 156 329 156 312 199 c 1,56,57
 347 249 347 249 397.5 285 c 128,-1,58
 448 321 448 321 506 336 c 1,59,60
 456 346 456 346 420.5 369 c 128,-1,61
 385 392 385 392 363 422.5 c 128,-1,62
 341 453 341 453 330.5 487.5 c 128,-1,63
 320 522 320 522 318 555 c 1,64,-1
 227 555 l 1,65,-1
 205 613 l 1,66,-1
 210 622 l 1,67,-1
 882 622 l 1,68,-1
 904 565 l 1,69,-1
 900 555 l 1,70,-1
 763 555 l 1,71,-1
 763 315 l 1,72,-1
 745 293 l 1,73,-1
 692 293 l 2,36,37
681 555 m 1,74,-1
 403 555 l 1,75,76
 403 518 403 518 414.5 483 c 128,-1,77
 426 448 426 448 450.5 420.5 c 128,-1,78
 475 393 475 393 514 377 c 128,-1,79
 553 361 553 361 608 361 c 2,80,-1
 681 361 l 1,81,-1
 681 555 l 1,74,-1
EndSplineSet
EndChar

StartChar: ooguru
Encoding: 2579 2579 16
Width: 632
GlyphClass: 2
Flags: W
AnchorPoint: "Anchor-0" 642 630 basechar 0
LayerCount: 2
Fore
SplineSet
573 555 m 1,0,1
 572 468 572 468 540 408 c 128,-1,2
 508 348 508 348 444 322 c 1,3,4
 478 306 478 306 506 281.5 c 128,-1,5
 534 257 534 257 550.5 223 c 128,-1,6
 567 189 567 189 567 144 c 0,7,8
 567 65 567 65 515 16 c 128,-1,9
 463 -33 463 -33 374 -33 c 0,10,11
 308 -33 308 -33 257 -5 c 128,-1,12
 206 23 206 23 168 72 c 128,-1,13
 130 121 130 121 105.5 184.5 c 128,-1,14
 81 248 81 248 69 318.5 c 128,-1,15
 57 389 57 389 57 460 c 0,16,17
 57 484 57 484 59 509.5 c 128,-1,18
 61 535 61 535 63 555 c 1,19,-1
 -13 555 l 1,20,-1
 -35 613 l 1,21,-1
 -30 622 l 1,22,-1
 74 622 l 1,23,24
 99 718 99 718 151.5 773.5 c 128,-1,25
 204 829 204 829 272.5 853 c 128,-1,26
 341 877 341 877 413 877 c 2,27,-1
 544 877 l 1,28,-1
 571 816 l 1,29,-1
 566 807 l 1,30,-1
 413 807 l 2,31,32
 307 807 307 807 244.5 755 c 128,-1,33
 182 703 182 703 158 622 c 1,34,-1
 642 622 l 1,35,-1
 664 565 l 1,36,-1
 660 555 l 1,37,-1
 573 555 l 1,0,1
337 369 m 2,38,39
 392 369 392 369 432.5 395.5 c 128,-1,40
 473 422 473 422 496 464 c 128,-1,41
 519 506 519 506 520 555 c 1,42,-1
 144 555 l 1,43,44
 137 512 137 512 136 463.5 c 128,-1,45
 135 415 135 415 141 369 c 1,46,-1
 337 369 l 2,38,39
496 161 m 0,47,48
 496 197 496 197 478 227 c 128,-1,49
 460 257 460 257 424 275 c 128,-1,50
 388 293 388 293 334 293 c 2,51,-1
 147 293 l 1,52,53
 151 258 151 258 162.5 222 c 128,-1,54
 174 186 174 186 192.5 153 c 128,-1,55
 211 120 211 120 236 95 c 128,-1,56
 261 70 261 70 291.5 55 c 128,-1,57
 322 40 322 40 359 40 c 0,58,59
 421 40 421 40 458.5 73 c 128,-1,60
 496 106 496 106 496 161 c 0,47,48
EndSplineSet
EndChar

StartChar: kaguru
Encoding: 2581 2581 18
Width: 576
GlyphClass: 2
Flags: W
AnchorPoint: "Anchor-1" 515 0 basechar 0
AnchorPoint: "Anchor-0" 423 622 basechar 0
LayerCount: 2
Fore
SplineSet
611 565 m 1,0,-1
 607 555 l 1,1,-1
 479 555 l 1,2,3
 483 531 483 531 484.5 507.5 c 128,-1,4
 486 484 486 484 486 461 c 0,5,6
 486 398 486 398 473 342.5 c 128,-1,7
 460 287 460 287 436 243 c 1,8,9
 463 191 463 191 486 124 c 128,-1,10
 509 57 509 57 527 -23 c 1,11,-1
 518 -30 l 1,12,-1
 434 -4 l 1,13,14
 422 48 422 48 409.5 94 c 128,-1,15
 397 140 397 140 380 177 c 1,16,17
 348 139 348 139 306 119 c 128,-1,18
 264 99 264 99 218 99 c 0,19,20
 178 99 178 99 141.5 112.5 c 128,-1,21
 105 126 105 126 77 149.5 c 128,-1,22
 49 173 49 173 32.5 205 c 128,-1,23
 16 237 16 237 16 273 c 0,24,25
 16 315 16 315 37.5 351 c 128,-1,26
 59 387 59 387 98.5 409 c 128,-1,27
 138 431 138 431 190 431 c 0,28,29
 246 431 246 431 293.5 403.5 c 128,-1,30
 341 376 341 376 380 322 c 1,31,32
 394 352 394 352 401 388.5 c 128,-1,33
 408 425 408 425 408 467 c 0,34,35
 408 487 408 487 406.5 510 c 128,-1,36
 405 533 405 533 400 555 c 1,37,-1
 -13 555 l 1,38,-1
 -35 613 l 1,39,-1
 -30 622 l 1,40,-1
 589 622 l 1,41,-1
 611 565 l 1,0,-1
198 157 m 0,42,43
 245 157 245 157 286 183 c 128,-1,44
 327 209 327 209 354 254 c 1,45,46
 326 303 326 303 289.5 330 c 128,-1,47
 253 357 253 357 206 357 c 0,48,49
 169 357 169 357 143 342.5 c 128,-1,50
 117 328 117 328 103 304.5 c 128,-1,51
 89 281 89 281 89 255 c 0,52,53
 89 231 89 231 101.5 208.5 c 128,-1,54
 114 186 114 186 138.5 171.5 c 128,-1,55
 163 157 163 157 198 157 c 0,42,43
EndSplineSet
EndChar

StartChar: khaguru
Encoding: 2582 2582 19
Width: 606
GlyphClass: 2
Flags: W
AnchorPoint: "Anchor-1" 518 0 basechar 0
AnchorPoint: "Anchor-0" 470 622 basechar 0
LayerCount: 2
Fore
SplineSet
190 429 m 1,0,-1
 443 429 l 1,1,-1
 443 375 l 1,2,-1
 194 375 l 1,3,-1
 190 429 l 1,0,-1
641 565 m 1,4,-1
 637 555 l 1,5,-1
 518 555 l 1,6,-1
 518 -24 l 1,7,-1
 509 -29 l 1,8,-1
 436 8 l 1,9,-1
 436 162 l 1,10,11
 411 132 411 132 376.5 119 c 128,-1,12
 342 106 342 106 308 106 c 0,13,14
 268 106 268 106 230 121.5 c 128,-1,15
 192 137 192 137 159 163.5 c 128,-1,16
 126 190 126 190 100.5 224 c 128,-1,17
 75 258 75 258 59 294 c 1,18,19
 94 330 94 330 117 371 c 128,-1,20
 140 412 140 412 140 461 c 0,21,22
 140 483 140 483 134 507 c 128,-1,23
 128 531 128 531 114 555 c 1,24,-1
 -13 555 l 1,25,-1
 -35 613 l 1,26,-1
 -30 622 l 1,27,-1
 138 622 l 1,28,29
 178 567 178 567 197.5 516 c 128,-1,30
 217 465 217 465 217 419 c 0,31,32
 217 376 217 376 199 336 c 128,-1,33
 181 296 181 296 146 260 c 1,34,35
 161 239 161 239 182 220.5 c 128,-1,36
 203 202 203 202 229.5 190.5 c 128,-1,37
 256 179 256 179 288 179 c 0,38,39
 332 179 332 179 373 201 c 128,-1,40
 414 223 414 223 436 269 c 1,41,-1
 436 622 l 1,42,-1
 619 622 l 1,43,-1
 641 565 l 1,4,-1
EndSplineSet
EndChar

StartChar: gaguru
Encoding: 2583 2583 20
Width: 745
GlyphClass: 2
Flags: W
AnchorPoint: "Anchor-1" 657 0 basechar 0
AnchorPoint: "Anchor-0" 608 622 basechar 0
LayerCount: 2
Fore
SplineSet
780 565 m 1,0,-1
 776 555 l 1,1,-1
 657 555 l 1,2,-1
 657 -24 l 1,3,-1
 647 -29 l 1,4,-1
 575 8 l 1,5,-1
 575 555 l 1,6,-1
 415 555 l 1,7,-1
 415 179 l 2,8,9
 415 112 415 112 400.5 68 c 128,-1,10
 386 24 386 24 356.5 3 c 128,-1,11
 327 -18 327 -18 283 -18 c 0,12,13
 237 -18 237 -18 191 7.5 c 128,-1,14
 145 33 145 33 108 74.5 c 128,-1,15
 71 116 71 116 48.5 164 c 128,-1,16
 26 212 26 212 26 257 c 0,17,18
 26 292 26 292 41.5 324 c 128,-1,19
 57 356 57 356 93.5 376 c 128,-1,20
 130 396 130 396 192 396 c 2,21,-1
 335 396 l 1,22,-1
 335 555 l 1,23,-1
 -13 555 l 1,24,-1
 -35 613 l 1,25,-1
 -30 622 l 1,26,-1
 758 622 l 1,27,-1
 780 565 l 1,0,-1
264 41 m 0,28,29
 305 41 305 41 320 76 c 128,-1,30
 335 111 335 111 335 179 c 2,31,-1
 335 329 l 1,32,-1
 222 329 l 2,33,34
 161 329 161 329 133.5 304.5 c 128,-1,35
 106 280 106 280 106 237 c 0,36,37
 106 203 106 203 120.5 168.5 c 128,-1,38
 135 134 135 134 158.5 105 c 128,-1,39
 182 76 182 76 210 58.5 c 128,-1,40
 238 41 238 41 264 41 c 0,28,29
EndSplineSet
EndChar

StartChar: ghaguru
Encoding: 2584 2584 21
Width: 805
GlyphClass: 2
Flags: W
AnchorPoint: "Anchor-1" 717 0 basechar 0
AnchorPoint: "Anchor-0" 669 622 basechar 0
LayerCount: 2
Fore
SplineSet
840 565 m 1,0,-1
 836 555 l 1,1,-1
 717 555 l 1,2,-1
 717 -24 l 1,3,-1
 708 -29 l 1,4,-1
 635 8 l 1,5,-1
 635 146 l 1,6,7
 617 127 617 127 595 118 c 128,-1,8
 573 109 573 109 553 109 c 0,9,10
 507 109 507 109 473.5 135 c 128,-1,11
 440 161 440 161 420 204 c 1,12,13
 399 148 399 148 359 122 c 128,-1,14
 319 96 319 96 275 96 c 0,15,16
 239 96 239 96 207 111.5 c 128,-1,17
 175 127 175 127 147.5 154 c 128,-1,18
 120 181 120 181 97.5 216 c 128,-1,19
 75 251 75 251 59 290 c 1,20,21
 92 329 92 329 116.5 370.5 c 128,-1,22
 141 412 141 412 141 461 c 0,23,24
 141 482 141 482 135 506 c 128,-1,25
 129 530 129 530 115 555 c 1,26,-1
 -13 555 l 1,27,-1
 -35 613 l 1,28,-1
 -30 622 l 1,29,-1
 139 622 l 1,30,31
 164 588 164 588 181.5 552.5 c 128,-1,32
 199 517 199 517 208.5 482.5 c 128,-1,33
 218 448 218 448 218 418 c 0,34,35
 218 375 218 375 199 335 c 128,-1,36
 180 295 180 295 144 254 c 1,37,38
 156 232 156 232 172 212 c 128,-1,39
 188 192 188 192 209 179.5 c 128,-1,40
 230 167 230 167 255 167 c 0,41,42
 299 167 299 167 331 198.5 c 128,-1,43
 363 230 363 230 375 287 c 1,44,45
 370 304 370 304 366 327.5 c 128,-1,46
 362 351 362 351 358.5 376.5 c 128,-1,47
 355 402 355 402 353.5 425 c 128,-1,48
 352 448 352 448 352 462 c 0,49,50
 352 500 352 500 357.5 530 c 128,-1,51
 363 560 363 560 375.5 577 c 128,-1,52
 388 594 388 594 408 594 c 0,53,54
 439 594 439 594 451.5 560 c 128,-1,55
 464 526 464 526 464 464 c 0,56,57
 464 437 464 437 461 402 c 128,-1,58
 458 367 458 367 452 331.5 c 128,-1,59
 446 296 446 296 438 265 c 1,60,61
 453 230 453 230 477 206 c 128,-1,62
 501 182 501 182 542 182 c 0,63,64
 567 182 567 182 591.5 195.5 c 128,-1,65
 616 209 616 209 635 237 c 1,66,-1
 635 622 l 1,67,-1
 818 622 l 1,68,-1
 840 565 l 1,0,-1
EndSplineSet
EndChar

StartChar: ngaguru
Encoding: 2585 2585 22
Width: 609
GlyphClass: 2
Flags: W
AnchorPoint: "Anchor-1" 468 -17 basechar 0
AnchorPoint: "Anchor-0" 412 622 basechar 0
LayerCount: 2
Fore
SplineSet
640 555 m 1,0,-1
 186 555 l 1,1,-1
 186 437 l 1,2,-1
 339 437 l 2,3,4
 400 437 400 437 443 420 c 128,-1,5
 486 403 486 403 513 374.5 c 128,-1,6
 540 346 540 346 552.5 311.5 c 128,-1,7
 565 277 565 277 565 242 c 0,8,9
 565 196 565 196 546 152.5 c 128,-1,10
 527 109 527 109 495 72 c 1,11,12
 513 52 513 52 532 29 c 128,-1,13
 551 6 551 6 571 -18 c 1,14,-1
 531 -52 l 1,15,16
 511 -27 511 -27 492 -5.5 c 128,-1,17
 473 16 473 16 455 35 c 1,18,19
 416 3 416 3 368 -16.5 c 128,-1,20
 320 -36 320 -36 268 -36 c 0,21,22
 229 -36 229 -36 193.5 -24.5 c 128,-1,23
 158 -13 158 -13 130.5 8 c 128,-1,24
 103 29 103 29 87.5 57 c 128,-1,25
 72 85 72 85 72 118 c 0,26,27
 72 155 72 155 91 183.5 c 128,-1,28
 110 212 110 212 143 228 c 128,-1,29
 176 244 176 244 217 244 c 0,30,31
 276 244 276 244 330.5 213 c 128,-1,32
 385 182 385 182 439 129 c 1,33,34
 461 156 461 156 474 188 c 128,-1,35
 487 220 487 220 487 254 c 256,36,37
 487 288 487 288 471.5 313 c 128,-1,38
 456 338 456 338 421.5 351.5 c 128,-1,39
 387 365 387 365 330 365 c 2,40,-1
 122 365 l 1,41,-1
 104 387 l 1,42,-1
 104 555 l 1,43,-1
 -13 555 l 1,44,-1
 -35 613 l 1,45,-1
 -30 622 l 1,46,-1
 622 622 l 1,47,-1
 644 565 l 1,48,-1
 640 555 l 1,0,-1
244 22 m 0,49,50
 285 22 285 22 328 39.5 c 128,-1,51
 371 57 371 57 405 88 c 1,52,53
 360 132 360 132 319.5 155.5 c 128,-1,54
 279 179 279 179 235 179 c 0,55,56
 188 179 188 179 165.5 154.5 c 128,-1,57
 143 130 143 130 143 102 c 0,58,59
 143 71 143 71 169 46.5 c 128,-1,60
 195 22 195 22 244 22 c 0,49,50
EndSplineSet
EndChar

StartChar: caguru
Encoding: 2586 2586 23
Width: 609
GlyphClass: 2
Flags: W
AnchorPoint: "Anchor-1" 513 -17 basechar 0
AnchorPoint: "Anchor-0" 472 622 basechar 0
LayerCount: 2
Fore
SplineSet
644 565 m 1,0,-1
 640 555 l 1,1,-1
 521 555 l 1,2,-1
 521 153 l 2,3,4
 521 54 521 54 488.5 10 c 128,-1,5
 456 -34 456 -34 392 -34 c 0,6,7
 338 -34 338 -34 290.5 -6 c 128,-1,8
 243 22 243 22 205 69 c 128,-1,9
 167 116 167 116 141 174 c 128,-1,10
 115 232 115 232 105 292 c 1,11,-1
 94 292 l 2,12,13
 71 292 71 292 58 301.5 c 128,-1,14
 45 311 45 311 45 327 c 256,15,16
 45 343 45 343 56 361.5 c 128,-1,17
 67 380 67 380 83.5 396 c 128,-1,18
 100 412 100 412 119 422 c 128,-1,19
 138 432 138 432 154 432 c 0,20,21
 171 432 171 432 178.5 419 c 128,-1,22
 186 406 186 406 186 383 c 2,23,-1
 186 360 l 1,24,-1
 439 360 l 1,25,-1
 439 555 l 1,26,-1
 -19 555 l 1,27,-1
 -41 613 l 1,28,-1
 -36 622 l 1,29,-1
 622 622 l 1,30,-1
 644 565 l 1,0,-1
364 29 m 256,31,32
 406 29 406 29 422.5 61.5 c 128,-1,33
 439 94 439 94 439 155 c 2,34,-1
 439 302 l 1,35,-1
 186 302 l 1,36,37
 194 229 194 229 220 166.5 c 128,-1,38
 246 104 246 104 284 66.5 c 128,-1,39
 322 29 322 29 364 29 c 256,31,32
EndSplineSet
EndChar

StartChar: chaguru
Encoding: 2587 2587 24
Width: 661
GlyphClass: 2
Flags: W
AnchorPoint: "Anchor-1" 506 -17 basechar 0
AnchorPoint: "Anchor-0" 514 622 basechar 0
LayerCount: 2
Fore
SplineSet
264 393 m 2,0,1
 206 393 206 393 178 374.5 c 128,-1,2
 150 356 150 356 150 324 c 0,3,4
 150 299 150 299 164 281 c 128,-1,5
 178 263 178 263 198 252 c 1,6,7
 229 262 229 262 271 267 c 128,-1,8
 313 272 313 272 355 272 c 0,9,10
 450 272 450 272 507.5 251 c 128,-1,11
 565 230 565 230 591 194.5 c 128,-1,12
 617 159 617 159 617 114 c 0,13,14
 617 62 617 62 584.5 25 c 128,-1,15
 552 -12 552 -12 493.5 -31 c 128,-1,16
 435 -50 435 -50 356 -50 c 0,17,18
 268 -50 268 -50 204 -27.5 c 128,-1,19
 140 -5 140 -5 106 33.5 c 128,-1,20
 72 72 72 72 72 119 c 0,21,22
 72 154 72 154 90 183 c 128,-1,23
 108 212 108 212 146 232 c 1,24,25
 114 252 114 252 94.5 280.5 c 128,-1,26
 75 309 75 309 75 346 c 0,27,28
 75 399 75 399 118 431 c 128,-1,29
 161 463 161 463 246 463 c 2,30,-1
 480 463 l 1,31,-1
 480 555 l 1,32,-1
 -13 555 l 1,33,-1
 -35 613 l 1,34,-1
 -30 622 l 1,35,-1
 674 622 l 1,36,-1
 696 565 l 1,37,-1
 692 555 l 1,38,-1
 558 555 l 1,39,-1
 558 417 l 1,40,-1
 538 393 l 1,41,-1
 264 393 l 2,0,1
450 208 m 0,42,43
 406 208 406 208 381.5 178.5 c 128,-1,44
 357 149 357 149 357 108 c 0,45,46
 357 86 357 86 365.5 63 c 128,-1,47
 374 40 374 40 391 20 c 1,48,49
 466 26 466 26 506 53.5 c 128,-1,50
 546 81 546 81 546 124 c 0,51,52
 546 150 546 150 533 169 c 128,-1,53
 520 188 520 188 498 198 c 128,-1,54
 476 208 476 208 450 208 c 0,42,43
142 110 m 0,55,56
 142 70 142 70 185.5 43.5 c 128,-1,57
 229 17 229 17 323 17 c 2,58,-1
 332 17 l 1,59,60
 314 40 314 40 305 66.5 c 128,-1,61
 296 93 296 93 296 120 c 0,62,63
 296 149 296 149 308 173 c 128,-1,64
 320 197 320 197 344 208 c 1,65,66
 249 210 249 210 195.5 183 c 128,-1,67
 142 156 142 156 142 110 c 0,55,56
EndSplineSet
EndChar

StartChar: jaguru
Encoding: 2588 2588 25
Width: 602
GlyphClass: 2
Flags: W
AnchorPoint: "Anchor-1" 514 0 basechar 0
AnchorPoint: "Anchor-0" 465 622 basechar 0
LayerCount: 2
Fore
SplineSet
637 565 m 1,0,-1
 633 555 l 1,1,-1
 514 555 l 1,2,-1
 514 -24 l 1,3,-1
 504 -29 l 1,4,-1
 432 8 l 1,5,-1
 432 281 l 1,6,-1
 203 281 l 1,7,-1
 203 171 l 2,8,9
 203 95 203 95 180.5 48.5 c 128,-1,10
 158 2 158 2 114 -30 c 1,11,-1
 57 16 l 1,12,-1
 57 25 l 1,13,14
 96 54 96 54 111.5 93 c 128,-1,15
 127 132 127 132 127 183 c 2,16,-1
 127 278 l 1,17,-1
 109 278 l 2,18,19
 86 278 86 278 73 288 c 128,-1,20
 60 298 60 298 60 314 c 256,21,22
 60 330 60 330 71 348.5 c 128,-1,23
 82 367 82 367 99.5 383.5 c 128,-1,24
 117 400 117 400 136.5 410.5 c 128,-1,25
 156 421 156 421 172 421 c 0,26,27
 189 421 189 421 197.5 408 c 128,-1,28
 206 395 206 395 206 372 c 2,29,-1
 206 343 l 1,30,-1
 432 343 l 1,31,-1
 432 555 l 1,32,-1
 -13 555 l 1,33,-1
 -35 613 l 1,34,-1
 -30 622 l 1,35,-1
 615 622 l 1,36,-1
 637 565 l 1,0,-1
EndSplineSet
EndChar

StartChar: jhaguru
Encoding: 2589 2589 26
Width: 601
GlyphClass: 2
Flags: W
AnchorPoint: "Anchor-1" 470 -35 basechar 0
AnchorPoint: "Anchor-0" 488 622 basechar 0
LayerCount: 2
Fore
SplineSet
534 555 m 1,0,1
 527 477 527 477 496 425.5 c 128,-1,2
 465 374 465 374 406 353 c 1,3,4
 469 332 469 332 509.5 289.5 c 128,-1,5
 550 247 550 247 550 185 c 0,6,7
 550 138 550 138 524 101.5 c 128,-1,8
 498 65 498 65 453 42.5 c 128,-1,9
 408 20 408 20 349 13 c 1,10,11
 377 -8 377 -8 407 -35 c 128,-1,12
 437 -62 437 -62 465 -89 c 1,13,-1
 428 -124 l 1,14,15
 399 -95 399 -95 361 -59.5 c 128,-1,16
 323 -24 323 -24 284 4 c 1,17,18
 252 5 252 5 218 11.5 c 128,-1,19
 184 18 184 18 155 31 c 128,-1,20
 126 44 126 44 108 62.5 c 128,-1,21
 90 81 90 81 90 106 c 0,22,23
 90 129 90 129 107 143 c 128,-1,24
 124 157 124 157 151 157 c 0,25,26
 185 157 185 157 221 134 c 128,-1,27
 257 111 257 111 291 80 c 1,28,29
 347 84 347 84 390 99 c 128,-1,30
 433 114 433 114 457.5 139.5 c 128,-1,31
 482 165 482 165 482 198 c 0,32,33
 482 247 482 247 434.5 272.5 c 128,-1,34
 387 298 387 298 310 298 c 0,35,36
 263 298 263 298 205 289 c 128,-1,37
 147 280 147 280 88 262 c 1,38,-1
 79 267 l 1,39,-1
 65 335 l 1,40,41
 97 346 97 346 133 353 c 128,-1,42
 169 360 169 360 203 363 c 1,43,44
 153 383 153 383 120.5 432.5 c 128,-1,45
 88 482 88 482 80 555 c 1,46,-1
 -13 555 l 1,47,-1
 -35 613 l 1,48,-1
 -30 622 l 1,49,-1
 614 622 l 1,50,-1
 636 565 l 1,51,-1
 631 555 l 1,52,-1
 534 555 l 1,0,1
310 369 m 0,53,54
 356 369 356 369 386.5 393 c 128,-1,55
 417 417 417 417 433 459.5 c 128,-1,56
 449 502 449 502 449 555 c 1,57,-1
 160 555 l 1,58,59
 161 499 161 499 180 457 c 128,-1,60
 199 415 199 415 232.5 392 c 128,-1,61
 266 369 266 369 310 369 c 0,53,54
EndSplineSet
EndChar

StartChar: nyaguru
Encoding: 2590 2590 27
Width: 626
GlyphClass: 2
Flags: W
AnchorPoint: "Anchor-1" 536 -17 basechar 0
AnchorPoint: "Anchor-0" 490 622 basechar 0
LayerCount: 2
Fore
SplineSet
235 369 m 2,0,1
 176 369 176 369 148 351 c 128,-1,2
 120 333 120 333 120 302 c 0,3,4
 120 278 120 278 136 262.5 c 128,-1,5
 152 247 152 247 180.5 239.5 c 128,-1,6
 209 232 209 232 246 232 c 2,7,-1
 518 232 l 1,8,-1
 539 173 l 1,9,-1
 534 163 l 1,10,-1
 271 163 l 1,11,12
 262 139 262 139 262 117 c 0,13,14
 262 78 262 78 292.5 58.5 c 128,-1,15
 323 39 323 39 384 39 c 2,16,-1
 538 39 l 1,17,-1
 561 -28 l 1,18,-1
 556 -37 l 1,19,-1
 411 -37 l 2,20,21
 338 -37 338 -37 291.5 -15 c 128,-1,22
 245 7 245 7 223 43.5 c 128,-1,23
 201 80 201 80 201 123 c 0,24,25
 201 135 201 135 203 146.5 c 128,-1,26
 205 158 205 158 209 168 c 1,27,28
 163 176 163 176 126.5 196.5 c 128,-1,29
 90 217 90 217 69.5 248 c 128,-1,30
 49 279 49 279 49 317 c 0,31,32
 49 364 49 364 83 396.5 c 128,-1,33
 117 429 117 429 188 435 c 1,34,35
 143 454 143 454 116.5 486 c 128,-1,36
 90 518 90 518 79 555 c 1,37,-1
 -13 555 l 1,38,-1
 -35 613 l 1,39,-1
 -30 622 l 1,40,-1
 639 622 l 1,41,-1
 661 565 l 1,42,-1
 657 555 l 1,43,-1
 539 555 l 1,44,-1
 539 393 l 1,45,-1
 518 369 l 1,46,-1
 235 369 l 2,0,1
461 555 m 1,47,-1
 160 555 l 1,48,49
 168 522 168 522 187.5 495 c 128,-1,50
 207 468 207 468 242 452 c 128,-1,51
 277 436 277 436 331 436 c 2,52,-1
 461 436 l 1,53,-1
 461 555 l 1,47,-1
EndSplineSet
EndChar

StartChar: ttaguru
Encoding: 2591 2591 28
Width: 543
GlyphClass: 2
Flags: W
AnchorPoint: "Anchor-1" 454 -4 basechar 0
AnchorPoint: "Anchor-0" 386 622 basechar 0
LayerCount: 2
Fore
SplineSet
416 330 m 1,0,1
 346 327 346 327 287 314 c 128,-1,2
 228 301 228 301 180 274 c 128,-1,3
 132 247 132 247 94 201 c 1,4,5
 116 157 116 157 147.5 123.5 c 128,-1,6
 179 90 179 90 216.5 72 c 128,-1,7
 254 54 254 54 296 54 c 0,8,9
 344 54 344 54 386.5 75 c 128,-1,10
 429 96 429 96 460 130 c 1,11,-1
 472 130 l 1,12,-1
 515 68 l 1,13,14
 480 25 480 25 431 0.5 c 128,-1,15
 382 -24 382 -24 323 -24 c 0,16,17
 256 -24 256 -24 195 11.5 c 128,-1,18
 134 47 134 47 88 106 c 128,-1,19
 42 165 42 165 18 235 c 1,20,21
 79 318 79 318 164 356.5 c 128,-1,22
 249 395 249 395 352 402 c 1,23,-1
 352 555 l 1,24,-1
 -13 555 l 1,25,-1
 -35 613 l 1,26,-1
 -30 622 l 1,27,-1
 556 622 l 1,28,-1
 578 565 l 1,29,-1
 574 555 l 1,30,-1
 434 555 l 1,31,-1
 434 349 l 1,32,-1
 416 330 l 1,0,1
EndSplineSet
EndChar

StartChar: tthaguru
Encoding: 2592 2592 29
Width: 581
GlyphClass: 2
Flags: W
AnchorPoint: "Anchor-1" 452 -8 basechar 0
AnchorPoint: "Anchor-0" 305 622 basechar 0
LayerCount: 2
Fore
SplineSet
612 555 m 1,0,-1
 346 555 l 1,1,-1
 346 391 l 1,2,3
 402 370 402 370 447 335 c 128,-1,4
 492 300 492 300 519 255 c 128,-1,5
 546 210 546 210 546 158 c 0,6,7
 546 98 546 98 514.5 55.5 c 128,-1,8
 483 13 483 13 428.5 -10 c 128,-1,9
 374 -33 374 -33 305 -33 c 0,10,11
 249 -33 249 -33 199.5 -17 c 128,-1,12
 150 -1 150 -1 113 28 c 128,-1,13
 76 57 76 57 55 97 c 128,-1,14
 34 137 34 137 34 185 c 0,15,16
 34 243 34 243 64 286.5 c 128,-1,17
 94 330 94 330 146 360 c 128,-1,18
 198 390 198 390 264 406 c 1,19,-1
 264 555 l 1,20,-1
 -13 555 l 1,21,-1
 -35 613 l 1,22,-1
 -30 622 l 1,23,-1
 594 622 l 1,24,-1
 616 565 l 1,25,-1
 612 555 l 1,0,-1
477 177 m 0,26,27
 477 215 477 215 456.5 247.5 c 128,-1,28
 436 280 436 280 402.5 305 c 128,-1,29
 369 330 369 330 328 343 c 1,30,31
 269 335 269 335 217.5 311 c 128,-1,32
 166 287 166 287 134.5 251.5 c 128,-1,33
 103 216 103 216 103 171 c 0,34,35
 103 134 103 134 124.5 104.5 c 128,-1,36
 146 75 146 75 185.5 58.5 c 128,-1,37
 225 42 225 42 279 42 c 0,38,39
 330 42 330 42 375.5 58 c 128,-1,40
 421 74 421 74 449 104.5 c 128,-1,41
 477 135 477 135 477 177 c 0,26,27
EndSplineSet
EndChar

StartChar: ddaguru
Encoding: 2593 2593 30
Width: 577
GlyphClass: 2
Flags: W
AnchorPoint: "Anchor-1" 440 -8 basechar 0
AnchorPoint: "Anchor-0" 418 622 basechar 0
LayerCount: 2
Fore
SplineSet
612 565 m 1,0,-1
 608 555 l 1,1,-1
 469 555 l 1,2,3
 471 545 471 545 473 534.5 c 128,-1,4
 475 524 475 524 475 514 c 0,5,6
 475 468 475 468 451.5 431.5 c 128,-1,7
 428 395 428 395 388 372 c 1,8,9
 444 342 444 342 480.5 291.5 c 128,-1,10
 517 241 517 241 517 173 c 0,11,12
 517 109 517 109 483 62.5 c 128,-1,13
 449 16 449 16 391.5 -9 c 128,-1,14
 334 -34 334 -34 265 -34 c 0,15,16
 198 -34 198 -34 146 -13 c 128,-1,17
 94 8 94 8 65 43.5 c 128,-1,18
 36 79 36 79 36 123 c 0,19,20
 36 157 36 157 54.5 185 c 128,-1,21
 73 213 73 213 107 230.5 c 128,-1,22
 141 248 141 248 187 248 c 0,23,24
 243 248 243 248 305 217 c 128,-1,25
 367 186 367 186 422 110 c 1,26,27
 432 126 432 126 437.5 144.5 c 128,-1,28
 443 163 443 163 443 185 c 0,29,30
 443 235 443 235 414.5 278 c 128,-1,31
 386 321 386 321 333 342 c 1,32,33
 300 331 300 331 263 326.5 c 128,-1,34
 226 322 226 322 191 322 c 0,35,36
 160 322 160 322 133.5 327 c 128,-1,37
 107 332 107 332 91.5 343.5 c 128,-1,38
 76 355 76 355 76 374 c 0,39,40
 76 401 76 401 108.5 412.5 c 128,-1,41
 141 424 141 424 185 424 c 0,42,43
 227 424 227 424 267 417 c 128,-1,44
 307 410 307 410 336 397 c 1,45,46
 361 411 361 411 378 439.5 c 128,-1,47
 395 468 395 468 395 504 c 0,48,49
 395 516 395 516 393 529 c 128,-1,50
 391 542 391 542 386 555 c 1,51,-1
 -13 555 l 1,52,-1
 -35 613 l 1,53,-1
 -30 622 l 1,54,-1
 590 622 l 1,55,-1
 612 565 l 1,0,-1
241 23 m 0,56,57
 288 23 288 23 327.5 36.5 c 128,-1,58
 367 50 367 50 394 75 c 1,59,60
 351 133 351 133 303 159 c 128,-1,61
 255 185 255 185 209 185 c 0,62,63
 162 185 162 185 136 162 c 128,-1,64
 110 139 110 139 110 107 c 0,65,66
 110 72 110 72 145 47.5 c 128,-1,67
 180 23 180 23 241 23 c 0,56,57
EndSplineSet
EndChar

StartChar: ddhaguru
Encoding: 2594 2594 31
Width: 624
GlyphClass: 2
Flags: W
AnchorPoint: "Anchor-1" 532 -8 basechar 0
AnchorPoint: "Anchor-0" 470 622 basechar 0
LayerCount: 2
Fore
SplineSet
178 331 m 1,0,1
 183 276 183 276 196 228 c 128,-1,2
 209 180 209 180 230 143 c 1,3,4
 274 190 274 190 324.5 215.5 c 128,-1,5
 375 241 375 241 427 241 c 0,6,7
 474 241 474 241 508 221 c 128,-1,8
 542 201 542 201 560.5 169.5 c 128,-1,9
 579 138 579 138 579 101 c 256,10,11
 579 64 579 64 559 33 c 128,-1,12
 539 2 539 2 503 -16 c 128,-1,13
 467 -34 467 -34 417 -34 c 0,14,15
 351 -34 351 -34 297.5 -3 c 128,-1,16
 244 28 244 28 204 79.5 c 128,-1,17
 164 131 164 131 138 192.5 c 128,-1,18
 112 254 112 254 101 314 c 1,19,-1
 89 314 l 2,20,21
 66 314 66 314 53 323.5 c 128,-1,22
 40 333 40 333 40 350 c 0,23,24
 40 366 40 366 50 384.5 c 128,-1,25
 60 403 60 403 76 419.5 c 128,-1,26
 92 436 92 436 110.5 446.5 c 128,-1,27
 129 457 129 457 145 457 c 0,28,29
 162 457 162 457 170 444.5 c 128,-1,30
 178 432 178 432 178 408 c 2,31,-1
 178 390 l 1,32,-1
 437 390 l 1,33,-1
 437 555 l 1,34,-1
 -13 555 l 1,35,-1
 -35 613 l 1,36,-1
 -30 622 l 1,37,-1
 637 622 l 1,38,-1
 659 565 l 1,39,-1
 655 555 l 1,40,-1
 519 555 l 1,41,-1
 519 352 l 1,42,-1
 501 331 l 1,43,-1
 178 331 l 1,0,1
443 180 m 0,44,45
 406 180 406 180 362 158 c 128,-1,46
 318 136 318 136 277 93 c 1,47,48
 301 65 301 65 332.5 48.5 c 128,-1,49
 364 32 364 32 401 32 c 0,50,51
 437 32 437 32 464.5 43.5 c 128,-1,52
 492 55 492 55 507 74 c 128,-1,53
 522 93 522 93 522 115 c 0,54,55
 522 140 522 140 502.5 160 c 128,-1,56
 483 180 483 180 443 180 c 0,44,45
EndSplineSet
EndChar

StartChar: nnaguru
Encoding: 2595 2595 32
Width: 601
GlyphClass: 2
Flags: W
AnchorPoint: "Anchor-1" 474 -8 basechar 0
AnchorPoint: "Anchor-0" 408 622 basechar 0
LayerCount: 2
Fore
SplineSet
636 565 m 1,0,-1
 632 555 l 1,1,-1
 217 555 l 1,2,3
 257 503 257 503 313 473.5 c 128,-1,4
 369 444 369 444 434.5 435 c 128,-1,5
 500 426 500 426 568 433 c 1,6,-1
 584 354 l 1,7,8
 540 348 540 348 496 351.5 c 128,-1,9
 452 355 452 355 410 365 c 1,10,-1
 410 288 l 1,11,-1
 384 288 l 2,12,13
 326 288 326 288 275 278.5 c 128,-1,14
 224 269 224 269 182 247 c 128,-1,15
 140 225 140 225 108 185 c 1,16,17
 128 141 128 141 161 110.5 c 128,-1,18
 194 80 194 80 233 64.5 c 128,-1,19
 272 49 272 49 310 49 c 0,20,21
 356 49 356 49 399 68 c 128,-1,22
 442 87 442 87 470 121 c 1,23,-1
 482 121 l 1,24,-1
 519 56 l 1,25,26
 488 17 488 17 440 -5.5 c 128,-1,27
 392 -28 392 -28 338 -28 c 0,28,29
 287 -28 287 -28 239 -8.5 c 128,-1,30
 191 11 191 11 150 45.5 c 128,-1,31
 109 80 109 80 79 125 c 128,-1,32
 49 170 49 170 34 221 c 1,33,34
 70 273 70 273 117 302 c 128,-1,35
 164 331 164 331 219 343.5 c 128,-1,36
 274 356 274 356 332 357 c 1,37,-1
 332 398 l 1,38,39
 275 423 275 423 228 463 c 128,-1,40
 181 503 181 503 151 555 c 1,41,-1
 -13 555 l 1,42,-1
 -35 613 l 1,43,-1
 -30 622 l 1,44,-1
 614 622 l 1,45,-1
 636 565 l 1,0,-1
EndSplineSet
EndChar

StartChar: taguru
Encoding: 2596 2596 33
Width: 587
GlyphClass: 2
Flags: W
AnchorPoint: "Anchor-1" 438 0 basechar 0
AnchorPoint: "Anchor-0" 428 622 basechar 0
LayerCount: 2
Fore
SplineSet
622 565 m 1,0,-1
 618 555 l 1,1,-1
 480 555 l 1,2,3
 483 543 483 543 484.5 531.5 c 128,-1,4
 486 520 486 520 486 508 c 0,5,6
 486 454 486 454 464 409.5 c 128,-1,7
 442 365 442 365 399 341 c 1,8,9
 454 310 454 310 484 266 c 128,-1,10
 514 222 514 222 514 167 c 0,11,12
 514 111 514 111 484 68.5 c 128,-1,13
 454 26 454 26 402.5 2 c 128,-1,14
 351 -22 351 -22 286 -22 c 0,15,16
 234 -22 234 -22 186.5 -7.5 c 128,-1,17
 139 7 139 7 103 29.5 c 128,-1,18
 67 52 67 52 46 77.5 c 128,-1,19
 25 103 25 103 25 125 c 0,20,21
 25 139 25 139 32 149 c 1,22,23
 84 102 84 102 143.5 78 c 128,-1,24
 203 54 203 54 264 54 c 0,25,26
 346 54 346 54 392.5 92 c 128,-1,27
 439 130 439 130 439 186 c 0,28,29
 439 223 439 223 416.5 255 c 128,-1,30
 394 287 394 287 350 306 c 1,31,32
 317 291 317 291 278 283.5 c 128,-1,33
 239 276 239 276 205 276 c 0,34,35
 173 276 173 276 147 283 c 128,-1,36
 121 290 121 290 105.5 304 c 128,-1,37
 90 318 90 318 90 338 c 0,38,39
 90 367 90 367 122 381 c 128,-1,40
 154 395 154 395 201 395 c 0,41,42
 238 395 238 395 277 387.5 c 128,-1,43
 316 380 316 380 346 367 c 1,44,45
 370 383 370 383 387.5 417 c 128,-1,46
 405 451 405 451 405 493 c 0,47,48
 405 509 405 509 403 524.5 c 128,-1,49
 401 540 401 540 396 555 c 1,50,-1
 -13 555 l 1,51,-1
 -35 613 l 1,52,-1
 -30 622 l 1,53,-1
 600 622 l 1,54,-1
 622 565 l 1,0,-1
EndSplineSet
EndChar

StartChar: thaguru
Encoding: 2597 2597 34
Width: 598
GlyphClass: 2
Flags: W
AnchorPoint: "Anchor-1" 510 0 basechar 0
AnchorPoint: "Anchor-0" 461 622 basechar 0
LayerCount: 2
Fore
SplineSet
178 405 m 1,0,-1
 431 405 l 1,1,-1
 431 351 l 1,2,-1
 182 351 l 1,3,-1
 178 405 l 1,0,-1
633 565 m 1,4,-1
 629 555 l 1,5,-1
 510 555 l 1,6,-1
 510 -24 l 1,7,-1
 501 -29 l 1,8,-1
 428 8 l 1,9,-1
 428 159 l 1,10,11
 403 128 403 128 367 115 c 128,-1,12
 331 102 331 102 296 102 c 0,13,14
 256 102 256 102 218 117.5 c 128,-1,15
 180 133 180 133 147 159.5 c 128,-1,16
 114 186 114 186 88.5 220 c 128,-1,17
 63 254 63 254 47 290 c 1,18,19
 82 326 82 326 105 367 c 128,-1,20
 128 408 128 408 128 457 c 0,21,22
 128 480 128 480 121.5 505 c 128,-1,23
 115 530 115 530 101 555 c 1,24,-1
 -25 555 l 1,25,-1
 -47 613 l 1,26,-1
 -42 622 l 1,27,-1
 611 622 l 1,28,-1
 633 565 l 1,4,-1
428 268 m 1,29,-1
 428 555 l 1,30,-1
 163 555 l 1,31,32
 184 517 184 517 194.5 482.5 c 128,-1,33
 205 448 205 448 205 415 c 0,34,35
 205 372 205 372 187 332 c 128,-1,36
 169 292 169 292 134 256 c 1,37,38
 149 235 149 235 170 216.5 c 128,-1,39
 191 198 191 198 217.5 186.5 c 128,-1,40
 244 175 244 175 276 175 c 0,41,42
 320 175 320 175 362.5 198 c 128,-1,43
 405 221 405 221 428 268 c 1,29,-1
EndSplineSet
EndChar

StartChar: daguru
Encoding: 2598 2598 35
Width: 603
GlyphClass: 2
Flags: W
AnchorPoint: "Anchor-1" 514 0 basechar 0
AnchorPoint: "Anchor-0" 439 622 basechar 0
LayerCount: 2
Fore
SplineSet
184 309 m 1,0,1
 191 228 191 228 214 167.5 c 128,-1,2
 237 107 237 107 274 73.5 c 128,-1,3
 311 40 311 40 358 40 c 0,4,5
 412 40 412 40 445 79 c 128,-1,6
 478 118 478 118 488 171 c 1,7,-1
 499 178 l 1,8,-1
 567 155 l 1,9,10
 559 107 559 107 535.5 67.5 c 128,-1,11
 512 28 512 28 472 5 c 128,-1,12
 432 -18 432 -18 374 -18 c 0,13,14
 327 -18 327 -18 287.5 0 c 128,-1,15
 248 18 248 18 216.5 49.5 c 128,-1,16
 185 81 185 81 161.5 121.5 c 128,-1,17
 138 162 138 162 123 208 c 128,-1,18
 108 254 108 254 101 300 c 1,19,-1
 89 300 l 2,20,21
 66 300 66 300 53 309.5 c 128,-1,22
 40 319 40 319 40 336 c 0,23,24
 40 352 40 352 50 369.5 c 128,-1,25
 60 387 60 387 76 403 c 128,-1,26
 92 419 92 419 110 429 c 128,-1,27
 128 439 128 439 144 439 c 0,28,29
 161 439 161 439 169.5 426 c 128,-1,30
 178 413 178 413 178 390 c 2,31,-1
 178 368 l 1,32,-1
 406 368 l 1,33,-1
 406 555 l 1,34,-1
 -13 555 l 1,35,-1
 -35 613 l 1,36,-1
 -30 622 l 1,37,-1
 616 622 l 1,38,-1
 638 565 l 1,39,-1
 634 555 l 1,40,-1
 488 555 l 1,41,-1
 488 331 l 1,42,-1
 470 309 l 1,43,-1
 184 309 l 1,0,1
EndSplineSet
EndChar

StartChar: dhaguru
Encoding: 2599 2599 36
Width: 589
GlyphClass: 2
Flags: W
AnchorPoint: "Anchor-1" 501 0 basechar 0
AnchorPoint: "Anchor-0" 452 622 basechar 0
LayerCount: 2
Fore
SplineSet
624 565 m 1,0,-1
 619 555 l 1,1,-1
 501 555 l 1,2,-1
 501 -24 l 1,3,-1
 491 -29 l 1,4,-1
 418 8 l 1,5,-1
 418 161 l 1,6,7
 394 133 394 133 361 121.5 c 128,-1,8
 328 110 328 110 296 110 c 0,9,10
 256 110 256 110 218 125.5 c 128,-1,11
 180 141 180 141 147 167.5 c 128,-1,12
 114 194 114 194 88.5 228 c 128,-1,13
 63 262 63 262 47 298 c 1,14,15
 82 334 82 334 105 375 c 128,-1,16
 128 416 128 416 128 465 c 0,17,18
 128 486 128 486 122.5 509 c 128,-1,19
 117 532 117 532 103 555 c 1,20,-1
 -25 555 l 1,21,-1
 -47 613 l 1,22,-1
 -42 622 l 1,23,-1
 602 622 l 1,24,-1
 624 565 l 1,0,-1
418 263 m 1,25,-1
 418 555 l 1,26,-1
 167 555 l 1,27,28
 187 519 187 519 196 486.5 c 128,-1,29
 205 454 205 454 205 423 c 0,30,31
 205 380 205 380 187 340 c 128,-1,32
 169 300 169 300 134 264 c 1,33,34
 149 243 149 243 170 224.5 c 128,-1,35
 191 206 191 206 217.5 194.5 c 128,-1,36
 244 183 244 183 276 183 c 0,37,38
 317 183 317 183 356 203 c 128,-1,39
 395 223 395 223 418 263 c 1,25,-1
EndSplineSet
EndChar

StartChar: naguru
Encoding: 2600 2600 37
Width: 605
GlyphClass: 2
Flags: W
AnchorPoint: "Anchor-1" 489 0 basechar 0
AnchorPoint: "Anchor-0" 317 622 basechar 0
LayerCount: 2
Fore
SplineSet
636 555 m 1,0,-1
 354 555 l 1,1,-1
 354 396 l 1,2,3
 413 366 413 366 462 324.5 c 128,-1,4
 511 283 511 283 541 234 c 128,-1,5
 571 185 571 185 571 129 c 0,6,7
 571 80 571 80 548.5 45 c 128,-1,8
 526 10 526 10 482 -7 c 128,-1,9
 438 -24 438 -24 373 -21 c 1,10,-1
 363 -9 l 1,11,-1
 363 61 l 1,12,13
 434 59 434 59 470 84 c 128,-1,14
 506 109 506 109 506 149 c 0,15,16
 506 177 506 177 490 206.5 c 128,-1,17
 474 236 474 236 447 263 c 128,-1,18
 420 290 420 290 387.5 312 c 128,-1,19
 355 334 355 334 323 347 c 1,20,21
 281 334 281 334 241 312 c 128,-1,22
 201 290 201 290 169 263 c 128,-1,23
 137 236 137 236 118 206.5 c 128,-1,24
 99 177 99 177 99 150 c 0,25,26
 99 117 99 117 116.5 97 c 128,-1,27
 134 77 134 77 165.5 69 c 128,-1,28
 197 61 197 61 238 61 c 1,29,-1
 247 48 l 1,30,-1
 247 -21 l 1,31,32
 169 -24 169 -24 121.5 2.5 c 128,-1,33
 74 29 74 29 53 72.5 c 128,-1,34
 32 116 32 116 32 162 c 0,35,36
 32 201 32 201 50 238.5 c 128,-1,37
 68 276 68 276 101 309 c 128,-1,38
 134 342 134 342 178.5 369 c 128,-1,39
 223 396 223 396 275 415 c 1,40,-1
 275 555 l 1,41,-1
 -13 555 l 1,42,-1
 -35 613 l 1,43,-1
 -30 622 l 1,44,-1
 618 622 l 1,45,-1
 640 565 l 1,46,-1
 636 555 l 1,0,-1
EndSplineSet
EndChar

StartChar: paguru
Encoding: 2602 2602 38
Width: 577
GlyphClass: 2
Flags: W
AnchorPoint: "Anchor-1" 489 0 basechar 0
AnchorPoint: "Anchor-0" 441 622 basechar 0
LayerCount: 2
Fore
SplineSet
612 565 m 1,0,-1
 608 555 l 1,1,-1
 489 555 l 1,2,-1
 489 -24 l 1,3,-1
 480 -29 l 1,4,-1
 407 8 l 1,5,-1
 407 147 l 1,6,7
 384 125 384 125 354.5 115.5 c 128,-1,8
 325 106 325 106 296 106 c 0,9,10
 256 106 256 106 218 121.5 c 128,-1,11
 180 137 180 137 147 163.5 c 128,-1,12
 114 190 114 190 88.5 224 c 128,-1,13
 63 258 63 258 47 294 c 1,14,15
 82 330 82 330 105 371 c 128,-1,16
 128 412 128 412 128 461 c 0,17,18
 128 483 128 483 122 507 c 128,-1,19
 116 531 116 531 102 555 c 1,20,-1
 -25 555 l 1,21,-1
 -47 613 l 1,22,-1
 -42 622 l 1,23,-1
 126 622 l 1,24,25
 166 567 166 567 185.5 516 c 128,-1,26
 205 465 205 465 205 419 c 0,27,28
 205 376 205 376 187 336 c 128,-1,29
 169 296 169 296 134 260 c 1,30,31
 149 239 149 239 170 220.5 c 128,-1,32
 191 202 191 202 217.5 190.5 c 128,-1,33
 244 179 244 179 276 179 c 0,34,35
 313 179 313 179 348 195 c 128,-1,36
 383 211 383 211 407 242 c 1,37,-1
 407 622 l 1,38,-1
 590 622 l 1,39,-1
 612 565 l 1,0,-1
EndSplineSet
EndChar

StartChar: phaguru
Encoding: 2603 2603 39
Width: 593
GlyphClass: 2
Flags: W
AnchorPoint: "Anchor-1" 494 -8 basechar 0
AnchorPoint: "Anchor-0" 438 622 basechar 0
LayerCount: 2
Fore
SplineSet
274 365 m 2,0,1
 220 365 220 365 185.5 349 c 128,-1,2
 151 333 151 333 134.5 305 c 128,-1,3
 118 277 118 277 118 240 c 0,4,5
 118 206 118 206 130 175 c 128,-1,6
 142 144 142 144 162 119 c 1,7,8
 207 175 207 175 264.5 209 c 128,-1,9
 322 243 322 243 381 243 c 0,10,11
 428 243 428 243 462 222.5 c 128,-1,12
 496 202 496 202 514.5 169.5 c 128,-1,13
 533 137 533 137 533 100 c 0,14,15
 533 44 533 44 489 5 c 128,-1,16
 445 -34 445 -34 365 -34 c 0,17,18
 299 -34 299 -34 241 -7.5 c 128,-1,19
 183 19 183 19 138 63 c 128,-1,20
 93 107 93 107 67.5 160.5 c 128,-1,21
 42 214 42 214 42 268 c 0,22,23
 42 315 42 315 63.5 353 c 128,-1,24
 85 391 85 391 132.5 414 c 128,-1,25
 180 437 180 437 256 437 c 2,26,-1
 409 437 l 1,27,-1
 409 555 l 1,28,-1
 -13 555 l 1,29,-1
 -35 613 l 1,30,-1
 -30 622 l 1,31,-1
 606 622 l 1,32,-1
 628 565 l 1,33,-1
 624 555 l 1,34,-1
 487 555 l 1,35,-1
 487 387 l 1,36,-1
 469 365 l 1,37,-1
 274 365 l 2,0,1
397 180 m 0,38,39
 358 180 358 180 310.5 155.5 c 128,-1,40
 263 131 263 131 220 80 c 1,41,42
 247 58 247 58 281 45 c 128,-1,43
 315 32 315 32 349 32 c 0,44,45
 410 32 410 32 443 57.5 c 128,-1,46
 476 83 476 83 476 114 c 0,47,48
 476 139 476 139 457 159.5 c 128,-1,49
 438 180 438 180 397 180 c 0,38,39
EndSplineSet
EndChar

StartChar: baguru
Encoding: 2604 2604 40
Width: 615
GlyphClass: 2
Flags: W
AnchorPoint: "Anchor-1" 527 0 basechar 0
AnchorPoint: "Anchor-0" 478 622 basechar 0
LayerCount: 2
Fore
SplineSet
650 565 m 1,0,-1
 645 555 l 1,1,-1
 527 555 l 1,2,-1
 527 -32 l 1,3,-1
 517 -37 l 1,4,-1
 444 0 l 1,5,-1
 444 83 l 1,6,7
 420 73 420 73 392 66.5 c 128,-1,8
 364 60 364 60 332 60 c 0,9,10
 288 60 288 60 245 74.5 c 128,-1,11
 202 89 202 89 163.5 115.5 c 128,-1,12
 125 142 125 142 95.5 177.5 c 128,-1,13
 66 213 66 213 48 255 c 1,14,15
 83 303 83 303 129.5 331 c 128,-1,16
 176 359 176 359 232 371 c 1,17,18
 177 385 177 385 140.5 414 c 128,-1,19
 104 443 104 443 84 480.5 c 128,-1,20
 64 518 64 518 56 555 c 1,21,-1
 -13 555 l 1,22,-1
 -35 613 l 1,23,-1
 -30 622 l 1,24,-1
 628 622 l 1,25,-1
 650 565 l 1,0,-1
444 391 m 1,26,-1
 444 555 l 1,27,-1
 139 555 l 1,28,29
 146 513 146 513 169.5 475.5 c 128,-1,30
 193 438 193 438 235 414.5 c 128,-1,31
 277 391 277 391 341 391 c 2,32,-1
 444 391 l 1,26,-1
306 132 m 0,33,34
 344 132 344 132 379 141.5 c 128,-1,35
 414 151 414 151 444 171 c 1,36,-1
 444 320 l 1,37,-1
 381 320 l 2,38,39
 303 320 303 320 237 298.5 c 128,-1,40
 171 277 171 277 124 223 c 1,41,42
 143 194 143 194 171.5 173.5 c 128,-1,43
 200 153 200 153 235 142.5 c 128,-1,44
 270 132 270 132 306 132 c 0,33,34
EndSplineSet
EndChar

StartChar: bhaguru
Encoding: 2605 2605 41
Width: 598
GlyphClass: 2
Flags: W
AnchorPoint: "Anchor-1" 458 -8 basechar 0
AnchorPoint: "Anchor-0" 437 622 basechar 0
LayerCount: 2
Fore
SplineSet
633 565 m 1,0,-1
 629 555 l 1,1,-1
 489 555 l 1,2,3
 493 538 493 538 495 521.5 c 128,-1,4
 497 505 497 505 497 489 c 0,5,6
 497 443 497 443 485 399 c 128,-1,7
 473 355 473 355 450 322 c 1,8,9
 481 289 481 289 501 248 c 128,-1,10
 521 207 521 207 521 160 c 0,11,12
 521 104 521 104 492 61.5 c 128,-1,13
 463 19 463 19 411.5 -4 c 128,-1,14
 360 -27 360 -27 293 -27 c 0,15,16
 239 -27 239 -27 192 -12.5 c 128,-1,17
 145 2 145 2 109.5 25 c 128,-1,18
 74 48 74 48 54 73.5 c 128,-1,19
 34 99 34 99 34 121 c 0,20,21
 34 128 34 128 36 135 c 128,-1,22
 38 142 38 142 42 148 c 1,23,24
 97 97 97 97 155 71.5 c 128,-1,25
 213 46 213 46 275 46 c 0,26,27
 353 46 353 46 401 85 c 128,-1,28
 449 124 449 124 449 185 c 0,29,30
 449 233 449 233 414 277 c 1,31,32
 380 237 380 237 334 214 c 128,-1,33
 288 191 288 191 236 191 c 0,34,35
 191 191 191 191 152 208.5 c 128,-1,36
 113 226 113 226 89 257 c 128,-1,37
 65 288 65 288 65 329 c 0,38,39
 65 363 65 363 82 391.5 c 128,-1,40
 99 420 99 420 132.5 437 c 128,-1,41
 166 454 166 454 213 454 c 0,42,43
 262 454 262 454 309.5 435 c 128,-1,44
 357 416 357 416 397 377 c 1,45,46
 407 399 407 399 412.5 424 c 128,-1,47
 418 449 418 449 418 476 c 0,48,49
 418 495 418 495 415.5 515 c 128,-1,50
 413 535 413 535 406 555 c 1,51,-1
 -13 555 l 1,52,-1
 -35 613 l 1,53,-1
 -30 622 l 1,54,-1
 611 622 l 1,55,-1
 633 565 l 1,0,-1
226 245 m 0,56,57
 271 245 271 245 309.5 267.5 c 128,-1,58
 348 290 348 290 374 329 c 1,59,60
 339 361 339 361 303 376.5 c 128,-1,61
 267 392 267 392 231 392 c 0,62,63
 197 392 197 392 175.5 380.5 c 128,-1,64
 154 369 154 369 143.5 351 c 128,-1,65
 133 333 133 333 133 315 c 0,66,67
 133 292 133 292 146 276.5 c 128,-1,68
 159 261 159 261 180 253 c 128,-1,69
 201 245 201 245 226 245 c 0,56,57
EndSplineSet
EndChar

StartChar: maguru
Encoding: 2606 2606 42
Width: 596
GlyphClass: 2
Flags: W
AnchorPoint: "Anchor-1" 508 0 basechar 0
AnchorPoint: "Anchor-0" 459 622 basechar 0
LayerCount: 2
Fore
SplineSet
631 565 m 1,0,-1
 627 555 l 1,1,-1
 508 555 l 1,2,-1
 508 -24 l 1,3,-1
 498 -29 l 1,4,-1
 426 7 l 1,5,-1
 426 249 l 1,6,-1
 224 249 l 1,7,8
 221 216 221 216 213 183.5 c 128,-1,9
 205 151 205 151 192 124 c 128,-1,10
 179 97 179 97 161 81 c 128,-1,11
 143 65 143 65 122 65 c 0,12,13
 99 65 99 65 82.5 80.5 c 128,-1,14
 66 96 66 96 66 127 c 0,15,16
 66 148 66 148 75 175.5 c 128,-1,17
 84 203 84 203 101 233 c 128,-1,18
 118 263 118 263 142 290 c 1,19,20
 144 320 144 320 141 356 c 128,-1,21
 138 392 138 392 132.5 428 c 128,-1,22
 127 464 127 464 118.5 497 c 128,-1,23
 110 530 110 530 99 555 c 1,24,-1
 -13 555 l 1,25,-1
 -35 613 l 1,26,-1
 -30 622 l 1,27,-1
 139 622 l 1,28,29
 156 592 156 592 170.5 553 c 128,-1,30
 185 514 185 514 195.5 471 c 128,-1,31
 206 428 206 428 212.5 386.5 c 128,-1,32
 219 345 219 345 220 311 c 1,33,-1
 426 311 l 1,34,-1
 426 622 l 1,35,-1
 609 622 l 1,36,-1
 631 565 l 1,0,-1
EndSplineSet
EndChar

StartChar: yaguru
Encoding: 2607 2607 43
Width: 731
GlyphClass: 2
Flags: W
AnchorPoint: "Anchor-1" 643 0 basechar 0
AnchorPoint: "Anchor-0" 594 622 basechar 0
LayerCount: 2
Fore
SplineSet
766 565 m 1,0,-1
 762 555 l 1,1,-1
 643 555 l 1,2,-1
 643 -24 l 1,3,-1
 634 -29 l 1,4,-1
 561 8 l 1,5,-1
 561 313 l 1,6,-1
 423 313 l 1,7,-1
 423 256 l 2,8,9
 423 211 423 211 416.5 175.5 c 128,-1,10
 410 140 410 140 394.5 115.5 c 128,-1,11
 379 91 379 91 352.5 78.5 c 128,-1,12
 326 66 326 66 287 66 c 0,13,14
 251 66 251 66 217.5 82.5 c 128,-1,15
 184 99 184 99 155 128 c 128,-1,16
 126 157 126 157 102.5 194 c 128,-1,17
 79 231 79 231 63 272 c 1,18,19
 98 313 98 313 120.5 354.5 c 128,-1,20
 143 396 143 396 143 443 c 0,21,22
 143 468 143 468 135 497.5 c 128,-1,23
 127 527 127 527 109 555 c 1,24,-1
 -13 555 l 1,25,-1
 -35 613 l 1,26,-1
 -30 622 l 1,27,-1
 744 622 l 1,28,-1
 766 565 l 1,0,-1
561 375 m 1,29,-1
 561 555 l 1,30,-1
 175 555 l 1,31,32
 198 516 198 516 210 477 c 128,-1,33
 222 438 222 438 222 403 c 0,34,35
 222 358 222 358 202.5 317 c 128,-1,36
 183 276 183 276 146 234 c 1,37,38
 159 207 159 207 176.5 183.5 c 128,-1,39
 194 160 194 160 215.5 146 c 128,-1,40
 237 132 237 132 261 132 c 0,41,42
 308 132 308 132 327 164.5 c 128,-1,43
 346 197 346 197 346 258 c 2,44,-1
 346 354 l 1,45,-1
 367 375 l 1,46,-1
 561 375 l 1,29,-1
EndSplineSet
EndChar

StartChar: raguru
Encoding: 2608 2608 44
Width: 527
GlyphClass: 2
Flags: W
AnchorPoint: "Anchor-1" 429 0 basechar 0
AnchorPoint: "Anchor-0" 394 622 basechar 0
LayerCount: 2
Fore
SplineSet
562 565 m 1,0,-1
 557 555 l 1,1,-1
 439 555 l 1,2,-1
 439 177 l 2,3,4
 439 109 439 109 424.5 65.5 c 128,-1,5
 410 22 410 22 380 1 c 128,-1,6
 350 -20 350 -20 305 -20 c 0,7,8
 255 -20 255 -20 205.5 5.5 c 128,-1,9
 156 31 156 31 115.5 72.5 c 128,-1,10
 75 114 75 114 50.5 162.5 c 128,-1,11
 26 211 26 211 26 256 c 0,12,13
 26 291 26 291 41.5 322.5 c 128,-1,14
 57 354 57 354 93.5 374 c 128,-1,15
 130 394 130 394 192 394 c 2,16,-1
 357 394 l 1,17,-1
 357 555 l 1,18,-1
 -13 555 l 1,19,-1
 -35 613 l 1,20,-1
 -30 622 l 1,21,-1
 540 622 l 1,22,-1
 562 565 l 1,0,-1
281 41 m 0,23,24
 322 41 322 41 339.5 75.5 c 128,-1,25
 357 110 357 110 357 174 c 2,26,-1
 357 327 l 1,27,-1
 224 327 l 2,28,29
 163 327 163 327 135.5 302.5 c 128,-1,30
 108 278 108 278 108 235 c 0,31,32
 108 204 108 204 124 170 c 128,-1,33
 140 136 140 136 166 106.5 c 128,-1,34
 192 77 192 77 222.5 59 c 128,-1,35
 253 41 253 41 281 41 c 0,23,24
EndSplineSet
EndChar

StartChar: laguru
Encoding: 2610 2610 45
Width: 666
GlyphClass: 2
Flags: W
AnchorPoint: "Anchor-1" 528 0 basechar 0
AnchorPoint: "Anchor-0" 467 622 basechar 0
LayerCount: 2
Fore
SplineSet
696 555 m 1,0,-1
 516 555 l 1,1,2
 509 516 509 516 498.5 473.5 c 128,-1,3
 488 431 488 431 471 389 c 1,4,5
 513 361 513 361 547.5 325 c 128,-1,6
 582 289 582 289 603 245 c 128,-1,7
 624 201 624 201 624 149 c 0,8,9
 624 102 624 102 602.5 63 c 128,-1,10
 581 24 581 24 533.5 1 c 128,-1,11
 486 -22 486 -22 409 -21 c 1,12,-1
 399 -9 l 1,13,-1
 399 61 l 1,14,15
 481 60 481 60 519 90 c 128,-1,16
 557 120 557 120 557 169 c 0,17,18
 557 219 557 219 526 262.5 c 128,-1,19
 495 306 495 306 448 337 c 1,20,21
 425 288 425 288 395.5 241.5 c 128,-1,22
 366 195 366 195 329 155 c 1,23,24
 297 190 297 190 270 232.5 c 128,-1,25
 243 275 243 275 221 321 c 1,26,27
 173 293 173 293 140.5 253.5 c 128,-1,28
 108 214 108 214 108 164 c 0,29,30
 108 131 108 131 127 107.5 c 128,-1,31
 146 84 146 84 180 72.5 c 128,-1,32
 214 61 214 61 260 61 c 1,33,-1
 269 48 l 1,34,-1
 269 -21 l 1,35,36
 209 -24 209 -24 166 -7 c 128,-1,37
 123 10 123 10 95 39.5 c 128,-1,38
 67 69 67 69 54 105 c 128,-1,39
 41 141 41 141 41 178 c 0,40,41
 41 246 41 246 80.5 300 c 128,-1,42
 120 354 120 354 186 393 c 1,43,44
 171 435 171 435 160.5 476.5 c 128,-1,45
 150 518 150 518 145 555 c 1,46,-1
 -13 555 l 1,47,-1
 -35 613 l 1,48,-1
 -30 622 l 1,49,-1
 679 622 l 1,50,-1
 701 565 l 1,51,-1
 696 555 l 1,0,-1
320 252 m 1,52,53
 349 289 349 289 373.5 339 c 128,-1,54
 398 389 398 389 416 445.5 c 128,-1,55
 434 502 434 502 443 555 c 1,56,-1
 205 555 l 1,57,58
 210 515 210 515 220.5 472.5 c 128,-1,59
 231 430 231 430 246.5 389.5 c 128,-1,60
 262 349 262 349 280.5 313.5 c 128,-1,61
 299 278 299 278 320 252 c 1,52,53
EndSplineSet
EndChar

StartChar: lanuktaguru
Encoding: 2611 2611 46
Width: 747
GlyphClass: 2
Flags: W
AnchorPoint: "Anchor-1" 528 0 basechar 0
AnchorPoint: "Anchor-0" 467 622 basechar 0
LayerCount: 2
Fore
SplineSet
777 555 m 1,0,-1
 516 555 l 1,1,2
 509 516 509 516 498.5 473.5 c 128,-1,3
 488 431 488 431 471 389 c 1,4,5
 513 361 513 361 547.5 325 c 128,-1,6
 582 289 582 289 603 245 c 128,-1,7
 624 201 624 201 624 149 c 0,8,9
 624 102 624 102 602.5 63 c 128,-1,10
 581 24 581 24 533.5 1 c 128,-1,11
 486 -22 486 -22 409 -21 c 1,12,-1
 399 -9 l 1,13,-1
 399 61 l 1,14,15
 481 60 481 60 519 90 c 128,-1,16
 557 120 557 120 557 169 c 0,17,18
 557 219 557 219 526 262.5 c 128,-1,19
 495 306 495 306 448 337 c 1,20,21
 425 288 425 288 395.5 241.5 c 128,-1,22
 366 195 366 195 329 155 c 1,23,24
 297 190 297 190 270 232.5 c 128,-1,25
 243 275 243 275 221 321 c 1,26,27
 173 293 173 293 140.5 253.5 c 128,-1,28
 108 214 108 214 108 164 c 0,29,30
 108 131 108 131 127 107.5 c 128,-1,31
 146 84 146 84 180 72.5 c 128,-1,32
 214 61 214 61 260 61 c 1,33,-1
 269 48 l 1,34,-1
 269 -21 l 1,35,36
 209 -24 209 -24 166 -7 c 128,-1,37
 123 10 123 10 95 39.5 c 128,-1,38
 67 69 67 69 54 105 c 128,-1,39
 41 141 41 141 41 178 c 0,40,41
 41 246 41 246 80.5 300 c 128,-1,42
 120 354 120 354 186 393 c 1,43,44
 171 435 171 435 160.5 476.5 c 128,-1,45
 150 518 150 518 145 555 c 1,46,-1
 -13 555 l 1,47,-1
 -35 613 l 1,48,-1
 -30 622 l 1,49,-1
 760 622 l 1,50,-1
 782 565 l 1,51,-1
 777 555 l 1,0,-1
320 252 m 1,52,53
 349 289 349 289 373.5 339 c 128,-1,54
 398 389 398 389 416 445.5 c 128,-1,55
 434 502 434 502 443 555 c 1,56,-1
 205 555 l 1,57,58
 210 515 210 515 220.5 472.5 c 128,-1,59
 231 430 231 430 246.5 389.5 c 128,-1,60
 262 349 262 349 280.5 313.5 c 128,-1,61
 299 278 299 278 320 252 c 1,52,53
623 36 m 0,62,63
 623 59 623 59 638.5 74 c 128,-1,64
 654 89 654 89 677 89 c 0,65,66
 701 89 701 89 716.5 73 c 128,-1,67
 732 57 732 57 732 34 c 0,68,69
 732 12 732 12 717 -4 c 128,-1,70
 702 -20 702 -20 678 -20 c 256,71,72
 654 -20 654 -20 638.5 -4 c 128,-1,73
 623 12 623 12 623 36 c 0,62,63
EndSplineSet
Ligature2: "'nukt' Nukta Forms lookup 1 subtable" laguru nuktaguru
EndChar

StartChar: vaguru
Encoding: 2613 2613 47
Width: 615
GlyphClass: 2
Flags: W
AnchorPoint: "Anchor-1" 526 -17 basechar 0
AnchorPoint: "Anchor-0" 483 622 basechar 0
LayerCount: 2
Fore
SplineSet
227 389 m 2,0,1
 169 389 169 389 139.5 371.5 c 128,-1,2
 110 354 110 354 110 320 c 0,3,4
 110 279 110 279 149 262.5 c 128,-1,5
 188 246 188 246 256 246 c 2,6,-1
 519 246 l 1,7,-1
 538 182 l 1,8,-1
 534 173 l 1,9,-1
 261 173 l 1,10,11
 251 149 251 149 251 125 c 0,12,13
 251 82 251 82 281.5 61.5 c 128,-1,14
 312 41 312 41 371 41 c 2,15,-1
 525 41 l 1,16,-1
 548 -26 l 1,17,-1
 543 -35 l 1,18,-1
 401 -35 l 2,19,20
 328 -35 328 -35 281.5 -12.5 c 128,-1,21
 235 10 235 10 213 47.5 c 128,-1,22
 191 85 191 85 191 129 c 0,23,24
 191 143 191 143 193.5 156 c 128,-1,25
 196 169 196 169 199 179 c 1,26,27
 152 188 152 188 115.5 210.5 c 128,-1,28
 79 233 79 233 58.5 265.5 c 128,-1,29
 38 298 38 298 38 337 c 0,30,31
 38 373 38 373 56 400.5 c 128,-1,32
 74 428 74 428 112 444 c 128,-1,33
 150 460 150 460 209 460 c 2,34,-1
 454 460 l 1,35,-1
 454 555 l 1,36,-1
 -13 555 l 1,37,-1
 -35 613 l 1,38,-1
 -30 622 l 1,39,-1
 628 622 l 1,40,-1
 650 565 l 1,41,-1
 646 555 l 1,42,-1
 532 555 l 1,43,-1
 532 413 l 1,44,-1
 511 389 l 1,45,-1
 227 389 l 2,0,1
EndSplineSet
EndChar

StartChar: sanuktaguru
Encoding: 2614 2614 48
Width: 619
GlyphClass: 2
Flags: W
AnchorPoint: "Anchor-1" 531 -21 basechar 0
AnchorPoint: "Anchor-0" 487 622 basechar 0
LayerCount: 2
Fore
SplineSet
249 -4 m 0,0,1
 249 19 249 19 264 33.5 c 128,-1,2
 279 48 279 48 303 48 c 256,3,4
 327 48 327 48 342 33 c 128,-1,5
 357 18 357 18 357 -7 c 0,6,7
 357 -29 357 -29 342.5 -44 c 128,-1,8
 328 -59 328 -59 304 -59 c 256,9,10
 280 -59 280 -59 264.5 -43.5 c 128,-1,11
 249 -28 249 -28 249 -4 c 0,0,1
654 565 m 1,12,-1
 649 555 l 1,13,-1
 531 555 l 1,14,-1
 531 -24 l 1,15,-1
 521 -29 l 1,16,-1
 449 8 l 1,17,-1
 449 245 l 1,18,-1
 223 245 l 1,19,20
 220 213 220 213 212 181 c 128,-1,21
 204 149 204 149 191 123 c 128,-1,22
 178 97 178 97 160.5 81 c 128,-1,23
 143 65 143 65 122 65 c 0,24,25
 99 65 99 65 82.5 80.5 c 128,-1,26
 66 96 66 96 66 127 c 0,27,28
 66 148 66 148 75 175.5 c 128,-1,29
 84 203 84 203 101 233 c 128,-1,30
 118 263 118 263 142 290 c 1,31,32
 144 320 144 320 141 356 c 128,-1,33
 138 392 138 392 132.5 428 c 128,-1,34
 127 464 127 464 118.5 497 c 128,-1,35
 110 530 110 530 99 555 c 1,36,-1
 -13 555 l 1,37,-1
 -35 613 l 1,38,-1
 -30 622 l 1,39,-1
 632 622 l 1,40,-1
 654 565 l 1,12,-1
449 307 m 1,41,-1
 449 555 l 1,42,-1
 169 555 l 1,43,44
 184 518 184 518 195 473.5 c 128,-1,45
 206 429 206 429 213 385.5 c 128,-1,46
 220 342 220 342 221 307 c 1,47,-1
 449 307 l 1,41,-1
EndSplineSet
Ligature2: "'nukt' Nukta Forms lookup 1 subtable" saguru nuktaguru
EndChar

StartChar: saguru
Encoding: 2616 2616 49
Width: 615
GlyphClass: 2
Flags: W
AnchorPoint: "Anchor-1" 527 0 basechar 0
AnchorPoint: "Anchor-0" 478 622 basechar 0
LayerCount: 2
Fore
SplineSet
650 565 m 1,0,-1
 646 555 l 1,1,-1
 527 555 l 1,2,-1
 527 -24 l 1,3,-1
 517 -29 l 1,4,-1
 445 8 l 1,5,-1
 445 245 l 1,6,-1
 223 245 l 1,7,8
 220 213 220 213 212 181 c 128,-1,9
 204 149 204 149 191 123 c 128,-1,10
 178 97 178 97 160.5 81 c 128,-1,11
 143 65 143 65 122 65 c 0,12,13
 99 65 99 65 82.5 80.5 c 128,-1,14
 66 96 66 96 66 127 c 0,15,16
 66 148 66 148 75 175.5 c 128,-1,17
 84 203 84 203 101 233 c 128,-1,18
 118 263 118 263 142 290 c 1,19,20
 144 320 144 320 141 356 c 128,-1,21
 138 392 138 392 132.5 428 c 128,-1,22
 127 464 127 464 118.5 497 c 128,-1,23
 110 530 110 530 99 555 c 1,24,-1
 -13 555 l 1,25,-1
 -35 613 l 1,26,-1
 -30 622 l 1,27,-1
 628 622 l 1,28,-1
 650 565 l 1,0,-1
445 307 m 1,29,-1
 445 555 l 1,30,-1
 169 555 l 1,31,32
 184 518 184 518 195 473.5 c 128,-1,33
 206 429 206 429 213 385.5 c 128,-1,34
 220 342 220 342 221 307 c 1,35,-1
 445 307 l 1,29,-1
EndSplineSet
EndChar

StartChar: haguru
Encoding: 2617 2617 50
Width: 531
GlyphClass: 2
Flags: W
AnchorPoint: "Anchor-1" 433 0 basechar 0
AnchorPoint: "Anchor-0" 394 622 basechar 0
LayerCount: 2
Fore
SplineSet
566 565 m 1,0,-1
 561 555 l 1,1,-1
 443 555 l 1,2,-1
 443 183 l 2,3,4
 443 113 443 113 428 68 c 128,-1,5
 413 23 413 23 383 1.5 c 128,-1,6
 353 -20 353 -20 307 -20 c 0,7,8
 255 -20 255 -20 205.5 5.5 c 128,-1,9
 156 31 156 31 116 72.5 c 128,-1,10
 76 114 76 114 52.5 162 c 128,-1,11
 29 210 29 210 29 255 c 0,12,13
 29 290 29 290 44.5 322 c 128,-1,14
 60 354 60 354 96.5 374 c 128,-1,15
 133 394 133 394 195 394 c 2,16,-1
 259 394 l 1,17,-1
 281 337 l 1,18,-1
 276 327 l 1,19,-1
 227 327 l 2,20,21
 166 327 166 327 138.5 302.5 c 128,-1,22
 111 278 111 278 111 235 c 0,23,24
 111 202 111 202 126 168 c 128,-1,25
 141 134 141 134 166 105 c 128,-1,26
 191 76 191 76 221.5 58.5 c 128,-1,27
 252 41 252 41 283 41 c 0,28,29
 327 41 327 41 344 78 c 128,-1,30
 361 115 361 115 361 184 c 2,31,-1
 361 555 l 1,32,-1
 -13 555 l 1,33,-1
 -35 613 l 1,34,-1
 -30 622 l 1,35,-1
 544 622 l 1,36,-1
 566 565 l 1,0,-1
EndSplineSet
EndChar

StartChar: nuktaguru
Encoding: 2620 2620 51
Width: 0
Flags: W
LayerCount: 2
Fore
SplineSet
-54 -56 m 0,0,1
 -54 -33 -54 -33 -38.5 -18 c 128,-1,2
 -23 -3 -23 -3 0 -3 c 0,3,4
 24 -3 24 -3 39.5 -19 c 128,-1,5
 55 -35 55 -35 55 -58 c 0,6,7
 55 -80 55 -80 40 -96 c 128,-1,8
 25 -112 25 -112 1 -112 c 256,9,10
 -23 -112 -23 -112 -38.5 -96 c 128,-1,11
 -54 -80 -54 -80 -54 -56 c 0,0,1
EndSplineSet
EndChar

StartChar: uni0A3E
Encoding: 2622 2622 52
Width: 246
GlyphClass: 2
Flags: W
AnchorPoint: "Anchor-0" 113 622 basechar 0
LayerCount: 2
Fore
SplineSet
281 565 m 1,0,-1
 276 555 l 1,1,-1
 158 555 l 1,2,-1
 158 176 l 1,3,-1
 148 171 l 1,4,-1
 76 208 l 1,5,-1
 76 555 l 1,6,-1
 -13 555 l 1,7,-1
 -35 613 l 1,8,-1
 -30 622 l 1,9,-1
 259 622 l 1,10,-1
 281 565 l 1,0,-1
EndSplineSet
EndChar

StartChar: uni0A3F
Encoding: 2623 2623 53
Width: 258
GlyphClass: 2
Flags: W
AnchorPoint: "Anchor-0" 645 622 basechar 0
LayerCount: 2
Fore
SplineSet
258 914 m 0,0,1
 322 914 322 914 370 881 c 128,-1,2
 418 848 418 848 449.5 791 c 128,-1,3
 481 734 481 734 493 661 c 1,4,-1
 488 655 l 1,5,-1
 460 655 l 1,6,7
 441 708 441 708 416 749 c 128,-1,8
 391 790 391 790 357 813.5 c 128,-1,9
 323 837 323 837 276 837 c 0,10,11
 240 837 240 837 210 822.5 c 128,-1,12
 180 808 180 808 162 780 c 128,-1,13
 144 752 144 752 144 711 c 0,14,15
 144 688 144 688 150 666.5 c 128,-1,16
 156 645 156 645 166 622 c 1,17,-1
 281 622 l 1,18,-1
 303 565 l 1,19,-1
 298 555 l 1,20,-1
 176 555 l 1,21,-1
 176 -24 l 1,22,-1
 166 -29 l 1,23,-1
 94 8 l 1,24,-1
 94 555 l 1,25,-1
 -13 555 l 1,26,-1
 -35 613 l 1,27,-1
 -30 622 l 1,28,-1
 99 622 l 1,29,30
 85 654 85 654 78.5 680 c 128,-1,31
 72 706 72 706 72 731 c 0,32,33
 72 787 72 787 97 828 c 128,-1,34
 122 869 122 869 164 891.5 c 128,-1,35
 206 914 206 914 258 914 c 0,0,1
EndSplineSet
EndChar

StartChar: uni0A40
Encoding: 2624 2624 54
Width: 275
Flags: W
LayerCount: 2
Fore
SplineSet
310 565 m 1,0,-1
 305 555 l 1,1,-1
 183 555 l 1,2,-1
 183 -24 l 1,3,-1
 173 -29 l 1,4,-1
 101 8 l 1,5,-1
 101 555 l 1,6,-1
 -14 555 l 1,7,-1
 -36 613 l 1,8,-1
 -31 622 l 1,9,-1
 101 622 l 1,10,11
 100 671 100 671 92 710 c 128,-1,12
 84 749 84 749 70 777 c 0,13,14
 54 809 54 809 27 826.5 c 128,-1,15
 0 844 0 844 -32 844 c 0,16,17
 -79 844 -79 844 -107 814.5 c 128,-1,18
 -135 785 -135 785 -135 739 c 0,19,20
 -135 721 -135 721 -129 701 c 128,-1,21
 -123 681 -123 681 -115 663 c 1,22,-1
 -120 655 l 1,23,-1
 -144 655 l 1,24,25
 -169 675 -169 675 -186 707 c 128,-1,26
 -203 739 -203 739 -203 776 c 0,27,28
 -203 816 -203 816 -183 848 c 128,-1,29
 -163 880 -163 880 -127.5 899 c 128,-1,30
 -92 918 -92 918 -47 918 c 0,31,32
 1 918 1 918 43.5 894.5 c 128,-1,33
 86 871 86 871 116 826 c 0,34,35
 143 786 143 786 158.5 735 c 128,-1,36
 174 684 174 684 178 622 c 1,37,-1
 288 622 l 1,38,-1
 310 565 l 1,0,-1
EndSplineSet
EndChar

StartChar: umatraguru
Encoding: 2625 2625 55
Width: 0
Flags: W
LayerCount: 2
Fore
SplineSet
-433 -70 m 1,0,1
 -382 -110 -382 -110 -323 -122.5 c 128,-1,2
 -264 -135 -264 -135 -205.5 -121 c 128,-1,3
 -147 -107 -147 -107 -99 -70 c 1,4,-1
 -70 -130 l 1,5,6
 -110 -164 -110 -164 -160 -180.5 c 128,-1,7
 -210 -197 -210 -197 -263 -194 c 128,-1,8
 -316 -191 -316 -191 -365.5 -169.5 c 128,-1,9
 -415 -148 -415 -148 -455 -106 c 1,10,-1
 -433 -70 l 1,0,1
EndSplineSet
EndChar

StartChar: uumatraguru
Encoding: 2626 2626 56
Width: 0
Flags: W
LayerCount: 2
Fore
SplineSet
-419 -66 m 1,0,1
 -370 -100 -370 -100 -316.5 -109 c 128,-1,2
 -263 -118 -263 -118 -211 -106 c 128,-1,3
 -159 -94 -159 -94 -114 -65 c 1,4,-1
 -87 -119 l 1,5,6
 -126 -147 -126 -147 -171.5 -161 c 128,-1,7
 -217 -175 -217 -175 -265 -174 c 128,-1,8
 -313 -173 -313 -173 -357.5 -155.5 c 128,-1,9
 -402 -138 -402 -138 -439 -102 c 1,10,-1
 -419 -66 l 1,0,1
-439 -170 m 1,11,12
 -401 -201 -401 -201 -354.5 -217 c 128,-1,13
 -308 -233 -308 -233 -260 -233.5 c 128,-1,14
 -212 -234 -212 -234 -166.5 -219.5 c 128,-1,15
 -121 -205 -121 -205 -85 -177 c 1,16,-1
 -58 -228 l 1,17,18
 -100 -262 -100 -262 -152.5 -278.5 c 128,-1,19
 -205 -295 -205 -295 -260.5 -292.5 c 128,-1,20
 -316 -290 -316 -290 -368 -268.5 c 128,-1,21
 -420 -247 -420 -247 -461 -206 c 1,22,-1
 -439 -170 l 1,11,12
EndSplineSet
EndChar

StartChar: eematraguru
Encoding: 2631 2631 57
Width: 0
Flags: W
LayerCount: 2
Fore
SplineSet
-443 833 m 1,0,-1
 -443 902 l 1,1,-1
 -368 902 l 2,2,3
 -323 902 -323 902 -289 890.5 c 128,-1,4
 -255 879 -255 879 -226 850 c 0,5,6
 -208 833 -208 833 -192 808.5 c 128,-1,7
 -176 784 -176 784 -160.5 754.5 c 128,-1,8
 -145 725 -145 725 -129 689 c 0,9,10
 -121 673 -121 673 -113.5 655.5 c 128,-1,11
 -106 638 -106 638 -98 620 c 128,-1,12
 -90 602 -90 602 -82 583 c 1,13,-1
 -132 583 l 1,14,15
 -159 646 -159 646 -179.5 687.5 c 128,-1,16
 -200 729 -200 729 -218 754.5 c 128,-1,17
 -236 780 -236 780 -257 796 c 0,18,19
 -276 811 -276 811 -300.5 817 c 128,-1,20
 -325 823 -325 823 -360 823 c 2,21,-1
 -433 823 l 1,22,-1
 -443 833 l 1,0,-1
EndSplineSet
EndChar

StartChar: aimatraguru
Encoding: 2632 2632 58
Width: 0
Flags: W
LayerCount: 2
Fore
SplineSet
-220 900 m 0,0,1
 -179 863 -179 863 -147.5 786 c 128,-1,2
 -116 709 -116 709 -83 587 c 1,3,-1
 -138 587 l 1,4,5
 -162 631 -162 631 -184.5 659 c 128,-1,6
 -207 687 -207 687 -234 703 c 0,7,8
 -256 716 -256 716 -282 720.5 c 128,-1,9
 -308 725 -308 725 -341 725 c 2,10,-1
 -435 725 l 1,11,-1
 -445 735 l 1,12,-1
 -445 794 l 1,13,-1
 -350 794 l 2,14,15
 -313 794 -313 794 -283.5 785.5 c 128,-1,16
 -254 777 -254 777 -228 758 c 0,17,18
 -201 739 -201 739 -178 709 c 128,-1,19
 -155 679 -155 679 -130 634 c 1,20,21
 -157 720 -157 720 -180 768 c 128,-1,22
 -203 816 -203 816 -239 841 c 0,23,24
 -261 857 -261 857 -289 865 c 128,-1,25
 -317 873 -317 873 -355 873 c 2,26,-1
 -436 873 l 1,27,-1
 -446 883 l 1,28,-1
 -446 947 l 1,29,-1
 -364 947 l 2,30,31
 -318 947 -318 947 -284 937.5 c 128,-1,32
 -250 928 -250 928 -220 900 c 0,0,1
EndSplineSet
EndChar

StartChar: oomatraguru
Encoding: 2635 2635 59
Width: 0
Flags: W
LayerCount: 2
Fore
SplineSet
-471 910 m 1,0,1
 -463 869 -463 869 -440 844 c 128,-1,2
 -417 819 -417 819 -372 819 c 0,3,4
 -348 819 -348 819 -320 823.5 c 128,-1,5
 -292 828 -292 828 -265 828 c 0,6,7
 -215 828 -215 828 -184 801 c 128,-1,8
 -153 774 -153 774 -133 725 c 128,-1,9
 -113 676 -113 676 -97 609 c 1,10,-1
 -143 609 l 1,11,12
 -154 654 -154 654 -168 686 c 128,-1,13
 -182 718 -182 718 -204 734.5 c 128,-1,14
 -226 751 -226 751 -264 751 c 0,15,16
 -290 751 -290 751 -313 747 c 128,-1,17
 -336 743 -336 743 -362 743 c 0,18,19
 -403 743 -403 743 -431 758 c 128,-1,20
 -459 773 -459 773 -473.5 798.5 c 128,-1,21
 -488 824 -488 824 -488 856 c 0,22,23
 -488 870 -488 870 -485 883.5 c 128,-1,24
 -482 897 -482 897 -476 910 c 1,25,-1
 -471 910 l 1,0,1
EndSplineSet
EndChar

StartChar: aumatraguru
Encoding: 2636 2636 60
Width: 0
GlyphClass: 2
Flags: W
AnchorPoint: "Anchor-0" 39 721 basechar 0
LayerCount: 2
Fore
SplineSet
-131 876 m 0,0,1
 -69 876 -69 876 -36 839.5 c 128,-1,2
 -3 803 -3 803 -3 755 c 0,3,4
 -3 728 -3 728 -12.5 704 c 128,-1,5
 -22 680 -22 680 -36 661 c 1,6,-1
 -85 661 l 1,7,8
 -76 675 -76 675 -67 695.5 c 128,-1,9
 -58 716 -58 716 -58 738 c 0,10,11
 -58 767 -58 767 -76 787.5 c 128,-1,12
 -94 808 -94 808 -132 808 c 0,13,14
 -166 808 -166 808 -185 789 c 128,-1,15
 -204 770 -204 770 -204 739 c 0,16,17
 -204 719 -204 719 -197 699 c 128,-1,18
 -190 679 -190 679 -177 661 c 1,19,-1
 -224 661 l 1,20,21
 -240 677 -240 677 -249 699 c 128,-1,22
 -258 721 -258 721 -258 742 c 0,23,24
 -258 755 -258 755 -254.5 766.5 c 128,-1,25
 -251 778 -251 778 -244 785 c 1,26,27
 -267 775 -267 775 -290 769 c 128,-1,28
 -313 763 -313 763 -339 763 c 0,29,30
 -371 763 -371 763 -396 777 c 128,-1,31
 -421 791 -421 791 -435.5 815.5 c 128,-1,32
 -450 840 -450 840 -450 870 c 0,33,34
 -450 884 -450 884 -446.5 898 c 128,-1,35
 -443 912 -443 912 -438 923 c 1,36,-1
 -433 923 l 1,37,38
 -425 877 -425 877 -400 855 c 128,-1,39
 -375 833 -375 833 -341 833 c 0,40,41
 -308 833 -308 833 -273 844 c 128,-1,42
 -238 855 -238 855 -202 865.5 c 128,-1,43
 -166 876 -166 876 -131 876 c 0,0,1
EndSplineSet
EndChar

StartChar: halantguru
Encoding: 2637 2637 61
Width: 0
Flags: W
LayerCount: 2
Fore
SplineSet
-206 -132 m 1,0,-1
 -224 -57 l 1,1,2
 -209 -55 -209 -55 -193.5 -54 c 128,-1,3
 -178 -53 -178 -53 -162 -53 c 0,4,5
 -122 -53 -122 -53 -93.5 -61.5 c 128,-1,6
 -65 -70 -65 -70 -41 -91.5 c 128,-1,7
 -17 -113 -17 -113 9.5 -151.5 c 128,-1,8
 36 -190 36 -190 73 -250 c 1,9,-1
 41 -270 l 1,10,11
 13 -225 13 -225 -9.5 -197.5 c 128,-1,12
 -32 -170 -32 -170 -52.5 -155 c 128,-1,13
 -73 -140 -73 -140 -96.5 -134.5 c 128,-1,14
 -120 -129 -120 -129 -151 -129 c 0,15,16
 -165 -129 -165 -129 -178.5 -129.5 c 128,-1,17
 -192 -130 -192 -130 -206 -132 c 1,0,-1
EndSplineSet
EndChar

StartChar: udaatguru
Encoding: 2641 2641 62
Width: 0
Flags: W
LayerCount: 2
Fore
SplineSet
50 -191 m 1,0,-1
 67 -266 l 1,1,2
 53 -267 53 -267 37 -268.5 c 128,-1,3
 21 -270 21 -270 6 -270 c 0,4,5
 -35 -270 -35 -270 -65 -259.5 c 128,-1,6
 -95 -249 -95 -249 -120 -226 c 128,-1,7
 -145 -203 -145 -203 -171 -165.5 c 128,-1,8
 -197 -128 -197 -128 -230 -73 c 1,9,-1
 -197 -53 l 1,10,11
 -162 -105 -162 -105 -135.5 -136 c 128,-1,12
 -109 -167 -109 -167 -79.5 -180.5 c 128,-1,13
 -50 -194 -50 -194 -6 -194 c 0,14,15
 8 -194 8 -194 21.5 -193 c 128,-1,16
 35 -192 35 -192 50 -191 c 1,0,-1
EndSplineSet
EndChar

StartChar: ganuktaguru
Encoding: 2650 2650 64
Width: 773
GlyphClass: 2
Flags: W
AnchorPoint: "Anchor-1" 685 0 basechar 0
AnchorPoint: "Anchor-0" 637 622 basechar 0
LayerCount: 2
Fore
SplineSet
-13 555 m 1,0,-1
 -35 613 l 1,1,-1
 -30 622 l 1,2,-1
 466 622 l 1,3,-1
 488 565 l 1,4,-1
 483 555 l 1,5,-1
 -13 555 l 1,0,-1
808 565 m 1,6,-1
 804 555 l 1,7,-1
 685 555 l 1,8,-1
 685 -24 l 1,9,-1
 675 -29 l 1,10,-1
 603 8 l 1,11,-1
 603 555 l 1,12,-1
 443 555 l 1,13,-1
 443 179 l 2,14,15
 443 112 443 112 428.5 68 c 128,-1,16
 414 24 414 24 384.5 3 c 128,-1,17
 355 -18 355 -18 311 -18 c 0,18,19
 265 -18 265 -18 219 7.5 c 128,-1,20
 173 33 173 33 136 74.5 c 128,-1,21
 99 116 99 116 76.5 164 c 128,-1,22
 54 212 54 212 54 257 c 0,23,24
 54 292 54 292 69.5 324 c 128,-1,25
 85 356 85 356 121.5 376 c 128,-1,26
 158 396 158 396 220 396 c 2,27,-1
 363 396 l 1,28,-1
 363 555 l 1,29,-1
 15 555 l 1,30,-1
 -7 613 l 1,31,-1
 -2 622 l 1,32,-1
 786 622 l 1,33,-1
 808 565 l 1,6,-1
292 41 m 0,34,35
 333 41 333 41 348 76 c 128,-1,36
 363 111 363 111 363 179 c 2,37,-1
 363 329 l 1,38,-1
 250 329 l 2,39,40
 189 329 189 329 161.5 304.5 c 128,-1,41
 134 280 134 280 134 237 c 0,42,43
 134 203 134 203 148.5 168.5 c 128,-1,44
 163 134 163 134 186.5 105 c 128,-1,45
 210 76 210 76 238 58.5 c 128,-1,46
 266 41 266 41 292 41 c 0,34,35
31 -18 m 0,47,48
 31 5 31 5 46.5 20 c 128,-1,49
 62 35 62 35 85 35 c 0,50,51
 109 35 109 35 124.5 19 c 128,-1,52
 140 3 140 3 140 -20 c 0,53,54
 140 -42 140 -42 125 -58 c 128,-1,55
 110 -74 110 -74 86 -74 c 256,56,57
 62 -74 62 -74 46.5 -58 c 128,-1,58
 31 -42 31 -42 31 -18 c 0,47,48
EndSplineSet
Ligature2: "'nukt' Nukta Forms lookup 1 subtable" gaguru nuktaguru
EndChar

StartChar: januktaguru
Encoding: 2651 2651 65
Width: 616
GlyphClass: 2
Flags: W
AnchorPoint: "Anchor-1" 528 -31 basechar 0
AnchorPoint: "Anchor-0" 479 622 basechar 0
LayerCount: 2
Fore
SplineSet
651 565 m 1,0,-1
 647 555 l 1,1,-1
 528 555 l 1,2,-1
 528 -24 l 1,3,-1
 518 -29 l 1,4,-1
 446 8 l 1,5,-1
 446 285 l 1,6,-1
 203 285 l 1,7,-1
 203 171 l 2,8,9
 203 95 203 95 180.5 48.5 c 128,-1,10
 158 2 158 2 114 -30 c 1,11,-1
 57 16 l 1,12,-1
 57 25 l 1,13,14
 96 54 96 54 111.5 93 c 128,-1,15
 127 132 127 132 127 183 c 2,16,-1
 127 278 l 1,17,-1
 109 278 l 2,18,19
 86 278 86 278 73 288 c 128,-1,20
 60 298 60 298 60 314 c 256,21,22
 60 330 60 330 71 348.5 c 128,-1,23
 82 367 82 367 99.5 383.5 c 128,-1,24
 117 400 117 400 136.5 410.5 c 128,-1,25
 156 421 156 421 172 421 c 0,26,27
 189 421 189 421 197.5 408 c 128,-1,28
 206 395 206 395 206 372 c 2,29,-1
 206 347 l 1,30,-1
 446 347 l 1,31,-1
 446 555 l 1,32,-1
 -13 555 l 1,33,-1
 -35 613 l 1,34,-1
 -30 622 l 1,35,-1
 629 622 l 1,36,-1
 651 565 l 1,0,-1
259 -16 m 0,37,38
 259 7 259 7 274 21.5 c 128,-1,39
 289 36 289 36 313 36 c 256,40,41
 337 36 337 36 352 21 c 128,-1,42
 367 6 367 6 367 -18 c 0,43,44
 367 -40 367 -40 352.5 -55.5 c 128,-1,45
 338 -71 338 -71 314 -71 c 256,46,47
 290 -71 290 -71 274.5 -55.5 c 128,-1,48
 259 -40 259 -40 259 -16 c 0,37,38
EndSplineSet
Ligature2: "'nukt' Nukta Forms lookup 1 subtable" jaguru nuktaguru
EndChar

StartChar: rraguru
Encoding: 2652 2652 66
Width: 612
GlyphClass: 2
Flags: W
AnchorPoint: "Anchor-1" 512 -11 basechar 0
AnchorPoint: "Anchor-0" 448 622 basechar 0
LayerCount: 2
Fore
SplineSet
499 555 m 1,0,1
 502 545 502 545 503.5 534 c 128,-1,2
 505 523 505 523 505 511 c 0,3,4
 505 468 505 468 483 430.5 c 128,-1,5
 461 393 461 393 422 370 c 1,6,7
 469 348 469 348 497 310.5 c 128,-1,8
 525 273 525 273 525 226 c 0,9,10
 525 181 525 181 502 147 c 128,-1,11
 479 113 479 113 440 94 c 1,12,-1
 541 -27 l 1,13,-1
 536 -34 l 1,14,-1
 464 -34 l 1,15,-1
 382 74 l 1,16,17
 370 71 370 71 355.5 69.5 c 128,-1,18
 341 68 341 68 324 68 c 0,19,20
 286 68 286 68 238 78.5 c 128,-1,21
 190 89 190 89 146 111 c 1,22,-1
 254 -26 l 1,23,-1
 248 -34 l 1,24,-1
 174 -34 l 1,25,-1
 42 184 l 1,26,-1
 63 205 l 1,27,28
 94 183 94 183 134.5 167.5 c 128,-1,29
 175 152 175 152 216.5 144 c 128,-1,30
 258 136 258 136 292 136 c 0,31,32
 338 136 338 136 373.5 148 c 128,-1,33
 409 160 409 160 430 183.5 c 128,-1,34
 451 207 451 207 451 240 c 0,35,36
 451 266 451 266 433 293 c 128,-1,37
 415 320 415 320 373 336 c 1,38,39
 338 323 338 323 299 317 c 128,-1,40
 260 311 260 311 225 311 c 0,41,42
 194 311 194 311 167.5 317 c 128,-1,43
 141 323 141 323 125.5 335.5 c 128,-1,44
 110 348 110 348 110 367 c 0,45,46
 110 395 110 395 142.5 407.5 c 128,-1,47
 175 420 175 420 221 420 c 0,48,49
 262 420 262 420 301.5 413 c 128,-1,50
 341 406 341 406 370 393 c 1,51,52
 395 407 395 407 412 436.5 c 128,-1,53
 429 466 429 466 429 502 c 0,54,55
 429 528 429 528 420 555 c 1,56,-1
 -13 555 l 1,57,-1
 -35 613 l 1,58,-1
 -30 622 l 1,59,-1
 625 622 l 1,60,-1
 647 565 l 1,61,-1
 643 555 l 1,62,-1
 499 555 l 1,0,1
EndSplineSet
Ligature2: "'nukt' Nukta Forms lookup 1 subtable" ddaguru nuktaguru
EndChar

StartChar: phanuktaguru
Encoding: 2654 2654 67
Width: 613
GlyphClass: 2
Flags: W
AnchorPoint: "Anchor-1" 487 -8 basechar 0
AnchorPoint: "Anchor-0" 454 622 basechar 0
LayerCount: 2
Fore
SplineSet
-17 555 m 1,0,-1
 -39 613 l 1,1,-1
 -34 622 l 1,2,-1
 354 622 l 1,3,-1
 376 565 l 1,4,-1
 371 555 l 1,5,-1
 -17 555 l 1,0,-1
294 365 m 2,6,7
 240 365 240 365 205.5 349 c 128,-1,8
 171 333 171 333 154.5 305 c 128,-1,9
 138 277 138 277 138 240 c 0,10,11
 138 206 138 206 150 175 c 128,-1,12
 162 144 162 144 182 119 c 1,13,14
 227 175 227 175 284.5 209 c 128,-1,15
 342 243 342 243 401 243 c 0,16,17
 448 243 448 243 482 222.5 c 128,-1,18
 516 202 516 202 534.5 169.5 c 128,-1,19
 553 137 553 137 553 100 c 0,20,21
 553 44 553 44 509 5 c 128,-1,22
 465 -34 465 -34 385 -34 c 0,23,24
 319 -34 319 -34 261 -7.5 c 128,-1,25
 203 19 203 19 158 63 c 128,-1,26
 113 107 113 107 87.5 160.5 c 128,-1,27
 62 214 62 214 62 268 c 0,28,29
 62 315 62 315 83.5 353 c 128,-1,30
 105 391 105 391 152.5 414 c 128,-1,31
 200 437 200 437 276 437 c 2,32,-1
 429 437 l 1,33,-1
 429 555 l 1,34,-1
 7 555 l 1,35,-1
 -15 613 l 1,36,-1
 -10 622 l 1,37,-1
 626 622 l 1,38,-1
 648 565 l 1,39,-1
 644 555 l 1,40,-1
 507 555 l 1,41,-1
 507 387 l 1,42,-1
 489 365 l 1,43,-1
 294 365 l 2,6,7
417 180 m 0,44,45
 378 180 378 180 330.5 155.5 c 128,-1,46
 283 131 283 131 240 80 c 1,47,48
 267 58 267 58 301 45 c 128,-1,49
 335 32 335 32 369 32 c 0,50,51
 430 32 430 32 463 57.5 c 128,-1,52
 496 83 496 83 496 114 c 0,53,54
 496 139 496 139 477 159.5 c 128,-1,55
 458 180 458 180 417 180 c 0,44,45
45 -30 m 0,56,57
 45 -7 45 -7 60.5 8 c 128,-1,58
 76 23 76 23 99 23 c 0,59,60
 123 23 123 23 138.5 7 c 128,-1,61
 154 -9 154 -9 154 -32 c 0,62,63
 154 -54 154 -54 139 -70 c 128,-1,64
 124 -86 124 -86 100 -86 c 256,65,66
 76 -86 76 -86 60.5 -70 c 128,-1,67
 45 -54 45 -54 45 -30 c 0,56,57
EndSplineSet
Ligature2: "'nukt' Nukta Forms lookup 1 subtable" phaguru nuktaguru
EndChar

StartChar: zeroguru
Encoding: 2662 2662 68
Width: 491
Flags: W
LayerCount: 2
Fore
SplineSet
260 69 m 0,0,1
 209 69 209 69 167.5 88.5 c 128,-1,2
 126 108 126 108 95.5 142 c 128,-1,3
 65 176 65 176 48.5 220 c 128,-1,4
 32 264 32 264 32 312 c 0,5,6
 32 375 32 375 57 426 c 128,-1,7
 82 477 82 477 129 507.5 c 128,-1,8
 176 538 176 538 242 538 c 0,9,10
 293 538 293 538 333 517 c 128,-1,11
 373 496 373 496 401.5 460.5 c 128,-1,12
 430 425 430 425 444.5 381 c 128,-1,13
 459 337 459 337 459 291 c 0,14,15
 459 225 459 225 434.5 175 c 128,-1,16
 410 125 410 125 365 97 c 128,-1,17
 320 69 320 69 260 69 c 0,0,1
243 125 m 0,18,19
 286 125 286 125 315.5 152 c 128,-1,20
 345 179 345 179 360.5 221.5 c 128,-1,21
 376 264 376 264 376 310 c 0,22,23
 376 339 376 339 369.5 368.5 c 128,-1,24
 363 398 363 398 349 422.5 c 128,-1,25
 335 447 335 447 312 462 c 128,-1,26
 289 477 289 477 257 477 c 0,27,28
 211 477 211 477 179.5 449 c 128,-1,29
 148 421 148 421 132 378.5 c 128,-1,30
 116 336 116 336 116 292 c 0,31,32
 116 264 116 264 123 235 c 128,-1,33
 130 206 130 206 145.5 181 c 128,-1,34
 161 156 161 156 185 140.5 c 128,-1,35
 209 125 209 125 243 125 c 0,18,19
EndSplineSet
EndChar

StartChar: oneguru
Encoding: 2663 2663 69
Width: 459
Flags: W
LayerCount: 2
Fore
SplineSet
198 622 m 0,0,1
 254 622 254 622 290.5 596.5 c 128,-1,2
 327 571 327 571 348 530 c 128,-1,3
 369 489 369 489 378 440.5 c 128,-1,4
 387 392 387 392 387 345 c 2,5,-1
 387 -24 l 1,6,-1
 377 -29 l 1,7,-1
 305 8 l 1,8,-1
 305 255 l 1,9,10
 286 246 286 246 265.5 242 c 128,-1,11
 245 238 245 238 225 238 c 0,12,13
 186 238 186 238 149.5 253.5 c 128,-1,14
 113 269 113 269 84.5 296.5 c 128,-1,15
 56 324 56 324 39 360.5 c 128,-1,16
 22 397 22 397 22 440 c 0,17,18
 22 488 22 488 44 529.5 c 128,-1,19
 66 571 66 571 105.5 596.5 c 128,-1,20
 145 622 145 622 198 622 c 0,0,1
201 311 m 0,21,22
 228 311 228 311 256.5 317.5 c 128,-1,23
 285 324 285 324 310 335 c 1,24,25
 312 381 312 381 310 419.5 c 128,-1,26
 308 458 308 458 298 487 c 128,-1,27
 288 516 288 516 267.5 532 c 128,-1,28
 247 548 247 548 212 548 c 0,29,30
 184 548 184 548 156 529 c 128,-1,31
 128 510 128 510 110 480 c 128,-1,32
 92 450 92 450 92 415 c 0,33,34
 92 363 92 363 123.5 337 c 128,-1,35
 155 311 155 311 201 311 c 0,21,22
EndSplineSet
EndChar

StartChar: twoguru
Encoding: 2664 2664 70
Width: 503
Flags: W
LayerCount: 2
Fore
SplineSet
309 214 m 1,0,1
 341 191 341 191 370 152 c 128,-1,2
 399 113 399 113 421 67 c 128,-1,3
 443 21 443 21 453 -24 c 1,4,-1
 444 -32 l 1,5,-1
 353 -8 l 1,6,7
 349 23 349 23 334 62 c 128,-1,8
 319 101 319 101 297.5 137.5 c 128,-1,9
 276 174 276 174 250 195 c 1,10,11
 232 190 232 190 210.5 187.5 c 128,-1,12
 189 185 189 185 169 185 c 0,13,14
 135 185 135 185 109.5 192.5 c 128,-1,15
 84 200 84 200 70 214.5 c 128,-1,16
 56 229 56 229 56 250 c 0,17,18
 56 277 56 277 80.5 291 c 128,-1,19
 105 305 105 305 139 305 c 0,20,21
 192 305 192 305 246 275 c 1,22,23
 283 286 283 286 312.5 306 c 128,-1,24
 342 326 342 326 359.5 354 c 128,-1,25
 377 382 377 382 377 417 c 0,26,27
 377 473 377 473 337.5 508 c 128,-1,28
 298 543 298 543 224 543 c 0,29,30
 201 543 201 543 173.5 538.5 c 128,-1,31
 146 534 146 534 119 526.5 c 128,-1,32
 92 519 92 519 68 509 c 1,33,-1
 44 584 l 1,34,35
 85 604 85 604 128.5 613 c 128,-1,36
 172 622 172 622 207 622 c 0,37,38
 277 622 277 622 330 592 c 128,-1,39
 383 562 383 562 413.5 512 c 128,-1,40
 444 462 444 462 444 401 c 0,41,42
 444 332 444 332 406 285 c 128,-1,43
 368 238 368 238 309 214 c 1,0,1
EndSplineSet
EndChar

StartChar: threeguru
Encoding: 2665 2665 71
Width: 517
Flags: W
LayerCount: 2
Fore
SplineSet
334 3 m 1,0,1
 363 -19 363 -19 393.5 -48.5 c 128,-1,2
 424 -78 424 -78 449 -107 c 1,3,-1
 411 -140 l 1,4,5
 390 -116 390 -116 364.5 -91.5 c 128,-1,6
 339 -67 339 -67 312.5 -45.5 c 128,-1,7
 286 -24 286 -24 262 -10 c 1,8,9
 251 -11 251 -11 238.5 -12 c 128,-1,10
 226 -13 226 -13 215 -13 c 0,11,12
 179 -13 179 -13 144 -4 c 128,-1,13
 109 5 109 5 86 22 c 128,-1,14
 63 39 63 39 63 62 c 0,15,16
 63 88 63 88 82.5 101 c 128,-1,17
 102 114 102 114 131 114 c 0,18,19
 162 114 162 114 202 100 c 128,-1,20
 242 86 242 86 273 64 c 1,21,22
 330 72 330 72 361.5 101 c 128,-1,23
 393 130 393 130 393 169 c 0,24,25
 393 203 393 203 370 231 c 128,-1,26
 347 259 347 259 310 272 c 1,27,28
 287 265 287 265 257.5 260.5 c 128,-1,29
 228 256 228 256 199 256 c 0,30,31
 167 256 167 256 141.5 262 c 128,-1,32
 116 268 116 268 101.5 280.5 c 128,-1,33
 87 293 87 293 87 313 c 0,34,35
 87 340 87 340 113.5 352.5 c 128,-1,36
 140 365 140 365 177 365 c 0,37,38
 203 365 203 365 233.5 359.5 c 128,-1,39
 264 354 264 354 291 343 c 1,40,41
 331 356 331 356 356 382.5 c 128,-1,42
 381 409 381 409 381 447 c 0,43,44
 381 492 381 492 344 518 c 128,-1,45
 307 544 307 544 243 544 c 0,46,47
 201 544 201 544 159 534.5 c 128,-1,48
 117 525 117 525 80 509 c 1,49,-1
 56 585 l 1,50,51
 96 604 96 604 140 613 c 128,-1,52
 184 622 184 622 224 622 c 0,53,54
 286 622 286 622 336 597.5 c 128,-1,55
 386 573 386 573 415.5 529.5 c 128,-1,56
 445 486 445 486 445 429 c 0,57,58
 445 387 445 387 423.5 352.5 c 128,-1,59
 402 318 402 318 364 296 c 1,60,61
 410 276 410 276 439 235 c 128,-1,62
 468 194 468 194 468 146 c 0,63,64
 468 99 468 99 434 59.5 c 128,-1,65
 400 20 400 20 334 3 c 1,0,1
EndSplineSet
EndChar

StartChar: fourguru
Encoding: 2666 2666 72
Width: 551
Flags: W
LayerCount: 2
Fore
SplineSet
347 302 m 1,0,1
 386 286 386 286 420 262 c 128,-1,2
 454 238 454 238 475 205.5 c 128,-1,3
 496 173 496 173 496 131 c 0,4,5
 496 87 496 87 471.5 51.5 c 128,-1,6
 447 16 447 16 403 -4 c 128,-1,7
 359 -24 359 -24 300 -24 c 0,8,9
 237 -24 237 -24 184.5 -1 c 128,-1,10
 132 22 132 22 100.5 61.5 c 128,-1,11
 69 101 69 101 69 150 c 0,12,13
 69 205 69 205 108.5 248.5 c 128,-1,14
 148 292 148 292 209 320 c 1,15,16
 160 341 160 341 124.5 366 c 128,-1,17
 89 391 89 391 70 422.5 c 128,-1,18
 51 454 51 454 51 492 c 0,19,20
 51 531 51 531 68.5 559.5 c 128,-1,21
 86 588 86 588 114 603.5 c 128,-1,22
 142 619 142 619 173 619 c 0,23,24
 195 619 195 619 211 606.5 c 128,-1,25
 227 594 227 594 231 569 c 1,26,27
 196 567 196 567 174.5 551.5 c 128,-1,28
 153 536 153 536 143.5 515 c 128,-1,29
 134 494 134 494 134 474 c 0,30,31
 134 434 134 434 168 401.5 c 128,-1,32
 202 369 202 369 263 346 c 1,33,34
 306 367 306 367 341 390 c 128,-1,35
 376 413 376 413 397 440.5 c 128,-1,36
 418 468 418 468 418 500 c 0,37,38
 418 531 418 531 397.5 556.5 c 128,-1,39
 377 582 377 582 344 598 c 1,40,-1
 350 613 l 1,41,42
 392 610 392 610 424.5 590 c 128,-1,43
 457 570 457 570 475.5 539.5 c 128,-1,44
 494 509 494 509 494 472 c 256,45,46
 494 435 494 435 475 404.5 c 128,-1,47
 456 374 456 374 422.5 349 c 128,-1,48
 389 324 389 324 347 302 c 1,0,1
278 36 m 0,49,50
 313 36 313 36 344.5 49 c 128,-1,51
 376 62 376 62 396 86.5 c 128,-1,52
 416 111 416 111 416 145 c 0,53,54
 416 187 416 187 382.5 219 c 128,-1,55
 349 251 349 251 289 274 c 1,56,57
 224 248 224 248 187 212.5 c 128,-1,58
 150 177 150 177 150 134 c 0,59,60
 150 103 150 103 168.5 81 c 128,-1,61
 187 59 187 59 216 47.5 c 128,-1,62
 245 36 245 36 278 36 c 0,49,50
EndSplineSet
EndChar

StartChar: fiveguru
Encoding: 2667 2667 73
Width: 548
Flags: W
LayerCount: 2
Fore
SplineSet
404 616 m 1,0,-1
 476 579 l 1,1,-1
 476 -24 l 1,2,-1
 467 -29 l 1,3,-1
 394 8 l 1,4,-1
 394 146 l 1,5,6
 372 126 372 126 341.5 116 c 128,-1,7
 311 106 311 106 279 106 c 0,8,9
 237 106 237 106 199 121.5 c 128,-1,10
 161 137 161 137 128 163.5 c 128,-1,11
 95 190 95 190 69.5 224 c 128,-1,12
 44 258 44 258 29 294 c 1,13,14
 65 329 65 329 89.5 374 c 128,-1,15
 114 419 114 419 114 467 c 0,16,17
 114 496 114 496 104 528 c 128,-1,18
 94 560 94 560 71 593 c 1,19,-1
 106 615 l 1,20,21
 149 572 149 572 170 526 c 128,-1,22
 191 480 191 480 191 435 c 0,23,24
 191 392 191 392 171.5 345.5 c 128,-1,25
 152 299 152 299 115 259 c 1,26,27
 128 239 128 239 148.5 220.5 c 128,-1,28
 169 202 169 202 197.5 190.5 c 128,-1,29
 226 179 226 179 260 179 c 0,30,31
 298 179 298 179 334 194 c 128,-1,32
 370 209 370 209 394 240 c 1,33,-1
 394 611 l 1,34,-1
 404 616 l 1,0,-1
EndSplineSet
EndChar

StartChar: sixguru
Encoding: 2668 2668 74
Width: 496
Flags: W
LayerCount: 2
Fore
SplineSet
458 88 m 1,0,-1
 481 12 l 1,1,2
 447 -4 447 -4 404.5 -14 c 128,-1,3
 362 -24 362 -24 315 -24 c 0,4,5
 255 -24 255 -24 208.5 -7 c 128,-1,6
 162 10 162 10 129.5 39 c 128,-1,7
 97 68 97 68 80.5 104 c 128,-1,8
 64 140 64 140 64 177 c 0,9,10
 64 218 64 218 85 256 c 128,-1,11
 106 294 106 294 151 316 c 1,12,13
 108 336 108 336 81.5 372 c 128,-1,14
 55 408 55 408 55 452 c 0,15,16
 55 510 55 510 101 552.5 c 128,-1,17
 147 595 147 595 234 605 c 1,18,19
 230 613 230 613 227.5 623.5 c 128,-1,20
 225 634 225 634 225 645 c 0,21,22
 225 678 225 678 241 703 c 128,-1,23
 257 728 257 728 286 742.5 c 128,-1,24
 315 757 315 757 353 757 c 0,25,26
 383 757 383 757 402.5 746.5 c 128,-1,27
 422 736 422 736 429.5 719.5 c 128,-1,28
 437 703 437 703 430 685 c 1,29,30
 415 691 415 691 398 694 c 128,-1,31
 381 697 381 697 363 697 c 0,32,33
 329 697 329 697 303.5 681.5 c 128,-1,34
 278 666 278 666 278 636 c 0,35,36
 278 627 278 627 280 619.5 c 128,-1,37
 282 612 282 612 286 607 c 1,38,39
 318 607 318 607 348 602 c 128,-1,40
 378 597 378 597 403 587.5 c 128,-1,41
 428 578 428 578 442.5 564.5 c 128,-1,42
 457 551 457 551 457 534 c 256,43,44
 457 517 457 517 441 505.5 c 128,-1,45
 425 494 425 494 395 494 c 0,46,47
 366 494 366 494 329.5 504.5 c 128,-1,48
 293 515 293 515 267 535 c 1,49,50
 222 533 222 533 192 518.5 c 128,-1,51
 162 504 162 504 147 481.5 c 128,-1,52
 132 459 132 459 132 432 c 0,53,54
 132 399 132 399 152.5 374.5 c 128,-1,55
 173 350 173 350 204 336 c 1,56,57
 228 344 228 344 261 349.5 c 128,-1,58
 294 355 294 355 325 355 c 0,59,60
 358 355 358 355 384.5 348.5 c 128,-1,61
 411 342 411 342 426.5 329.5 c 128,-1,62
 442 317 442 317 442 298 c 0,63,64
 442 275 442 275 415 261 c 128,-1,65
 388 247 388 247 342 247 c 0,66,67
 317 247 317 247 287.5 251.5 c 128,-1,68
 258 256 258 256 230 266 c 1,69,70
 187 256 187 256 161 228.5 c 128,-1,71
 135 201 135 201 135 162 c 0,72,73
 135 114 135 114 175.5 83.5 c 128,-1,74
 216 53 216 53 295 53 c 0,75,76
 333 53 333 53 376 62.5 c 128,-1,77
 419 72 419 72 458 88 c 1,0,-1
EndSplineSet
EndChar

StartChar: sevenguru
Encoding: 2669 2669 75
Width: 501
Flags: W
LayerCount: 2
Fore
SplineSet
261 557 m 0,0,1
 226 557 226 557 200.5 539 c 128,-1,2
 175 521 175 521 161.5 492 c 128,-1,3
 148 463 148 463 148 428 c 0,4,5
 148 406 148 406 155.5 381 c 128,-1,6
 163 356 163 356 181.5 334 c 128,-1,7
 200 312 200 312 233 297 c 1,8,9
 219 284 219 284 191 284 c 256,10,11
 163 284 163 284 133 303 c 128,-1,12
 103 322 103 322 83 358 c 128,-1,13
 63 394 63 394 63 444 c 0,14,15
 63 489 63 489 84 530 c 128,-1,16
 105 571 105 571 144.5 596.5 c 128,-1,17
 184 622 184 622 241 622 c 0,18,19
 309 622 309 622 358 585.5 c 128,-1,20
 407 549 407 549 433 489.5 c 128,-1,21
 459 430 459 430 459 360 c 0,22,23
 459 271 459 271 417 193.5 c 128,-1,24
 375 116 375 116 288 60.5 c 128,-1,25
 201 5 201 5 66 -18 c 1,26,-1
 38 58 l 1,27,28
 157 76 157 76 234 122.5 c 128,-1,29
 311 169 311 169 348 237 c 128,-1,30
 385 305 385 305 385 385 c 0,31,32
 385 438 385 438 369 476.5 c 128,-1,33
 353 515 353 515 325.5 536 c 128,-1,34
 298 557 298 557 261 557 c 0,0,1
EndSplineSet
EndChar

StartChar: eightguru
Encoding: 2670 2670 76
Width: 546
Flags: W
LayerCount: 2
Fore
SplineSet
448 174 m 1,0,-1
 528 158 l 1,1,2
 520 109 520 109 497.5 69.5 c 128,-1,3
 475 30 475 30 436.5 6.5 c 128,-1,4
 398 -17 398 -17 341 -17 c 0,5,6
 285 -17 285 -17 239 8.5 c 128,-1,7
 193 34 193 34 158 82 c 0,8,9
 124 128 124 128 107 185.5 c 128,-1,10
 90 243 90 243 85.5 308 c 128,-1,11
 81 373 81 373 85 439 c 1,12,-1
 73 439 l 2,13,14
 48 439 48 439 36 448 c 128,-1,15
 24 457 24 457 24 472 c 0,16,17
 24 488 24 488 35.5 507 c 128,-1,18
 47 526 47 526 65 543.5 c 128,-1,19
 83 561 83 561 102 572 c 128,-1,20
 121 583 121 583 137 583 c 256,21,22
 153 583 153 583 161 568 c 128,-1,23
 169 553 169 553 168 518 c 2,24,-1
 168 509 l 1,25,-1
 469 509 l 1,26,-1
 491 448 l 1,27,-1
 486 439 l 1,28,-1
 167 439 l 1,29,30
 164 382 164 382 166 322.5 c 128,-1,31
 168 263 168 263 178 210.5 c 128,-1,32
 188 158 188 158 207 120 c 0,33,34
 228 80 228 80 258 61 c 128,-1,35
 288 42 288 42 326 42 c 0,36,37
 365 42 365 42 389 59.5 c 128,-1,38
 413 77 413 77 427 107 c 128,-1,39
 441 137 441 137 448 174 c 1,0,-1
EndSplineSet
EndChar

StartChar: nineguru
Encoding: 2671 2671 77
Width: 551
Flags: W
LayerCount: 2
Fore
SplineSet
449 174 m 1,0,-1
 528 158 l 1,1,2
 520 109 520 109 497.5 69.5 c 128,-1,3
 475 30 475 30 437 6.5 c 128,-1,4
 399 -17 399 -17 342 -17 c 256,5,6
 285 -17 285 -17 240 8 c 128,-1,7
 195 33 195 33 159 82 c 0,8,9
 129 123 129 123 112 172.5 c 128,-1,10
 95 222 95 222 89 276.5 c 128,-1,11
 83 331 83 331 84 387 c 1,12,-1
 74 387 l 2,13,14
 48 387 48 387 36 396 c 128,-1,15
 24 405 24 405 24 420 c 0,16,17
 24 436 24 436 35.5 455 c 128,-1,18
 47 474 47 474 65 491.5 c 128,-1,19
 83 509 83 509 102 520 c 128,-1,20
 121 531 121 531 137 531 c 256,21,22
 153 531 153 531 162 516 c 128,-1,23
 171 501 171 501 168 466 c 2,24,-1
 167 453 l 1,25,-1
 382 453 l 1,26,27
 351 488 351 488 332.5 525 c 128,-1,28
 314 562 314 562 314 600 c 0,29,30
 314 665 314 665 352.5 699.5 c 128,-1,31
 391 734 391 734 445 734 c 0,32,33
 483 734 483 734 505.5 712 c 128,-1,34
 528 690 528 690 521 655 c 1,35,36
 511 658 511 658 501.5 660 c 128,-1,37
 492 662 492 662 481 662 c 0,38,39
 440 662 440 662 412.5 635.5 c 128,-1,40
 385 609 385 609 385 559 c 0,41,42
 385 519 385 519 405.5 480 c 128,-1,43
 426 441 426 441 459 398 c 1,44,-1
 453 382 l 1,45,-1
 167 382 l 1,46,47
 166 336 166 336 169.5 287.5 c 128,-1,48
 173 239 173 239 182.5 195.5 c 128,-1,49
 192 152 192 152 208 120 c 0,50,51
 228 80 228 80 258 61 c 128,-1,52
 288 42 288 42 326 42 c 0,53,54
 365 42 365 42 389 59.5 c 128,-1,55
 413 77 413 77 427 107 c 128,-1,56
 441 137 441 137 449 174 c 1,0,-1
EndSplineSet
EndChar

StartChar: tippiguru
Encoding: 2672 2672 78
Width: 0
GlyphClass: 2
Flags: W
AnchorPoint: "Anchor-0" 87 622 basechar 0
LayerCount: 2
Fore
SplineSet
-122 863 m 256,0,1
 -77 863 -77 863 -47 846 c 128,-1,2
 -17 829 -17 829 -2 802 c 128,-1,3
 13 775 13 775 13 745 c 0,4,5
 13 723 13 723 4 699 c 128,-1,6
 -5 675 -5 675 -25 655 c 1,7,-1
 -73 655 l 1,8,9
 -56 674 -56 674 -48.5 694 c 128,-1,10
 -41 714 -41 714 -41 732 c 0,11,12
 -41 759 -41 759 -60.5 779.5 c 128,-1,13
 -80 800 -80 800 -121 800 c 0,14,15
 -160 800 -160 800 -181.5 779 c 128,-1,16
 -203 758 -203 758 -203 726 c 0,17,18
 -203 709 -203 709 -195.5 690.5 c 128,-1,19
 -188 672 -188 672 -172 655 c 1,20,-1
 -218 655 l 1,21,22
 -240 674 -240 674 -249.5 698 c 128,-1,23
 -259 722 -259 722 -259 747 c 0,24,25
 -259 776 -259 776 -243.5 802.5 c 128,-1,26
 -228 829 -228 829 -197.5 846 c 128,-1,27
 -167 863 -167 863 -122 863 c 256,0,1
EndSplineSet
EndChar

StartChar: addakguru
Encoding: 2673 2673 79
Width: 0
GlyphClass: 2
Flags: W
AnchorPoint: "Anchor-0" 93 622 basechar 0
LayerCount: 2
Fore
SplineSet
-2 858 m 1,0,1
 10 816 10 816 -1.5 774 c 128,-1,2
 -13 732 -13 732 -46 704.5 c 128,-1,3
 -79 677 -79 677 -132 677 c 0,4,5
 -182 677 -182 677 -216 702.5 c 128,-1,6
 -250 728 -250 728 -263.5 768.5 c 128,-1,7
 -277 809 -277 809 -267 855 c 1,8,-1
 -255 855 l 1,9,10
 -250 818 -250 818 -231.5 793 c 128,-1,11
 -213 768 -213 768 -187.5 756 c 128,-1,12
 -162 744 -162 744 -136 744 c 0,13,14
 -109 744 -109 744 -83 756.5 c 128,-1,15
 -57 769 -57 769 -37.5 794.5 c 128,-1,16
 -18 820 -18 820 -13 858 c 1,17,-1
 -2 858 l 1,0,1
EndSplineSet
EndChar

StartChar: iriguru
Encoding: 2674 2674 80
Width: 629
GlyphClass: 2
Flags: W
AnchorPoint: "Anchor-1" 546 -8 basechar 0
AnchorPoint: "Anchor-0" 474 622 basechar 0
LayerCount: 2
Fore
SplineSet
452 293 m 2,0,1
 358 293 358 293 278 261 c 128,-1,2
 198 229 198 229 148 170 c 1,3,4
 172 133 172 133 205.5 106 c 128,-1,5
 239 79 239 79 277.5 64.5 c 128,-1,6
 316 50 316 50 353 50 c 0,7,8
 404 50 404 50 447.5 71 c 128,-1,9
 491 92 491 92 522 126 c 1,10,-1
 533 126 l 1,11,-1
 577 64 l 1,12,13
 542 24 542 24 492.5 -2 c 128,-1,14
 443 -28 443 -28 380 -28 c 0,15,16
 328 -28 328 -28 280 -9 c 128,-1,17
 232 10 232 10 191 42.5 c 128,-1,18
 150 75 150 75 119.5 115.5 c 128,-1,19
 89 156 89 156 72 199 c 1,20,21
 107 249 107 249 157.5 285 c 128,-1,22
 208 321 208 321 266 336 c 1,23,24
 216 346 216 346 180.5 369 c 128,-1,25
 145 392 145 392 123 422.5 c 128,-1,26
 101 453 101 453 90.5 487.5 c 128,-1,27
 80 522 80 522 78 555 c 1,28,-1
 -13 555 l 1,29,-1
 -35 613 l 1,30,-1
 -30 622 l 1,31,-1
 642 622 l 1,32,-1
 664 565 l 1,33,-1
 660 555 l 1,34,-1
 523 555 l 1,35,-1
 523 315 l 1,36,-1
 505 293 l 1,37,-1
 452 293 l 2,0,1
441 555 m 1,38,-1
 163 555 l 1,39,40
 163 518 163 518 174.5 483 c 128,-1,41
 186 448 186 448 210.5 420.5 c 128,-1,42
 235 393 235 393 274 377 c 128,-1,43
 313 361 313 361 368 361 c 2,44,-1
 441 361 l 1,45,-1
 441 555 l 1,38,-1
EndSplineSet
EndChar

StartChar: uraguru
Encoding: 2675 2675 81
Width: 632
GlyphClass: 2
Flags: W
AnchorPoint: "Anchor-1" 537 -8 basechar 0
AnchorPoint: "Anchor-0" 660 662 basechar 0
LayerCount: 2
Fore
SplineSet
575 555 m 1,0,1
 574 471 574 471 541.5 409.5 c 128,-1,2
 509 348 509 348 444 322 c 1,3,4
 478 307 478 307 506 282 c 128,-1,5
 534 257 534 257 550.5 223 c 128,-1,6
 567 189 567 189 567 144 c 0,7,8
 567 65 567 65 514 16 c 128,-1,9
 461 -33 461 -33 373 -33 c 0,10,11
 308 -33 308 -33 256.5 -4.5 c 128,-1,12
 205 24 205 24 167.5 73 c 128,-1,13
 130 122 130 122 105.5 185 c 128,-1,14
 81 248 81 248 69 319 c 128,-1,15
 57 390 57 390 57 460 c 0,16,17
 57 483 57 483 59 509.5 c 128,-1,18
 61 536 61 536 63 555 c 1,19,-1
 -13 555 l 1,20,-1
 -35 613 l 1,21,-1
 -30 622 l 1,22,-1
 74 622 l 1,23,24
 92 696 92 696 123 747 c 128,-1,25
 154 798 154 798 192.5 829 c 128,-1,26
 231 860 231 860 271.5 873.5 c 128,-1,27
 312 887 312 887 348 887 c 0,28,29
 421 887 421 887 471 850 c 128,-1,30
 521 813 521 813 547.5 753 c 128,-1,31
 574 693 574 693 574 622 c 1,32,-1
 646 622 l 1,33,-1
 668 565 l 1,34,-1
 664 555 l 1,35,-1
 575 555 l 1,0,1
360 811 m 0,36,37
 287 811 287 811 235 759.5 c 128,-1,38
 183 708 183 708 158 622 c 1,39,-1
 522 622 l 1,40,41
 522 657 522 657 512.5 690.5 c 128,-1,42
 503 724 503 724 483.5 751.5 c 128,-1,43
 464 779 464 779 433.5 795 c 128,-1,44
 403 811 403 811 360 811 c 0,36,37
144 555 m 1,45,46
 137 512 137 512 136.5 463 c 128,-1,47
 136 414 136 414 140 369 c 1,48,-1
 337 369 l 2,49,50
 392 369 392 369 432.5 395.5 c 128,-1,51
 473 422 473 422 496 464 c 128,-1,52
 519 506 519 506 520 555 c 1,53,-1
 144 555 l 1,45,46
360 40 m 0,54,55
 421 40 421 40 458.5 73.5 c 128,-1,56
 496 107 496 107 496 162 c 0,57,58
 496 197 496 197 478 227 c 128,-1,59
 460 257 460 257 424 275 c 128,-1,60
 388 293 388 293 334 293 c 2,61,-1
 147 293 l 1,62,63
 151 258 151 258 162.5 222 c 128,-1,64
 174 186 174 186 192 153.5 c 128,-1,65
 210 121 210 121 235 95.5 c 128,-1,66
 260 70 260 70 291.5 55 c 128,-1,67
 323 40 323 40 360 40 c 0,54,55
EndSplineSet
EndChar

StartChar: ekonkarguru
Encoding: 2676 2676 82
Width: 1043
Flags: W
LayerCount: 2
Fore
SplineSet
1227 911 m 0,0,1
 1279 911 1279 911 1315.5 888.5 c 128,-1,2
 1352 866 1352 866 1372 825.5 c 128,-1,3
 1392 785 1392 785 1393 731 c 1,4,-1
 1383 731 l 1,5,6
 1358 788 1358 788 1325 815 c 128,-1,7
 1292 842 1292 842 1240 842 c 0,8,9
 1170 842 1170 842 1097.5 798.5 c 128,-1,10
 1025 755 1025 755 956 690 c 1,11,12
 940 718 940 718 916 746 c 128,-1,13
 892 774 892 774 858.5 792.5 c 128,-1,14
 825 811 825 811 779 811 c 0,15,16
 703 811 703 811 652.5 758 c 128,-1,17
 602 705 602 705 579 622 c 1,18,-1
 1065 622 l 1,19,-1
 1087 565 l 1,20,-1
 1083 555 l 1,21,-1
 998 555 l 1,22,23
 997 471 997 471 964.5 409.5 c 128,-1,24
 932 348 932 348 867 322 c 1,25,26
 901 307 901 307 929 282 c 128,-1,27
 957 257 957 257 973.5 223 c 128,-1,28
 990 189 990 189 990 144 c 0,29,30
 990 92 990 92 966 52 c 128,-1,31
 942 12 942 12 898.5 -10.5 c 128,-1,32
 855 -33 855 -33 797 -33 c 0,33,34
 731 -33 731 -33 679.5 -4.5 c 128,-1,35
 628 24 628 24 590.5 73 c 128,-1,36
 553 122 553 122 528.5 185 c 128,-1,37
 504 248 504 248 492 319 c 128,-1,38
 480 390 480 390 480 460 c 0,39,40
 480 483 480 483 482 509.5 c 128,-1,41
 484 536 484 536 486 555 c 1,42,-1
 410 555 l 1,43,-1
 388 613 l 1,44,-1
 393 622 l 1,45,-1
 497 622 l 1,46,47
 515 696 515 696 545 746.5 c 128,-1,48
 575 797 575 797 612.5 827 c 128,-1,49
 650 857 650 857 690.5 870.5 c 128,-1,50
 731 884 731 884 769 884 c 0,51,52
 814 884 814 884 848.5 868.5 c 128,-1,53
 883 853 883 853 908.5 827.5 c 128,-1,54
 934 802 934 802 953 773 c 1,55,56
 988 806 988 806 1032.5 838 c 128,-1,57
 1077 870 1077 870 1127 890.5 c 128,-1,58
 1177 911 1177 911 1227 911 c 0,0,1
760 369 m 2,59,60
 815 369 815 369 855.5 395.5 c 128,-1,61
 896 422 896 422 919 464 c 128,-1,62
 942 506 942 506 943 555 c 1,63,-1
 565 555 l 1,64,65
 558 512 558 512 557.5 463 c 128,-1,66
 557 414 557 414 561 369 c 1,67,-1
 760 369 l 2,59,60
784 40 m 0,68,69
 843 40 843 40 881 73.5 c 128,-1,70
 919 107 919 107 919 161 c 0,71,72
 919 197 919 197 901 227 c 128,-1,73
 883 257 883 257 847 275 c 128,-1,74
 811 293 811 293 757 293 c 2,75,-1
 570 293 l 1,76,77
 574 258 574 258 585.5 222.5 c 128,-1,78
 597 187 597 187 615 154 c 128,-1,79
 633 121 633 121 658 95.5 c 128,-1,80
 683 70 683 70 714.5 55 c 128,-1,81
 746 40 746 40 784 40 c 0,68,69
198 622 m 0,82,83
 254 622 254 622 290.5 596.5 c 128,-1,84
 327 571 327 571 348 530 c 128,-1,85
 369 489 369 489 378 440.5 c 128,-1,86
 387 392 387 392 387 345 c 2,87,-1
 387 -24 l 1,88,-1
 377 -29 l 1,89,-1
 305 8 l 1,90,-1
 305 255 l 1,91,92
 286 246 286 246 265.5 242 c 128,-1,93
 245 238 245 238 225 238 c 0,94,95
 186 238 186 238 149.5 253.5 c 128,-1,96
 113 269 113 269 84.5 296.5 c 128,-1,97
 56 324 56 324 39 360.5 c 128,-1,98
 22 397 22 397 22 440 c 0,99,100
 22 488 22 488 44 529.5 c 128,-1,101
 66 571 66 571 105.5 596.5 c 128,-1,102
 145 622 145 622 198 622 c 0,82,83
201 311 m 0,103,104
 228 311 228 311 256.5 317.5 c 128,-1,105
 285 324 285 324 310 335 c 1,106,107
 312 381 312 381 310 419.5 c 128,-1,108
 308 458 308 458 298 487 c 128,-1,109
 288 516 288 516 267.5 532 c 128,-1,110
 247 548 247 548 212 548 c 0,111,112
 184 548 184 548 156 529 c 128,-1,113
 128 510 128 510 110 480 c 128,-1,114
 92 450 92 450 92 415 c 0,115,116
 92 363 92 363 123.5 337 c 128,-1,117
 155 311 155 311 201 311 c 0,103,104
EndSplineSet
EndChar

StartChar: yakashguru
Encoding: 2677 2677 83
Width: 0
Flags: W
LayerCount: 2
Fore
SplineSet
44 -217 m 1,0,-1
 36 -290 l 1,1,2
 26 -297 26 -297 11.5 -301.5 c 128,-1,3
 -3 -306 -3 -306 -19 -306 c 0,4,5
 -49 -306 -49 -306 -75.5 -291.5 c 128,-1,6
 -102 -277 -102 -277 -122.5 -251.5 c 128,-1,7
 -143 -226 -143 -226 -154.5 -191.5 c 128,-1,8
 -166 -157 -166 -157 -166 -118 c 2,9,-1
 -166 -55 l 1,10,-1
 -159 -49 l 1,11,-1
 -94 -83 l 1,12,-1
 -94 -140 l 2,13,14
 -94 -195 -94 -195 -77 -219 c 128,-1,15
 -60 -243 -60 -243 -32 -243 c 0,16,17
 -12 -243 -12 -243 5 -233.5 c 128,-1,18
 22 -224 22 -224 36 -211 c 1,19,-1
 44 -217 l 1,0,-1
EndSplineSet
EndChar

StartChar: uni0A76
Encoding: 2678 2678 84
Width: 261
Flags: W
LayerCount: 2
Fore
SplineSet
68 315 m 0,0,1
 68 340 68 340 86 357.5 c 128,-1,2
 104 375 104 375 130 375 c 0,3,4
 157 375 157 375 175 357 c 128,-1,5
 193 339 193 339 193 313 c 0,6,7
 193 288 193 288 175.5 270 c 128,-1,8
 158 252 158 252 131 252 c 256,9,10
 104 252 104 252 86 270 c 128,-1,11
 68 288 68 288 68 315 c 0,0,1
EndSplineSet
EndChar

StartChar: U262C
Encoding: 9772 9772 85
Width: 902
Flags: W
LayerCount: 2
Fore
SplineSet
543 714 m 1,0,-1
 543 691 l 1,1,2
 524 691 524 691 515.5 681 c 128,-1,3
 507 671 507 671 503 648 c 1,4,5
 568 629 568 629 607 577.5 c 128,-1,6
 646 526 646 526 646 461 c 0,7,8
 646 403 646 403 614.5 354 c 128,-1,9
 583 305 583 305 530 279 c 1,10,11
 533 271 533 271 538 264.5 c 128,-1,12
 543 258 543 258 547 250 c 1,13,14
 534 244 534 244 517 240 c 128,-1,15
 500 236 500 236 479 233 c 1,16,-1
 479 170 l 1,17,18
 548 175 548 175 598.5 209 c 128,-1,19
 649 243 649 243 678 300 c 0,20,21
 692 328 692 328 698.5 357.5 c 128,-1,22
 705 387 705 387 705 421 c 0,23,24
 705 482 705 482 694.5 528 c 128,-1,25
 684 574 684 574 655 623 c 1,26,27
 712 586 712 586 748.5 516.5 c 128,-1,28
 785 447 785 447 785 362 c 0,29,30
 785 268 785 268 760.5 183.5 c 128,-1,31
 736 99 736 99 687 32 c 1,32,33
 683 79 683 79 655.5 106.5 c 128,-1,34
 628 134 628 134 584 134 c 0,35,36
 572 134 572 134 560.5 132.5 c 128,-1,37
 549 131 549 131 536 126 c 1,38,39
 582 89 582 89 610.5 47 c 128,-1,40
 639 5 639 5 639 -18 c 0,41,42
 639 -38 639 -38 629 -50.5 c 128,-1,43
 619 -63 619 -63 600 -63 c 256,44,45
 581 -63 581 -63 569 -51 c 128,-1,46
 557 -39 557 -39 557 -21 c 0,47,48
 557 -13 557 -13 562 -8 c 128,-1,49
 567 -3 567 -3 567 7 c 2,50,-1
 568 12 l 2,51,52
 568 29 568 29 551 55.5 c 128,-1,53
 534 82 534 82 505 110 c 1,54,55
 479 89 479 89 479 63 c 0,56,57
 479 48 479 48 483.5 33 c 128,-1,58
 488 18 488 18 495 3 c 0,59,60
 509 -27 509 -27 509 -53 c 0,61,62
 509 -81 509 -81 491.5 -99.5 c 128,-1,63
 474 -118 474 -118 451 -118 c 0,64,65
 429 -118 429 -118 411 -99.5 c 128,-1,66
 393 -81 393 -81 393 -53 c 0,67,68
 393 -39 393 -39 397.5 -25 c 128,-1,69
 402 -11 402 -11 409 3 c 0,70,71
 423 32 423 32 423 63 c 0,72,73
 423 89 423 89 397 110 c 1,74,75
 369 82 369 82 352 55.5 c 128,-1,76
 335 29 335 29 335 12 c 0,77,78
 335 9 335 9 336 7 c 0,79,80
 343 0 343 0 344 -6.5 c 128,-1,81
 345 -13 345 -13 345 -21 c 0,82,83
 345 -39 345 -39 333.5 -51 c 128,-1,84
 322 -63 322 -63 302 -63 c 0,85,86
 283 -63 283 -63 273 -50.5 c 128,-1,87
 263 -38 263 -38 263 -18 c 0,88,89
 263 5 263 5 291 46.5 c 128,-1,90
 319 88 319 88 368 126 c 1,91,92
 354 131 354 131 342 132.5 c 128,-1,93
 330 134 330 134 319 134 c 0,94,95
 276 134 276 134 247.5 106.5 c 128,-1,96
 219 79 219 79 215 32 c 1,97,98
 166 100 166 100 141.5 184 c 128,-1,99
 117 268 117 268 117 362 c 0,100,101
 117 447 117 447 154.5 516.5 c 128,-1,102
 192 586 192 586 247 623 c 1,103,104
 219 576 219 576 208 529 c 128,-1,105
 197 482 197 482 197 421 c 0,106,107
 197 355 197 355 225 298.5 c 128,-1,108
 253 242 253 242 303 209 c 0,109,110
 354 175 354 175 423 170 c 1,111,-1
 423 233 l 1,112,113
 402 236 402 236 385 240 c 128,-1,114
 368 244 368 244 357 250 c 1,115,116
 369 268 369 268 372 279 c 1,117,118
 320 305 320 305 289.5 354 c 128,-1,119
 259 403 259 403 259 461 c 0,120,121
 259 526 259 526 297 577.5 c 128,-1,122
 335 629 335 629 399 648 c 1,123,124
 396 671 396 671 387 681 c 128,-1,125
 378 691 378 691 359 691 c 1,126,-1
 359 714 l 1,127,128
 388 714 388 714 407 733 c 0,129,130
 420 744 420 744 429 749 c 128,-1,131
 438 754 438 754 449 754 c 0,132,133
 458 754 458 754 466 749 c 128,-1,134
 474 744 474 744 491 733 c 0,135,136
 504 724 504 724 516.5 719 c 128,-1,137
 529 714 529 714 543 714 c 1,0,-1
393 326 m 1,138,139
 405 360 405 360 410.5 399 c 128,-1,140
 416 438 416 438 416 483 c 0,141,142
 416 512 416 512 414 541 c 128,-1,143
 412 570 412 570 409 598 c 1,144,145
 363 582 363 582 335 544.5 c 128,-1,146
 307 507 307 507 307 461 c 0,147,148
 307 416 307 416 330.5 379.5 c 128,-1,149
 354 343 354 343 393 326 c 1,138,139
493 598 m 1,150,151
 487 544 487 544 487 483 c 0,152,153
 487 437 487 437 493 398 c 128,-1,154
 499 359 499 359 509 326 c 1,155,156
 548 343 548 343 571.5 379.5 c 128,-1,157
 595 416 595 416 595 461 c 0,158,159
 595 507 595 507 567.5 544.5 c 128,-1,160
 540 582 540 582 493 598 c 1,150,151
EndSplineSet
EndChar

StartChar: uni0A4D0A30.below
Encoding: 65563 -1 112
Width: 0
GlyphClass: 4
Flags: W
AnchorPoint: "Anchor-1" -88 0 mark 0
LayerCount: 2
Fore
SplineSet
-93 -105 m 1,0,1
 -51 -122 -51 -122 -20.5 -154 c 128,-1,2
 10 -186 10 -186 29 -220.5 c 128,-1,3
 48 -255 48 -255 55 -282 c 1,4,-1
 44 -288 l 1,5,6
 26 -258 26 -258 0.5 -231.5 c 128,-1,7
 -25 -205 -25 -205 -53.5 -187 c 128,-1,8
 -82 -169 -82 -169 -109 -163 c 1,9,10
 -124 -192 -124 -192 -151 -209 c 128,-1,11
 -178 -226 -178 -226 -203 -226 c 0,12,13
 -231 -226 -231 -226 -247.5 -210.5 c 128,-1,14
 -264 -195 -264 -195 -264 -174 c 0,15,16
 -264 -148 -264 -148 -239 -125.5 c 128,-1,17
 -214 -103 -214 -103 -165 -99 c 1,18,-1
 -165 -57 l 1,19,-1
 -93 -57 l 1,20,-1
 -93 -105 l 1,0,1
EndSplineSet
Ligature2: "'blwf' Below Base Forms in Gurmukhi lookup 3 subtable" raguru halantguru
Ligature2: "'blwf' Below Base Forms in Gurmukhi2 lookup 2 subtable" halantguru raguru
MultipleSubs2: "Multiple Substitution lookup 0 subtable" halantguru raguru
EndChar

StartChar: uni0A4D0A39
Encoding: 65564 -1 113
Width: 0
GlyphClass: 4
Flags: W
AnchorPoint: "Anchor-1" -88 0 mark 0
LayerCount: 2
Fore
SplineSet
-93 -213 m 2,0,1
 -93 -254 -93 -254 -101 -283.5 c 128,-1,2
 -109 -313 -109 -313 -128 -328.5 c 128,-1,3
 -147 -344 -147 -344 -182 -344 c 0,4,5
 -216 -344 -216 -344 -248 -328.5 c 128,-1,6
 -280 -313 -280 -313 -306 -288.5 c 128,-1,7
 -332 -264 -332 -264 -347 -235.5 c 128,-1,8
 -362 -207 -362 -207 -362 -181 c 0,9,10
 -362 -144 -362 -144 -340 -125 c 128,-1,11
 -318 -106 -318 -106 -273 -106 c 2,12,-1
 -237 -106 l 1,13,-1
 -225 -170 l 1,14,-1
 -255 -170 l 2,15,16
 -272 -170 -272 -170 -283.5 -179.5 c 128,-1,17
 -295 -189 -295 -189 -295 -208 c 0,18,19
 -295 -225 -295 -225 -281 -245.5 c 128,-1,20
 -267 -266 -267 -266 -245.5 -280 c 128,-1,21
 -224 -294 -224 -294 -202 -294 c 0,22,23
 -181 -294 -181 -294 -173 -276.5 c 128,-1,24
 -165 -259 -165 -259 -165 -215 c 2,25,-1
 -165 -57 l 1,26,-1
 -93 -57 l 1,27,-1
 -93 -213 l 2,0,1
EndSplineSet
Ligature2: "'blwf' Below Base Forms in Gurmukhi lookup 3 subtable" haguru halantguru
Ligature2: "'blwf' Below Base Forms in Gurmukhi2 lookup 2 subtable" halantguru haguru
MultipleSubs2: "Multiple Substitution lookup 0 subtable" halantguru haguru
EndChar

StartChar: uni0A4D0A35
Encoding: 65565 -1 114
Width: 0
GlyphClass: 4
Flags: W
AnchorPoint: "Anchor-1" -88 0 mark 0
LayerCount: 2
Fore
SplineSet
-75 -290 m 1,0,-1
 -58 -343 l 1,1,-1
 -63 -349 l 1,2,-1
 -156 -349 l 2,3,4
 -192 -349 -192 -349 -222 -337 c 128,-1,5
 -252 -325 -252 -325 -270.5 -301.5 c 128,-1,6
 -289 -278 -289 -278 -289 -242 c 0,7,8
 -289 -237 -289 -237 -288.5 -233 c 128,-1,9
 -288 -229 -288 -229 -287 -225 c 1,10,11
 -321 -213 -321 -213 -345 -188.5 c 128,-1,12
 -369 -164 -369 -164 -369 -133 c 0,13,14
 -369 -109 -369 -109 -356.5 -92 c 128,-1,15
 -344 -75 -344 -75 -318.5 -66 c 128,-1,16
 -293 -57 -293 -57 -255 -57 c 2,17,-1
 -88 -57 l 1,18,-1
 -88 -112 l 1,19,-1
 -232 -112 l 2,20,21
 -252 -112 -252 -112 -268.5 -113.5 c 128,-1,22
 -285 -115 -285 -115 -294 -121.5 c 128,-1,23
 -303 -128 -303 -128 -303 -142 c 0,24,25
 -303 -162 -303 -162 -286.5 -170.5 c 128,-1,26
 -270 -179 -270 -179 -239 -179 c 2,27,-1
 -92 -179 l 1,28,-1
 -79 -228 l 1,29,-1
 -84 -234 l 1,30,-1
 -237 -234 l 1,31,32
 -240 -241 -240 -241 -240 -251 c 0,33,34
 -240 -271 -240 -271 -223.5 -280.5 c 128,-1,35
 -207 -290 -207 -290 -179 -290 c 2,36,-1
 -75 -290 l 1,0,-1
EndSplineSet
Ligature2: "'blwf' Below Base Forms in Gurmukhi lookup 3 subtable" vaguru halantguru
Ligature2: "'blwf' Below Base Forms in Gurmukhi2 lookup 2 subtable" halantguru vaguru
MultipleSubs2: "Multiple Substitution lookup 0 subtable" halantguru vaguru
EndChar

StartChar: yapostformguru
Encoding: 65628 -1 177
Width: 619
GlyphClass: 2
Flags: W
AnchorPoint: "Anchor-1" 531 0 basechar 0
AnchorPoint: "Anchor-0" 482 622 basechar 0
LayerCount: 2
Fore
SplineSet
654 565 m 1,0,-1
 650 555 l 1,1,-1
 531 555 l 1,2,-1
 531 -24 l 1,3,-1
 522 -29 l 1,4,-1
 449 8 l 1,5,-1
 449 314 l 1,6,-1
 307 314 l 1,7,-1
 307 257 l 2,8,9
 307 214 307 214 300.5 178.5 c 128,-1,10
 294 143 294 143 278.5 117 c 128,-1,11
 263 91 263 91 238 77.5 c 128,-1,12
 213 64 213 64 175 64 c 0,13,14
 129 64 129 64 92.5 92.5 c 128,-1,15
 56 121 56 121 29 172 c 128,-1,16
 2 223 2 223 -18 291 c 1,17,-1
 14 305 l 1,18,19
 36 248 36 248 58 210.5 c 128,-1,20
 80 173 80 173 104.5 154 c 128,-1,21
 129 135 129 135 157 135 c 0,22,23
 200 135 200 135 215.5 168 c 128,-1,24
 231 201 231 201 231 262 c 2,25,-1
 231 354 l 1,26,-1
 252 375 l 1,27,-1
 449 375 l 1,28,-1
 449 555 l 1,29,-1
 -23 555 l 1,30,-1
 -45 613 l 1,31,-1
 -40 622 l 1,32,-1
 632 622 l 1,33,-1
 654 565 l 1,0,-1
EndSplineSet
Ligature2: "'pstf' Post Base Forms in Gurmukhi lookup 6 subtable" yaguru halantguru
Ligature2: "'pstf' Post Base Forms in Gurmukhi2 lookup 5 subtable" halantguru yaguru
EndChar

StartChar: karaguru
Encoding: 65644 -1 193
Width: 590
GlyphClass: 2
Flags: W
AnchorPoint: "Anchor-0" 437 622 basechar 0
LayerCount: 2
Fore
SplineSet
530 -16 m 1,0,1
 572 -33 572 -33 603.5 -65.5 c 128,-1,2
 635 -98 635 -98 654.5 -133 c 128,-1,3
 674 -168 674 -168 681 -195 c 1,4,-1
 671 -202 l 1,5,6
 653 -171 653 -171 627 -144.5 c 128,-1,7
 601 -118 601 -118 572.5 -99.5 c 128,-1,8
 544 -81 544 -81 516 -76 c 1,9,10
 504 -106 504 -106 477 -124 c 128,-1,11
 450 -142 450 -142 424 -142 c 0,12,13
 396 -142 396 -142 379.5 -126.5 c 128,-1,14
 363 -111 363 -111 363 -90 c 0,15,16
 363 -65 363 -65 385.5 -41.5 c 128,-1,17
 408 -18 408 -18 451 -10 c 1,18,19
 444 43 444 43 429 92 c 128,-1,20
 414 141 414 141 397 181 c 1,21,22
 363 141 363 141 319.5 120 c 128,-1,23
 276 99 276 99 228 99 c 0,24,25
 188 99 188 99 151.5 112.5 c 128,-1,26
 115 126 115 126 87 149.5 c 128,-1,27
 59 173 59 173 42.5 205 c 128,-1,28
 26 237 26 237 26 274 c 0,29,30
 26 318 26 318 48 354.5 c 128,-1,31
 70 391 70 391 109.5 413 c 128,-1,32
 149 435 149 435 202 435 c 0,33,34
 257 435 257 435 305.5 405.5 c 128,-1,35
 354 376 354 376 395 319 c 1,36,37
 408 351 408 351 415 387.5 c 128,-1,38
 422 424 422 424 422 467 c 0,39,40
 422 487 422 487 420.5 510 c 128,-1,41
 419 533 419 533 414 555 c 1,42,-1
 -31 555 l 1,43,-1
 -53 613 l 1,44,-1
 -48 622 l 1,45,-1
 603 622 l 1,46,-1
 625 565 l 1,47,-1
 621 555 l 1,48,-1
 493 555 l 1,49,50
 497 531 497 531 498.5 507.5 c 128,-1,51
 500 484 500 484 500 462 c 0,52,53
 500 398 500 398 486.5 342 c 128,-1,54
 473 286 473 286 448 241 c 1,55,56
 474 189 474 189 495.5 124 c 128,-1,57
 517 59 517 59 530 -16 c 1,0,1
215 159 m 0,58,59
 263 159 263 159 304 186 c 128,-1,60
 345 213 345 213 369 259 c 1,61,62
 341 307 341 307 303 334 c 128,-1,63
 265 361 265 361 217 361 c 0,64,65
 180 361 180 361 154.5 346.5 c 128,-1,66
 129 332 129 332 115.5 308.5 c 128,-1,67
 102 285 102 285 102 259 c 0,68,69
 102 234 102 234 115 211 c 128,-1,70
 128 188 128 188 153 173.5 c 128,-1,71
 178 159 178 159 215 159 c 0,58,59
EndSplineSet
Ligature2: "'blws' Below Base Substitutions lookup 9 subtable" kaguru uni0A4D0A30.below
EndChar

StartChar: iibindiguru
Encoding: 65648 -1 197
Width: 888
GlyphClass: 2
Flags: W
AnchorPoint: "Anchor-1" 546 -8 basechar 0
AnchorPoint: "Anchor-0" 886 622 basechar 0
LayerCount: 2
Fore
SplineSet
801 754 m 0,0,1
 801 777 801 777 816.5 792 c 128,-1,2
 832 807 832 807 856 807 c 0,3,4
 879 807 879 807 894.5 791 c 128,-1,5
 910 775 910 775 910 752 c 0,6,7
 910 730 910 730 895 714 c 128,-1,8
 880 698 880 698 856 698 c 0,9,10
 833 698 833 698 817 714 c 128,-1,11
 801 730 801 730 801 754 c 0,0,1
452 293 m 2,12,13
 358 293 358 293 278 261 c 128,-1,14
 198 229 198 229 148 170 c 1,15,16
 172 133 172 133 205.5 106 c 128,-1,17
 239 79 239 79 277.5 64.5 c 128,-1,18
 316 50 316 50 353 50 c 0,19,20
 404 50 404 50 447.5 71 c 128,-1,21
 491 92 491 92 522 126 c 1,22,-1
 533 126 l 1,23,-1
 577 64 l 1,24,25
 542 24 542 24 492.5 -2 c 128,-1,26
 443 -28 443 -28 380 -28 c 0,27,28
 328 -28 328 -28 280 -9 c 128,-1,29
 232 10 232 10 191 42.5 c 128,-1,30
 150 75 150 75 119.5 115.5 c 128,-1,31
 89 156 89 156 72 199 c 1,32,33
 107 249 107 249 157.5 285 c 128,-1,34
 208 321 208 321 266 336 c 1,35,36
 216 346 216 346 180.5 369 c 128,-1,37
 145 392 145 392 123 422.5 c 128,-1,38
 101 453 101 453 90.5 487.5 c 128,-1,39
 80 522 80 522 78 555 c 1,40,-1
 -13 555 l 1,41,-1
 -35 613 l 1,42,-1
 -30 622 l 1,43,-1
 642 622 l 1,44,-1
 664 565 l 1,45,-1
 660 555 l 1,46,-1
 523 555 l 1,47,-1
 523 315 l 1,48,-1
 505 293 l 1,49,-1
 452 293 l 2,12,13
441 555 m 1,50,-1
 163 555 l 1,51,52
 163 518 163 518 174.5 483 c 128,-1,53
 186 448 186 448 210.5 420.5 c 128,-1,54
 235 393 235 393 274 377 c 128,-1,55
 313 361 313 361 368 361 c 2,56,-1
 441 361 l 1,57,-1
 441 555 l 1,50,-1
923 565 m 1,58,-1
 918 555 l 1,59,-1
 796 555 l 1,60,-1
 796 -24 l 1,61,-1
 786 -29 l 1,62,-1
 714 8 l 1,63,-1
 714 555 l 1,64,-1
 599 555 l 1,65,-1
 577 613 l 1,66,-1
 582 622 l 1,67,-1
 714 622 l 1,68,69
 713 671 713 671 705 710 c 128,-1,70
 697 749 697 749 683 777 c 0,71,72
 667 809 667 809 640 826.5 c 128,-1,73
 613 844 613 844 581 844 c 0,74,75
 534 844 534 844 506 814.5 c 128,-1,76
 478 785 478 785 478 739 c 0,77,78
 478 721 478 721 484 701 c 128,-1,79
 490 681 490 681 498 663 c 1,80,-1
 493 655 l 1,81,-1
 469 655 l 1,82,83
 444 675 444 675 427 707 c 128,-1,84
 410 739 410 739 410 776 c 0,85,86
 410 816 410 816 430 848 c 128,-1,87
 450 880 450 880 485.5 899 c 128,-1,88
 521 918 521 918 566 918 c 0,89,90
 614 918 614 918 656.5 894.5 c 128,-1,91
 699 871 699 871 729 826 c 0,92,93
 756 786 756 786 771.5 735 c 128,-1,94
 787 684 787 684 791 622 c 1,95,-1
 901 622 l 1,96,-1
 923 565 l 1,58,-1
EndSplineSet
Ligature2: "'abvs' Above Base Substitutions lookup 10 subtable" iiguru tippiguru
Ligature2: "'abvs' Above Base Substitutions lookup 10 subtable" iiguru bindiguru
EndChar

StartChar: iimatrabindiguru
Encoding: 65655 -1 204
Width: 275
Flags: W
LayerCount: 2
Fore
SplineSet
189 754 m 0,0,1
 189 777 189 777 204.5 792 c 128,-1,2
 220 807 220 807 243 807 c 0,3,4
 267 807 267 807 282.5 791 c 128,-1,5
 298 775 298 775 298 752 c 0,6,7
 298 730 298 730 283 714 c 128,-1,8
 268 698 268 698 244 698 c 256,9,10
 220 698 220 698 204.5 714 c 128,-1,11
 189 730 189 730 189 754 c 0,0,1
310 565 m 1,12,-1
 305 555 l 1,13,-1
 183 555 l 1,14,-1
 183 -24 l 1,15,-1
 173 -29 l 1,16,-1
 101 8 l 1,17,-1
 101 555 l 1,18,-1
 -14 555 l 1,19,-1
 -36 613 l 1,20,-1
 -31 622 l 1,21,-1
 101 622 l 1,22,23
 100 671 100 671 92 710 c 128,-1,24
 84 749 84 749 70 777 c 0,25,26
 54 809 54 809 27 826.5 c 128,-1,27
 0 844 0 844 -32 844 c 0,28,29
 -79 844 -79 844 -107 814.5 c 128,-1,30
 -135 785 -135 785 -135 739 c 0,31,32
 -135 721 -135 721 -129 701 c 128,-1,33
 -123 681 -123 681 -115 663 c 1,34,-1
 -120 655 l 1,35,-1
 -144 655 l 1,36,37
 -169 675 -169 675 -186 707 c 128,-1,38
 -203 739 -203 739 -203 776 c 0,39,40
 -203 816 -203 816 -183 848 c 128,-1,41
 -163 880 -163 880 -127.5 899 c 128,-1,42
 -92 918 -92 918 -47 918 c 0,43,44
 1 918 1 918 43.5 894.5 c 128,-1,45
 86 871 86 871 116 826 c 0,46,47
 143 786 143 786 158.5 735 c 128,-1,48
 174 684 174 684 178 622 c 1,49,-1
 288 622 l 1,50,-1
 310 565 l 1,12,-1
EndSplineSet
Ligature2: "'abvs' Above Base Substitutions lookup 10 subtable" uni0A40 tippiguru
Ligature2: "'abvs' Above Base Substitutions lookup 10 subtable" uni0A40 bindiguru
EndChar

StartChar: aimatrabindiguru
Encoding: 65657 -1 206
Width: 0
Flags: W
LayerCount: 2
Fore
SplineSet
-98 750 m 0,0,1
 -98 773 -98 773 -83 787.5 c 128,-1,2
 -68 802 -68 802 -44 802 c 256,3,4
 -20 802 -20 802 -5 787 c 128,-1,5
 10 772 10 772 10 748 c 0,6,7
 10 726 10 726 -4.5 710.5 c 128,-1,8
 -19 695 -19 695 -43 695 c 256,9,10
 -67 695 -67 695 -82.5 710.5 c 128,-1,11
 -98 726 -98 726 -98 750 c 0,0,1
-220 900 m 0,12,13
 -179 863 -179 863 -147.5 786 c 128,-1,14
 -116 709 -116 709 -83 587 c 1,15,-1
 -138 587 l 1,16,17
 -162 631 -162 631 -184.5 659 c 128,-1,18
 -207 687 -207 687 -234 703 c 0,19,20
 -256 716 -256 716 -282 720.5 c 128,-1,21
 -308 725 -308 725 -341 725 c 2,22,-1
 -435 725 l 1,23,-1
 -445 735 l 1,24,-1
 -445 794 l 1,25,-1
 -350 794 l 2,26,27
 -313 794 -313 794 -283.5 785.5 c 128,-1,28
 -254 777 -254 777 -228 758 c 0,29,30
 -201 739 -201 739 -178 709 c 128,-1,31
 -155 679 -155 679 -130 634 c 1,32,33
 -157 720 -157 720 -180 768 c 128,-1,34
 -203 816 -203 816 -239 841 c 0,35,36
 -261 857 -261 857 -289 865 c 128,-1,37
 -317 873 -317 873 -355 873 c 2,38,-1
 -436 873 l 1,39,-1
 -446 883 l 1,40,-1
 -446 947 l 1,41,-1
 -364 947 l 2,42,43
 -318 947 -318 947 -284 937.5 c 128,-1,44
 -250 928 -250 928 -220 900 c 0,12,13
EndSplineSet
Ligature2: "'abvs' Above Base Substitutions lookup 10 subtable" aimatraguru tippiguru
Ligature2: "'abvs' Above Base Substitutions lookup 10 subtable" aimatraguru bindiguru
EndChar

StartChar: exclam.guru
Encoding: 33 33 211
Width: 315
Flags: W
LayerCount: 2
Fore
SplineSet
133 195 m 1,0,-1
 104 714 l 1,1,-1
 208 714 l 1,2,-1
 181 195 l 1,3,-1
 133 195 l 1,0,-1
157 -7 m 0,4,5
 135 -7 135 -7 119 6.5 c 128,-1,6
 103 20 103 20 103 54 c 0,7,8
 103 89 103 89 119 101.5 c 128,-1,9
 135 114 135 114 157 114 c 0,10,11
 180 114 180 114 196 101.5 c 128,-1,12
 212 89 212 89 212 54 c 0,13,14
 212 20 212 20 196 6.5 c 128,-1,15
 180 -7 180 -7 157 -7 c 0,4,5
EndSplineSet
EndChar

StartChar: quotedbl.guru
Encoding: 34 34 212
Width: 401
Flags: W
LayerCount: 2
Fore
SplineSet
86 464 m 1,0,-1
 58 714 l 1,1,-1
 159 714 l 1,2,-1
 131 464 l 1,3,-1
 86 464 l 1,0,-1
271 464 m 1,4,-1
 243 714 l 1,5,-1
 344 714 l 1,6,-1
 316 464 l 1,7,-1
 271 464 l 1,4,-1
EndSplineSet
EndChar

StartChar: numbersign.guru
Encoding: 35 35 213
Width: 563
Flags: W
LayerCount: 2
Fore
SplineSet
93 0 m 1,0,-1
 133 211 l 1,1,-1
 29 211 l 1,2,-1
 29 256 l 1,3,-1
 141 256 l 1,4,-1
 180 463 l 1,5,-1
 61 463 l 1,6,-1
 61 509 l 1,7,-1
 189 509 l 1,8,-1
 227 714 l 1,9,-1
 276 714 l 1,10,-1
 238 509 l 1,11,-1
 380 509 l 1,12,-1
 419 714 l 1,13,-1
 467 714 l 1,14,-1
 428 509 l 1,15,-1
 534 509 l 1,16,-1
 534 463 l 1,17,-1
 420 463 l 1,18,-1
 381 256 l 1,19,-1
 502 256 l 1,20,-1
 502 211 l 1,21,-1
 372 211 l 1,22,-1
 333 0 l 1,23,-1
 284 0 l 1,24,-1
 323 211 l 1,25,-1
 181 211 l 1,26,-1
 141 0 l 1,27,-1
 93 0 l 1,0,-1
190 256 m 1,28,-1
 333 256 l 1,29,-1
 372 463 l 1,30,-1
 229 463 l 1,31,-1
 190 256 l 1,28,-1
EndSplineSet
EndChar

StartChar: percent.guru
Encoding: 37 37 214
Width: 896
Flags: W
LayerCount: 2
Fore
SplineSet
209 280 m 0,0,1
 122 280 122 280 84 340.5 c 128,-1,2
 46 401 46 401 46 503 c 0,3,4
 46 604 46 604 84.5 664 c 128,-1,5
 123 724 123 724 210 724 c 0,6,7
 292 724 292 724 332 664 c 128,-1,8
 372 604 372 604 372 503 c 0,9,10
 372 437 372 437 355 386.5 c 128,-1,11
 338 336 338 336 302.5 308 c 128,-1,12
 267 280 267 280 209 280 c 0,0,1
235 0 m 1,13,-1
 603 714 l 1,14,-1
 657 714 l 1,15,-1
 289 0 l 1,16,-1
 235 0 l 1,13,-1
208 318 m 0,17,18
 244 318 244 318 264.5 341.5 c 128,-1,19
 285 365 285 365 294 406.5 c 128,-1,20
 303 448 303 448 303 503 c 0,21,22
 303 592 303 592 281 639 c 128,-1,23
 259 686 259 686 209 686 c 0,24,25
 174 686 174 686 153 662.5 c 128,-1,26
 132 639 132 639 123 598 c 128,-1,27
 114 557 114 557 114 503 c 0,28,29
 114 415 114 415 136.5 366.5 c 128,-1,30
 159 318 159 318 208 318 c 0,17,18
687 -10 m 0,31,32
 600 -10 600 -10 562 50.5 c 128,-1,33
 524 111 524 111 524 213 c 0,34,35
 524 314 524 314 562.5 374 c 128,-1,36
 601 434 601 434 688 434 c 0,37,38
 770 434 770 434 810 374 c 128,-1,39
 850 314 850 314 850 213 c 0,40,41
 850 147 850 147 833 96.5 c 128,-1,42
 816 46 816 46 780.5 18 c 128,-1,43
 745 -10 745 -10 687 -10 c 0,31,32
686 28 m 0,44,45
 722 28 722 28 742.5 51.5 c 128,-1,46
 763 75 763 75 772 116.5 c 128,-1,47
 781 158 781 158 781 213 c 0,48,49
 781 302 781 302 759 349 c 128,-1,50
 737 396 737 396 687 396 c 0,51,52
 652 396 652 396 631 372.5 c 128,-1,53
 610 349 610 349 601 308 c 128,-1,54
 592 267 592 267 592 213 c 0,55,56
 592 125 592 125 614.5 76.5 c 128,-1,57
 637 28 637 28 686 28 c 0,44,45
EndSplineSet
EndChar

StartChar: quotesingle.guru
Encoding: 39 39 215
Width: 216
Flags: W
LayerCount: 2
Fore
SplineSet
86 464 m 1,0,-1
 58 714 l 1,1,-1
 159 714 l 1,2,-1
 131 464 l 1,3,-1
 86 464 l 1,0,-1
EndSplineSet
EndChar

StartChar: parenleft.guru
Encoding: 40 40 216
Width: 342
Flags: W
LayerCount: 2
Fore
SplineSet
310 -127 m 1,0,1
 220 -91 220 -91 164 -33.5 c 128,-1,2
 108 24 108 24 82.5 110 c 128,-1,3
 57 196 57 196 57 317 c 256,4,5
 57 438 57 438 82.5 523.5 c 128,-1,6
 108 609 108 609 164 666.5 c 128,-1,7
 220 724 220 724 310 759 c 1,8,-1
 310 713 l 1,9,10
 259 688 259 688 228 645 c 128,-1,11
 197 602 197 602 181 548.5 c 128,-1,12
 165 495 165 495 160 435.5 c 128,-1,13
 155 376 155 376 155 317 c 0,14,15
 155 257 155 257 160.5 198 c 128,-1,16
 166 139 166 139 181.5 85.5 c 128,-1,17
 197 32 197 32 228 -11 c 128,-1,18
 259 -54 259 -54 310 -82 c 1,19,-1
 310 -127 l 1,0,1
EndSplineSet
EndChar

StartChar: parenright.guru
Encoding: 41 41 217
Width: 342
Flags: W
LayerCount: 2
Fore
SplineSet
47 -127 m 1,0,-1
 47 -82 l 1,1,2
 98 -54 98 -54 129 -11 c 128,-1,3
 160 32 160 32 176 85.5 c 128,-1,4
 192 139 192 139 197.5 198 c 128,-1,5
 203 257 203 257 203 317 c 0,6,7
 203 376 203 376 198 435.5 c 128,-1,8
 193 495 193 495 177 548.5 c 128,-1,9
 161 602 161 602 130 645 c 128,-1,10
 99 688 99 688 47 713 c 1,11,-1
 47 759 l 1,12,13
 138 724 138 724 193.5 666.5 c 128,-1,14
 249 609 249 609 274.5 523.5 c 128,-1,15
 300 438 300 438 300 317 c 256,16,17
 300 196 300 196 274.5 110 c 128,-1,18
 249 24 249 24 193.5 -33.5 c 128,-1,19
 138 -91 138 -91 47 -127 c 1,0,-1
EndSplineSet
EndChar

StartChar: asterisk.guru
Encoding: 42 42 218
Width: 453
Flags: W
LayerCount: 2
Fore
SplineSet
188 367 m 1,0,-1
 211 539 l 1,1,-1
 73 441 l 1,2,-1
 41 510 l 1,3,-1
 194 565 l 1,4,-1
 41 617 l 1,5,-1
 73 689 l 1,6,-1
 212 589 l 1,7,-1
 188 760 l 1,8,-1
 266 760 l 1,9,-1
 242 590 l 1,10,-1
 381 687 l 1,11,-1
 412 616 l 1,12,-1
 260 565 l 1,13,-1
 412 511 l 1,14,-1
 381 443 l 1,15,-1
 242 538 l 1,16,-1
 266 367 l 1,17,-1
 188 367 l 1,0,-1
EndSplineSet
EndChar

StartChar: plus.guru
Encoding: 43 43 219
Width: 563
Flags: W
LayerCount: 2
Fore
SplineSet
257 140 m 1,0,-1
 257 333 l 1,1,-1
 63 333 l 1,2,-1
 63 381 l 1,3,-1
 257 381 l 1,4,-1
 257 575 l 1,5,-1
 305 575 l 1,6,-1
 305 381 l 1,7,-1
 500 381 l 1,8,-1
 500 333 l 1,9,-1
 305 333 l 1,10,-1
 305 140 l 1,11,-1
 257 140 l 1,0,-1
EndSplineSet
EndChar

StartChar: comma.guru
Encoding: 44 44 220
Width: 246
Flags: W
LayerCount: 2
Fore
SplineSet
40 -154 m 1,0,-1
 40 -117 l 1,1,2
 69 -108 69 -108 87 -93.5 c 128,-1,3
 105 -79 105 -79 113.5 -61.5 c 128,-1,4
 122 -44 122 -44 122 -28 c 0,5,6
 122 -15 122 -15 113.5 -6.5 c 128,-1,7
 105 2 105 2 93.5 10.5 c 128,-1,8
 82 19 82 19 73.5 31 c 128,-1,9
 65 43 65 43 65 62 c 0,10,11
 65 85 65 85 78.5 98 c 128,-1,12
 92 111 92 111 114 111 c 0,13,14
 146 111 146 111 164.5 87.5 c 128,-1,15
 183 64 183 64 183 17 c 0,16,17
 183 -38 183 -38 150.5 -84.5 c 128,-1,18
 118 -131 118 -131 40 -154 c 1,0,-1
EndSplineSet
EndChar

StartChar: hyphen.guru
Encoding: 45 45 221
Width: 310
Flags: W
LayerCount: 2
Fore
SplineSet
25 239 m 1,0,-1
 25 306 l 1,1,-1
 285 306 l 1,2,-1
 285 239 l 1,3,-1
 25 239 l 1,0,-1
EndSplineSet
EndChar

StartChar: hyphen1.guru
Encoding: 8208 8208 222
Width: 310
Flags: W
LayerCount: 2
Fore
SplineSet
25 239 m 1,0,-1
 25 306 l 1,1,-1
 285 306 l 1,2,-1
 285 239 l 1,3,-1
 25 239 l 1,0,-1
EndSplineSet
EndChar

StartChar: period.guru
Encoding: 46 46 223
Width: 246
Flags: W
LayerCount: 2
Fore
SplineSet
123 -7 m 4,0,1
 101 -7 101 -7 84.5 6 c 132,-1,2
 68 19 68 19 68 53 c 260,3,4
 68 87 68 87 84.5 99 c 132,-1,5
 101 111 101 111 123 111 c 4,6,7
 146 111 146 111 162.5 99 c 132,-1,8
 179 87 179 87 179 53 c 260,9,10
 179 19 179 19 162.5 6 c 132,-1,11
 146 -7 146 -7 123 -7 c 4,0,1
EndSplineSet
EndChar

StartChar: slash.guru
Encoding: 47 47 224
Width: 288
Flags: W
LayerCount: 2
Fore
SplineSet
0 -121 m 1,0,-1
 239 760 l 1,1,-1
 288 760 l 1,2,-1
 50 -121 l 1,3,-1
 0 -121 l 1,0,-1
EndSplineSet
EndChar

StartChar: zero.guru
Encoding: 48 48 225
Width: 563
Flags: W
LayerCount: 2
Fore
SplineSet
282 -10 m 0,0,1
 198 -10 198 -10 146.5 32 c 128,-1,2
 95 74 95 74 71.5 156 c 128,-1,3
 48 238 48 238 48 359 c 0,4,5
 48 477 48 477 71 558 c 128,-1,6
 94 639 94 639 146 681.5 c 128,-1,7
 198 724 198 724 283 724 c 0,8,9
 364 724 364 724 415 682.5 c 128,-1,10
 466 641 466 641 490.5 559.5 c 128,-1,11
 515 478 515 478 515 358 c 0,12,13
 515 240 515 240 490.5 158 c 128,-1,14
 466 76 466 76 415 33 c 128,-1,15
 364 -10 364 -10 282 -10 c 0,0,1
281 34 m 0,16,17
 333 34 333 34 364 71 c 128,-1,18
 395 108 395 108 408.5 180 c 128,-1,19
 422 252 422 252 422 358 c 256,20,21
 422 464 422 464 409.5 535.5 c 128,-1,22
 397 607 397 607 366.5 643.5 c 128,-1,23
 336 680 336 680 282 680 c 0,24,25
 227 680 227 680 196.5 642.5 c 128,-1,26
 166 605 166 605 153.5 533 c 128,-1,27
 141 461 141 461 141 358 c 0,28,29
 141 250 141 250 154.5 178 c 128,-1,30
 168 106 168 106 199 70 c 128,-1,31
 230 34 230 34 281 34 c 0,16,17
EndSplineSet
EndChar

StartChar: one.guru
Encoding: 49 49 226
Width: 563
Flags: W
LayerCount: 2
Fore
SplineSet
109 0 m 1,0,-1
 109 38 l 1,1,-1
 207 38 l 2,2,3
 229 38 229 38 240 44 c 128,-1,4
 251 50 251 50 255 66 c 128,-1,5
 259 82 259 82 259 113 c 2,6,-1
 259 647 l 1,7,8
 214 589 214 589 178 562 c 128,-1,9
 142 535 142 535 109 535 c 0,10,11
 88 535 88 535 76.5 548 c 128,-1,12
 65 561 65 561 65 582 c 1,13,14
 108 587 108 587 144.5 608 c 128,-1,15
 181 629 181 629 227 671 c 2,16,-1
 279 718 l 1,17,-1
 349 718 l 1,18,-1
 349 113 l 2,19,20
 349 85 349 85 353 68.5 c 128,-1,21
 357 52 357 52 368.5 45 c 128,-1,22
 380 38 380 38 402 38 c 2,23,-1
 492 38 l 1,24,-1
 492 0 l 1,25,-1
 109 0 l 1,0,-1
EndSplineSet
EndChar

StartChar: two.guru
Encoding: 50 50 227
Width: 563
Flags: W
LayerCount: 2
Fore
SplineSet
47 0 m 1,0,-1
 47 59 l 1,1,-1
 228 259 l 2,2,3
 273 309 273 309 302.5 345.5 c 128,-1,4
 332 382 332 382 349 413 c 128,-1,5
 366 444 366 444 373 475 c 128,-1,6
 380 506 380 506 380 543 c 0,7,8
 380 582 380 582 367.5 613.5 c 128,-1,9
 355 645 355 645 328.5 663.5 c 128,-1,10
 302 682 302 682 258 682 c 0,11,12
 219 682 219 682 190.5 666 c 128,-1,13
 162 650 162 650 147 616 c 128,-1,14
 132 582 132 582 132 528 c 1,15,16
 113 528 113 528 96 534 c 128,-1,17
 79 540 79 540 69 554.5 c 128,-1,18
 59 569 59 569 59 592 c 0,19,20
 59 620 59 620 80.5 650.5 c 128,-1,21
 102 681 102 681 146 702.5 c 128,-1,22
 190 724 190 724 258 724 c 0,23,24
 332 724 332 724 379.5 699.5 c 128,-1,25
 427 675 427 675 449.5 634 c 128,-1,26
 472 593 472 593 472 544 c 0,27,28
 472 513 472 513 466 485 c 128,-1,29
 460 457 460 457 445.5 429.5 c 128,-1,30
 431 402 431 402 406 370.5 c 128,-1,31
 381 339 381 339 342.5 300.5 c 128,-1,32
 304 262 304 262 251 213 c 1,33,-1
 119 68 l 1,34,-1
 384 68 l 2,35,36
 416 68 416 68 431 82 c 128,-1,37
 446 96 446 96 453 136 c 2,38,-1
 459 171 l 1,39,-1
 499 171 l 1,40,-1
 494 0 l 1,41,-1
 47 0 l 1,0,-1
EndSplineSet
EndChar

StartChar: three.guru
Encoding: 51 51 228
Width: 563
Flags: W
LayerCount: 2
Fore
SplineSet
252 -9 m 0,0,1
 180 -9 180 -9 135 8 c 128,-1,2
 90 25 90 25 69 52.5 c 128,-1,3
 48 80 48 80 48 112 c 0,4,5
 48 141 48 141 65 154 c 128,-1,6
 82 167 82 167 102 167 c 1,7,8
 102 106 102 106 139 72 c 128,-1,9
 176 38 176 38 248 38 c 0,10,11
 292 38 292 38 327 54 c 128,-1,12
 362 70 362 70 382 105.5 c 128,-1,13
 402 141 402 141 402 197 c 0,14,15
 402 268 402 268 357 309.5 c 128,-1,16
 312 351 312 351 217 351 c 2,17,-1
 173 351 l 1,18,-1
 173 394 l 1,19,-1
 218 394 l 2,20,21
 270 394 270 394 305 413 c 128,-1,22
 340 432 340 432 358.5 467.5 c 128,-1,23
 377 503 377 503 377 552 c 0,24,25
 377 613 377 613 345 647.5 c 128,-1,26
 313 682 313 682 260 682 c 0,27,28
 220 682 220 682 192.5 663 c 128,-1,29
 165 644 165 644 151 612 c 128,-1,30
 137 580 137 580 136 540 c 1,31,32
 104 540 104 540 85.5 554 c 128,-1,33
 67 568 67 568 67 598 c 0,34,35
 67 627 67 627 88 656 c 128,-1,36
 109 685 109 685 153 704.5 c 128,-1,37
 197 724 197 724 264 724 c 0,38,39
 360 724 360 724 415 679.5 c 128,-1,40
 470 635 470 635 470 557 c 0,41,42
 470 504 470 504 448 468.5 c 128,-1,43
 426 433 426 433 392 411.5 c 128,-1,44
 358 390 358 390 320 378 c 1,45,46
 362 372 362 372 402 352 c 128,-1,47
 442 332 442 332 468.5 294.5 c 128,-1,48
 495 257 495 257 495 196 c 0,49,50
 495 124 495 124 462 79 c 128,-1,51
 429 34 429 34 374 12.5 c 128,-1,52
 319 -9 319 -9 252 -9 c 0,0,1
EndSplineSet
EndChar

StartChar: four.guru
Encoding: 52 52 229
Width: 563
Flags: W
LayerCount: 2
Fore
SplineSet
223 0 m 1,0,-1
 223 36 l 1,1,-1
 266 36 l 2,2,3
 290 36 290 36 304.5 41.5 c 128,-1,4
 319 47 319 47 325.5 65 c 128,-1,5
 332 83 332 83 332 118 c 2,6,-1
 332 196 l 1,7,-1
 19 196 l 1,8,-1
 19 237 l 1,9,-1
 336 714 l 1,10,-1
 421 714 l 1,11,-1
 421 241 l 1,12,-1
 542 241 l 1,13,-1
 542 196 l 1,14,-1
 421 196 l 1,15,-1
 421 118 l 2,16,17
 421 83 421 83 428 65 c 128,-1,18
 435 47 435 47 449.5 41.5 c 128,-1,19
 464 36 464 36 488 36 c 2,20,-1
 516 36 l 1,21,-1
 516 0 l 1,22,-1
 223 0 l 1,0,-1
73 241 m 1,23,-1
 333 241 l 1,24,-1
 333 437 l 2,25,26
 333 466 333 466 333.5 504.5 c 128,-1,27
 334 543 334 543 335 582 c 128,-1,28
 336 621 336 621 337 652 c 1,29,30
 332 642 332 642 320 621 c 128,-1,31
 308 600 308 600 292.5 575 c 128,-1,32
 277 550 277 550 262.5 527.5 c 128,-1,33
 248 505 248 505 238 491 c 2,34,-1
 73 241 l 1,23,-1
EndSplineSet
EndChar

StartChar: five.guru
Encoding: 53 53 230
Width: 563
Flags: W
LayerCount: 2
Fore
SplineSet
249 -10 m 0,0,1
 155 -10 155 -10 106.5 25 c 128,-1,2
 58 60 58 60 58 106 c 0,3,4
 58 133 58 133 73.5 144.5 c 128,-1,5
 89 156 89 156 109 156 c 1,6,7
 109 121 109 121 125.5 93.5 c 128,-1,8
 142 66 142 66 171.5 51 c 128,-1,9
 201 36 201 36 239 36 c 0,10,11
 288 36 288 36 324 56 c 128,-1,12
 360 76 360 76 380 116.5 c 128,-1,13
 400 157 400 157 400 218 c 0,14,15
 400 301 400 301 356.5 342.5 c 128,-1,16
 313 384 313 384 241 384 c 0,17,18
 205 384 205 384 174.5 378 c 128,-1,19
 144 372 144 372 118 361 c 1,20,-1
 91 374 l 1,21,-1
 121 714 l 1,22,-1
 460 714 l 1,23,-1
 464 566 l 1,24,-1
 425 566 l 1,25,-1
 420 599 l 2,26,27
 417 620 417 620 412.5 629.5 c 128,-1,28
 408 639 408 639 397.5 642 c 128,-1,29
 387 645 387 645 365 645 c 2,30,-1
 160 645 l 1,31,-1
 139 410 l 1,32,33
 154 416 154 416 172.5 420 c 128,-1,34
 191 424 191 424 212.5 426.5 c 128,-1,35
 234 429 234 429 257 429 c 0,36,37
 325 429 325 429 378 405.5 c 128,-1,38
 431 382 431 382 461.5 335.5 c 128,-1,39
 492 289 492 289 492 219 c 0,40,41
 492 171 492 171 479 133.5 c 128,-1,42
 466 96 466 96 443 69 c 128,-1,43
 420 42 420 42 389 24.5 c 128,-1,44
 358 7 358 7 322.5 -1.5 c 128,-1,45
 287 -10 287 -10 249 -10 c 0,0,1
EndSplineSet
EndChar

StartChar: six.guru
Encoding: 54 54 231
Width: 563
Flags: W
LayerCount: 2
Fore
SplineSet
295 -10 m 0,0,1
 188 -10 188 -10 126 74.5 c 128,-1,2
 64 159 64 159 64 334 c 0,3,4
 64 469 64 469 96 555 c 128,-1,5
 128 641 128 641 186 682.5 c 128,-1,6
 244 724 244 724 322 724 c 0,7,8
 381 724 381 724 416.5 708.5 c 128,-1,9
 452 693 452 693 468.5 669 c 128,-1,10
 485 645 485 645 485 618 c 0,11,12
 485 594 485 594 470 577.5 c 128,-1,13
 455 561 455 561 419 561 c 1,14,15
 419 599 419 599 408 626 c 128,-1,16
 397 653 397 653 375 667.5 c 128,-1,17
 353 682 353 682 319 682 c 0,18,19
 269 682 269 682 231 648.5 c 128,-1,20
 193 615 193 615 172 547 c 128,-1,21
 151 479 151 479 149 377 c 1,22,23
 181 400 181 400 221.5 416.5 c 128,-1,24
 262 433 262 433 313 433 c 0,25,26
 400 433 400 433 454.5 379.5 c 128,-1,27
 509 326 509 326 509 225 c 0,28,29
 509 120 509 120 456 55 c 128,-1,30
 403 -10 403 -10 295 -10 c 0,0,1
298 34 m 0,31,32
 340 34 340 34 368 55.5 c 128,-1,33
 396 77 396 77 410 118.5 c 128,-1,34
 424 160 424 160 424 221 c 0,35,36
 424 301 424 301 391 344.5 c 128,-1,37
 358 388 358 388 295 388 c 0,38,39
 263 388 263 388 235 378.5 c 128,-1,40
 207 369 207 369 185.5 355 c 128,-1,41
 164 341 164 341 149 329 c 1,42,43
 151 181 151 181 188 107.5 c 128,-1,44
 225 34 225 34 298 34 c 0,31,32
EndSplineSet
EndChar

StartChar: seven.guru
Encoding: 55 55 232
Width: 563
Flags: W
LayerCount: 2
Fore
SplineSet
168 0 m 1,0,-1
 447 645 l 1,1,-1
 154 645 l 2,2,3
 127 645 127 645 115 635 c 128,-1,4
 103 625 103 625 100 593 c 2,5,-1
 95 535 l 1,6,-1
 54 535 l 1,7,-1
 59 714 l 1,8,-1
 506 714 l 1,9,-1
 506 675 l 1,10,-1
 231 0 l 1,11,-1
 168 0 l 1,0,-1
EndSplineSet
EndChar

StartChar: eight.guru
Encoding: 56 56 233
Width: 563
Flags: W
LayerCount: 2
Fore
SplineSet
277 -10 m 0,0,1
 200 -10 200 -10 149.5 13 c 128,-1,2
 99 36 99 36 75 77 c 128,-1,3
 51 118 51 118 51 171 c 0,4,5
 51 223 51 223 72 260 c 128,-1,6
 93 297 93 297 131 324 c 128,-1,7
 169 351 169 351 220 369 c 1,8,9
 176 391 176 391 143.5 415 c 128,-1,10
 111 439 111 439 93.5 472 c 128,-1,11
 76 505 76 505 76 552 c 0,12,13
 76 603 76 603 100 641.5 c 128,-1,14
 124 680 124 680 171 702 c 128,-1,15
 218 724 218 724 285 724 c 0,16,17
 354 724 354 724 399 702 c 128,-1,18
 444 680 444 680 466.5 643.5 c 128,-1,19
 489 607 489 607 489 562 c 0,20,21
 489 495 489 495 453 453.5 c 128,-1,22
 417 412 417 412 346 382 c 1,23,24
 406 353 406 353 442.5 324.5 c 128,-1,25
 479 296 479 296 495.5 260 c 128,-1,26
 512 224 512 224 512 174 c 0,27,28
 512 88 512 88 449.5 39 c 128,-1,29
 387 -10 387 -10 277 -10 c 0,0,1
297 404 m 1,30,31
 354 428 354 428 381.5 464.5 c 128,-1,32
 409 501 409 501 409 560 c 0,33,34
 409 593 409 593 396 621 c 128,-1,35
 383 649 383 649 356 666 c 128,-1,36
 329 683 329 683 285 683 c 0,37,38
 227 683 227 683 194.5 650 c 128,-1,39
 162 617 162 617 162 561 c 0,40,41
 162 520 162 520 178 492 c 128,-1,42
 194 464 194 464 224 443.5 c 128,-1,43
 254 423 254 423 297 404 c 1,30,31
279 32 m 0,44,45
 344 32 344 32 383.5 65 c 128,-1,46
 423 98 423 98 423 165 c 0,47,48
 423 202 423 202 408.5 233 c 128,-1,49
 394 264 394 264 360 291.5 c 128,-1,50
 326 319 326 319 267 345 c 1,51,52
 200 319 200 319 166.5 275.5 c 128,-1,53
 133 232 133 232 133 175 c 0,54,55
 133 105 133 105 171.5 68.5 c 128,-1,56
 210 32 210 32 279 32 c 0,44,45
EndSplineSet
EndChar

StartChar: nine.guru
Encoding: 57 57 234
Width: 563
Flags: W
LayerCount: 2
Fore
SplineSet
229 -10 m 0,0,1
 153 -10 153 -10 118.5 19 c 128,-1,2
 84 48 84 48 84 82 c 0,3,4
 84 96 84 96 91.5 108.5 c 128,-1,5
 99 121 99 121 118 125 c 1,6,7
 135 79 135 79 162 55.5 c 128,-1,8
 189 32 189 32 238 32 c 0,9,10
 324 32 324 32 368 111 c 128,-1,11
 412 190 412 190 414 347 c 1,12,13
 388 322 388 322 350.5 302 c 128,-1,14
 313 282 313 282 253 282 c 0,15,16
 189 282 189 282 144.5 308 c 128,-1,17
 100 334 100 334 77 380.5 c 128,-1,18
 54 427 54 427 54 490 c 0,19,20
 54 559 54 559 78 612 c 128,-1,21
 102 665 102 665 149 694.5 c 128,-1,22
 196 724 196 724 264 724 c 0,23,24
 336 724 336 724 389 687.5 c 128,-1,25
 442 651 442 651 470.5 576 c 128,-1,26
 499 501 499 501 499 386 c 0,27,28
 499 261 499 261 472 172 c 128,-1,29
 445 83 445 83 385.5 36.5 c 128,-1,30
 326 -10 326 -10 229 -10 c 0,0,1
272 330 m 0,31,32
 321 330 321 330 353.5 347.5 c 128,-1,33
 386 365 386 365 414 396 c 1,34,35
 414 492 414 492 397.5 555 c 128,-1,36
 381 618 381 618 349 648.5 c 128,-1,37
 317 679 317 679 268 679 c 0,38,39
 223 679 223 679 194.5 655.5 c 128,-1,40
 166 632 166 632 152.5 590 c 128,-1,41
 139 548 139 548 139 492 c 0,42,43
 139 419 139 419 173 374.5 c 128,-1,44
 207 330 207 330 272 330 c 0,31,32
EndSplineSet
EndChar

StartChar: colon.guru
Encoding: 58 58 235
Width: 261
Flags: W
LayerCount: 2
Fore
SplineSet
129 408 m 0,0,1
 107 408 107 408 90 420.5 c 128,-1,2
 73 433 73 433 73 467 c 0,3,4
 73 502 73 502 90 514 c 128,-1,5
 107 526 107 526 129 526 c 0,6,7
 152 526 152 526 168.5 514 c 128,-1,8
 185 502 185 502 185 467 c 0,9,10
 185 433 185 433 168.5 420.5 c 128,-1,11
 152 408 152 408 129 408 c 0,0,1
129 -7 m 0,12,13
 107 -7 107 -7 90 6 c 128,-1,14
 73 19 73 19 73 53 c 256,15,16
 73 87 73 87 90 99 c 128,-1,17
 107 111 107 111 129 111 c 0,18,19
 152 111 152 111 168.5 99 c 128,-1,20
 185 87 185 87 185 53 c 256,21,22
 185 19 185 19 168.5 6 c 128,-1,23
 152 -7 152 -7 129 -7 c 0,12,13
EndSplineSet
EndChar

StartChar: semicolon.guru
Encoding: 59 59 236
Width: 261
Flags: W
LayerCount: 2
Fore
SplineSet
129 408 m 0,0,1
 107 408 107 408 90 420.5 c 128,-1,2
 73 433 73 433 73 467 c 0,3,4
 73 502 73 502 90 514 c 128,-1,5
 107 526 107 526 129 526 c 0,6,7
 152 526 152 526 168.5 514 c 128,-1,8
 185 502 185 502 185 467 c 0,9,10
 185 433 185 433 168.5 420.5 c 128,-1,11
 152 408 152 408 129 408 c 0,0,1
48 -154 m 1,12,-1
 48 -117 l 1,13,14
 77 -108 77 -108 95 -93.5 c 128,-1,15
 113 -79 113 -79 121.5 -62 c 128,-1,16
 130 -45 130 -45 130 -28 c 0,17,18
 130 -15 130 -15 121.5 -6.5 c 128,-1,19
 113 2 113 2 101.5 10.5 c 128,-1,20
 90 19 90 19 81.5 31 c 128,-1,21
 73 43 73 43 73 62 c 0,22,23
 73 85 73 85 86.5 98 c 128,-1,24
 100 111 100 111 122 111 c 0,25,26
 154 111 154 111 172.5 87.5 c 128,-1,27
 191 64 191 64 191 17 c 0,28,29
 191 -38 191 -38 158.5 -84.5 c 128,-1,30
 126 -131 126 -131 48 -154 c 1,12,-1
EndSplineSet
EndChar

StartChar: less.guru
Encoding: 60 60 237
Width: 563
Flags: W
LayerCount: 2
Fore
SplineSet
500 107 m 1,0,-1
 63 340 l 1,1,-1
 63 375 l 1,2,-1
 500 609 l 1,3,-1
 500 556 l 1,4,-1
 128 357 l 1,5,-1
 500 160 l 1,6,-1
 500 107 l 1,0,-1
EndSplineSet
EndChar

StartChar: equal.guru
Encoding: 61 61 238
Width: 563
Flags: W
LayerCount: 2
Fore
SplineSet
63 440 m 1,0,-1
 63 488 l 1,1,-1
 499 488 l 1,2,-1
 499 440 l 1,3,-1
 63 440 l 1,0,-1
63 226 m 1,4,-1
 63 274 l 1,5,-1
 499 274 l 1,6,-1
 499 226 l 1,7,-1
 63 226 l 1,4,-1
EndSplineSet
EndChar

StartChar: greater.guru
Encoding: 62 62 239
Width: 563
Flags: W
LayerCount: 2
Fore
SplineSet
63 107 m 1,0,-1
 63 160 l 1,1,-1
 433 357 l 1,2,-1
 63 556 l 1,3,-1
 63 609 l 1,4,-1
 500 375 l 1,5,-1
 500 340 l 1,6,-1
 63 107 l 1,0,-1
EndSplineSet
EndChar

StartChar: question.guru
Encoding: 63 63 240
Width: 471
Flags: W
LayerCount: 2
Fore
SplineSet
196 195 m 1,0,-1
 185 342 l 1,1,2
 241 369 241 369 274 399 c 128,-1,3
 307 429 307 429 322 466.5 c 128,-1,4
 337 504 337 504 337 552 c 0,5,6
 337 611 337 611 307.5 646.5 c 128,-1,7
 278 682 278 682 225 682 c 0,8,9
 183 682 183 682 158 664 c 128,-1,10
 133 646 133 646 122 614.5 c 128,-1,11
 111 583 111 583 111 544 c 1,12,13
 73 544 73 544 53 557.5 c 128,-1,14
 33 571 33 571 33 603 c 0,15,16
 33 621 33 621 43.5 641.5 c 128,-1,17
 54 662 54 662 76 681 c 128,-1,18
 98 700 98 700 135 712 c 128,-1,19
 172 724 172 724 224 724 c 0,20,21
 288 724 288 724 334.5 701.5 c 128,-1,22
 381 679 381 679 406.5 639 c 128,-1,23
 432 599 432 599 432 546 c 0,24,25
 432 492 432 492 412.5 452 c 128,-1,26
 393 412 393 412 354 381 c 128,-1,27
 315 350 315 350 254 323 c 1,28,-1
 243 195 l 1,29,-1
 196 195 l 1,0,-1
218 -7 m 256,30,31
 196 -7 196 -7 179.5 6.5 c 128,-1,32
 163 20 163 20 163 54 c 0,33,34
 163 89 163 89 179.5 101.5 c 128,-1,35
 196 114 196 114 218 114 c 256,36,37
 240 114 240 114 256 101.5 c 128,-1,38
 272 89 272 89 272 54 c 0,39,40
 272 20 272 20 256 6.5 c 128,-1,41
 240 -7 240 -7 218 -7 c 256,30,31
EndSplineSet
EndChar

StartChar: bracketleft.guru
Encoding: 91 91 241
Width: 356
Flags: W
LayerCount: 2
Fore
SplineSet
100 -128 m 1,0,-1
 100 760 l 1,1,-1
 319 760 l 1,2,-1
 319 724 l 1,3,-1
 260 724 l 2,4,5
 236 724 236 724 221 718.5 c 128,-1,6
 206 713 206 713 199.5 695.5 c 128,-1,7
 193 678 193 678 193 642 c 2,8,-1
 193 -10 l 2,9,10
 193 -45 193 -45 199.5 -63 c 128,-1,11
 206 -81 206 -81 221 -86.5 c 128,-1,12
 236 -92 236 -92 260 -92 c 2,13,-1
 319 -92 l 1,14,-1
 319 -128 l 1,15,-1
 100 -128 l 1,0,-1
EndSplineSet
EndChar

StartChar: backslash.guru
Encoding: 92 92 242
Width: 288
Flags: W
LayerCount: 2
Fore
SplineSet
238 -121 m 1,0,-1
 0 760 l 1,1,-1
 50 760 l 1,2,-1
 288 -121 l 1,3,-1
 238 -121 l 1,0,-1
EndSplineSet
EndChar

StartChar: bracketright.guru
Encoding: 93 93 243
Width: 356
Flags: W
LayerCount: 2
Fore
SplineSet
37 -128 m 1,0,-1
 37 -92 l 1,1,-1
 97 -92 l 2,2,3
 121 -92 121 -92 135.5 -86.5 c 128,-1,4
 150 -81 150 -81 156.5 -63 c 128,-1,5
 163 -45 163 -45 163 -10 c 2,6,-1
 163 642 l 2,7,8
 163 678 163 678 156.5 695.5 c 128,-1,9
 150 713 150 713 135.5 718.5 c 128,-1,10
 121 724 121 724 97 724 c 2,11,-1
 37 724 l 1,12,-1
 37 760 l 1,13,-1
 256 760 l 1,14,-1
 256 -128 l 1,15,-1
 37 -128 l 1,0,-1
EndSplineSet
EndChar

StartChar: asciicircum.guru
Encoding: 94 94 244
Width: 563
Flags: W
LayerCount: 2
Fore
SplineSet
49 259 m 1,0,-1
 263 714 l 1,1,-1
 297 714 l 1,2,-1
 513 259 l 1,3,-1
 460 259 l 1,4,-1
 280 644 l 1,5,-1
 102 259 l 1,6,-1
 49 259 l 1,0,-1
EndSplineSet
EndChar

StartChar: underscore.guru
Encoding: 95 95 245
Width: 459
Flags: W
LayerCount: 2
Fore
SplineSet
-5 -122 m 1,0,-1
 -5 -83 l 1,1,-1
 464 -83 l 1,2,-1
 464 -122 l 1,3,-1
 -5 -122 l 1,0,-1
EndSplineSet
EndChar

StartChar: braceleft.guru
Encoding: 123 123 246
Width: 427
Flags: W
LayerCount: 2
Fore
SplineSet
312 -128 m 2,0,1
 243 -128 243 -128 206.5 -90 c 128,-1,2
 170 -52 170 -52 170 16 c 2,3,-1
 170 181 l 2,4,5
 170 227 170 227 154.5 250 c 128,-1,6
 139 273 139 273 112.5 282.5 c 128,-1,7
 86 292 86 292 52 294 c 1,8,-1
 52 338 l 1,9,10
 86 341 86 341 112.5 350 c 128,-1,11
 139 359 139 359 154.5 382.5 c 128,-1,12
 170 406 170 406 170 451 c 2,13,-1
 170 617 l 2,14,15
 170 685 170 685 206.5 722.5 c 128,-1,16
 243 760 243 760 312 760 c 2,17,-1
 376 760 l 1,18,-1
 376 721 l 1,19,-1
 343 721 l 2,20,21
 298 721 298 721 281.5 694.5 c 128,-1,22
 265 668 265 668 265 616 c 2,23,-1
 265 448 l 2,24,25
 265 393 265 393 238.5 362 c 128,-1,26
 212 331 212 331 161 320 c 1,27,-1
 161 313 l 1,28,29
 211 302 211 302 238 271 c 128,-1,30
 265 240 265 240 265 185 c 2,31,-1
 265 16 l 2,32,33
 265 -35 265 -35 281.5 -62 c 128,-1,34
 298 -89 298 -89 343 -89 c 2,35,-1
 376 -89 l 1,36,-1
 376 -128 l 1,37,-1
 312 -128 l 2,0,1
EndSplineSet
EndChar

StartChar: bar.guru
Encoding: 124 124 247
Width: 563
Flags: W
LayerCount: 2
Fore
SplineSet
257 -240 m 1,0,-1
 257 760 l 1,1,-1
 306 760 l 1,2,-1
 306 -240 l 1,3,-1
 257 -240 l 1,0,-1
EndSplineSet
EndChar

StartChar: braceright.guru
Encoding: 125 125 248
Width: 427
Flags: W
LayerCount: 2
Fore
SplineSet
52 -128 m 1,0,-1
 52 -89 l 1,1,-1
 85 -89 l 2,2,3
 130 -89 130 -89 146.5 -62 c 128,-1,4
 163 -35 163 -35 163 16 c 2,5,-1
 163 185 l 2,6,7
 163 240 163 240 190 271 c 128,-1,8
 217 302 217 302 267 313 c 1,9,-1
 267 320 l 1,10,11
 216 331 216 331 189.5 362 c 128,-1,12
 163 393 163 393 163 448 c 2,13,-1
 163 616 l 2,14,15
 163 668 163 668 146.5 694.5 c 128,-1,16
 130 721 130 721 85 721 c 2,17,-1
 52 721 l 1,18,-1
 52 760 l 1,19,-1
 116 760 l 2,20,21
 185 760 185 760 221.5 722.5 c 128,-1,22
 258 685 258 685 258 617 c 2,23,-1
 258 451 l 2,24,25
 258 406 258 406 273.5 382.5 c 128,-1,26
 289 359 289 359 316 350 c 128,-1,27
 343 341 343 341 376 338 c 1,28,-1
 376 294 l 1,29,30
 343 292 343 292 316 282.5 c 128,-1,31
 289 273 289 273 273.5 250 c 128,-1,32
 258 227 258 227 258 181 c 2,33,-1
 258 16 l 2,34,35
 258 -52 258 -52 221.5 -90 c 128,-1,36
 185 -128 185 -128 116 -128 c 2,37,-1
 52 -128 l 1,0,-1
EndSplineSet
EndChar

StartChar: asciitilde.guru
Encoding: 126 126 249
Width: 563
Flags: W
LayerCount: 2
Fore
SplineSet
52 269 m 1,0,1
 56 302 56 302 62.5 333 c 128,-1,2
 69 364 69 364 82 389 c 128,-1,3
 95 414 95 414 117.5 429 c 128,-1,4
 140 444 140 444 175 444 c 0,5,6
 200 444 200 444 219 436 c 128,-1,7
 238 428 238 428 257 413 c 128,-1,8
 276 398 276 398 299 376 c 0,9,10
 327 351 327 351 348.5 335 c 128,-1,11
 370 319 370 319 392 319 c 256,12,13
 414 319 414 319 426.5 335 c 128,-1,14
 439 351 439 351 445.5 379 c 128,-1,15
 452 407 452 407 457 444 c 1,16,-1
 510 444 l 1,17,18
 507 412 507 412 500.5 380.5 c 128,-1,19
 494 349 494 349 481.5 324 c 128,-1,20
 469 299 469 299 447 284 c 128,-1,21
 425 269 425 269 392 269 c 0,22,23
 368 269 368 269 348.5 276.5 c 128,-1,24
 329 284 329 284 310 298.5 c 128,-1,25
 291 313 291 313 268 333 c 0,26,27
 252 348 252 348 237.5 362 c 128,-1,28
 223 376 223 376 208 385 c 128,-1,29
 193 394 193 394 173 394 c 0,30,31
 141 394 141 394 126.5 364 c 128,-1,32
 112 334 112 334 104 269 c 1,33,-1
 52 269 l 1,0,1
EndSplineSet
EndChar

StartChar: endash.guru
Encoding: 8211 8211 251
Width: 500
Flags: W
LayerCount: 2
Fore
SplineSet
-5 247 m 1,0,-1
 -5 295 l 1,1,-1
 505 295 l 1,2,-1
 505 247 l 1,3,-1
 -5 247 l 1,0,-1
EndSplineSet
EndChar

StartChar: emdash.guru
Encoding: 8212 8212 252
Width: 1000
Flags: W
LayerCount: 2
Fore
SplineSet
-5 247 m 1,0,-1
 -5 295 l 1,1,-1
 1005 295 l 1,2,-1
 1005 247 l 1,3,-1
 -5 247 l 1,0,-1
EndSplineSet
EndChar

StartChar: quoteleft.guru
Encoding: 8216 8216 253
Width: 248
Flags: W
LayerCount: 2
Fore
SplineSet
128 444 m 0,0,1
 96 444 96 444 75.5 468.5 c 128,-1,2
 55 493 55 493 55 539 c 0,3,4
 55 595 55 595 89 643.5 c 128,-1,5
 123 692 123 692 201 714 c 1,6,-1
 201 678 l 1,7,8
 173 669 173 669 154 654 c 128,-1,9
 135 639 135 639 125.5 621.5 c 128,-1,10
 116 604 116 604 116 587 c 0,11,12
 116 574 116 574 126 566.5 c 128,-1,13
 136 559 136 559 148.5 551.5 c 128,-1,14
 161 544 161 544 171 531 c 128,-1,15
 181 518 181 518 181 495 c 0,16,17
 181 470 181 470 165.5 457 c 128,-1,18
 150 444 150 444 128 444 c 0,0,1
EndSplineSet
EndChar

StartChar: quoteright.guru
Encoding: 8217 8217 254
Width: 248
Flags: W
LayerCount: 2
Fore
SplineSet
46 445 m 1,0,-1
 46 480 l 1,1,2
 75 490 75 490 94 505 c 128,-1,3
 113 520 113 520 122.5 537.5 c 128,-1,4
 132 555 132 555 132 572 c 0,5,6
 132 585 132 585 122 592.5 c 128,-1,7
 112 600 112 600 99.5 607.5 c 128,-1,8
 87 615 87 615 77 627.5 c 128,-1,9
 67 640 67 640 67 663 c 0,10,11
 67 689 67 689 82.5 701.5 c 128,-1,12
 98 714 98 714 120 714 c 0,13,14
 152 714 152 714 172 690 c 128,-1,15
 192 666 192 666 192 620 c 0,16,17
 192 564 192 564 158.5 515.5 c 128,-1,18
 125 467 125 467 46 445 c 1,0,-1
EndSplineSet
EndChar

StartChar: quotedblleft.guru
Encoding: 8220 8220 255
Width: 427
Flags: W
LayerCount: 2
Fore
SplineSet
128 444 m 0,0,1
 96 444 96 444 75.5 468.5 c 128,-1,2
 55 493 55 493 55 539 c 0,3,4
 55 595 55 595 89 643.5 c 128,-1,5
 123 692 123 692 201 714 c 1,6,-1
 201 678 l 1,7,8
 173 669 173 669 153.5 654 c 128,-1,9
 134 639 134 639 124.5 621.5 c 128,-1,10
 115 604 115 604 115 587 c 0,11,12
 115 574 115 574 125 566.5 c 128,-1,13
 135 559 135 559 147.5 551.5 c 128,-1,14
 160 544 160 544 170 531 c 128,-1,15
 180 518 180 518 180 495 c 0,16,17
 180 470 180 470 165 457 c 128,-1,18
 150 444 150 444 128 444 c 0,0,1
307 444 m 0,19,20
 275 444 275 444 254.5 468.5 c 128,-1,21
 234 493 234 493 234 539 c 0,22,23
 234 595 234 595 268 643.5 c 128,-1,24
 302 692 302 692 380 714 c 1,25,-1
 380 678 l 1,26,27
 352 669 352 669 333 654 c 128,-1,28
 314 639 314 639 304.5 621.5 c 128,-1,29
 295 604 295 604 295 587 c 0,30,31
 295 574 295 574 304.5 566.5 c 128,-1,32
 314 559 314 559 327 551.5 c 128,-1,33
 340 544 340 544 349.5 531 c 128,-1,34
 359 518 359 518 359 495 c 0,35,36
 359 470 359 470 344 457 c 128,-1,37
 329 444 329 444 307 444 c 0,19,20
EndSplineSet
EndChar

StartChar: quotedblright.guru
Encoding: 8221 8221 256
Width: 427
Flags: W
LayerCount: 2
Fore
SplineSet
46 445 m 1,0,-1
 46 480 l 1,1,2
 75 490 75 490 94 505 c 128,-1,3
 113 520 113 520 122.5 537.5 c 128,-1,4
 132 555 132 555 132 572 c 0,5,6
 132 585 132 585 122 592.5 c 128,-1,7
 112 600 112 600 99.5 607.5 c 128,-1,8
 87 615 87 615 77 627.5 c 128,-1,9
 67 640 67 640 67 663 c 0,10,11
 67 689 67 689 82.5 701.5 c 128,-1,12
 98 714 98 714 120 714 c 0,13,14
 152 714 152 714 172 690 c 128,-1,15
 192 666 192 666 192 620 c 0,16,17
 192 564 192 564 158.5 515.5 c 128,-1,18
 125 467 125 467 46 445 c 1,0,-1
226 445 m 1,19,-1
 226 480 l 1,20,21
 254 490 254 490 273 505 c 128,-1,22
 292 520 292 520 301.5 537.5 c 128,-1,23
 311 555 311 555 311 572 c 0,24,25
 311 585 311 585 301 592.5 c 128,-1,26
 291 600 291 600 278.5 607.5 c 128,-1,27
 266 615 266 615 256 627.5 c 128,-1,28
 246 640 246 640 246 663 c 0,29,30
 246 689 246 689 261.5 701.5 c 128,-1,31
 277 714 277 714 299 714 c 0,32,33
 331 714 331 714 351.5 690 c 128,-1,34
 372 666 372 666 372 620 c 0,35,36
 372 564 372 564 338 515.5 c 128,-1,37
 304 467 304 467 226 445 c 1,19,-1
EndSplineSet
EndChar

StartChar: ellipsis.guru
Encoding: 8230 8230 257
Width: 781
Flags: W
LayerCount: 2
Fore
SplineSet
132 -7 m 256,0,1
 109 -7 109 -7 92.5 6 c 128,-1,2
 76 19 76 19 76 53 c 256,3,4
 76 87 76 87 92.5 99 c 128,-1,5
 109 111 109 111 132 111 c 256,6,7
 155 111 155 111 171.5 99 c 128,-1,8
 188 87 188 87 188 53 c 256,9,10
 188 19 188 19 171.5 6 c 128,-1,11
 155 -7 155 -7 132 -7 c 256,0,1
390 -7 m 0,12,13
 368 -7 368 -7 351.5 6 c 128,-1,14
 335 19 335 19 335 53 c 256,15,16
 335 87 335 87 351.5 99 c 128,-1,17
 368 111 368 111 390 111 c 0,18,19
 413 111 413 111 429.5 99 c 128,-1,20
 446 87 446 87 446 53 c 256,21,22
 446 19 446 19 429.5 6 c 128,-1,23
 413 -7 413 -7 390 -7 c 0,12,13
649 -7 m 0,24,25
 627 -7 627 -7 610 6 c 128,-1,26
 593 19 593 19 593 53 c 256,27,28
 593 87 593 87 610 99 c 128,-1,29
 627 111 627 111 649 111 c 0,30,31
 672 111 672 111 688.5 99 c 128,-1,32
 705 87 705 87 705 53 c 256,33,34
 705 19 705 19 688.5 6 c 128,-1,35
 672 -7 672 -7 649 -7 c 0,24,25
EndSplineSet
EndChar

StartChar: multiply.guru
Encoding: 215 215 258
Width: 563
Flags: W
LayerCount: 2
Fore
SplineSet
107 149 m 1,0,-1
 73 183 l 1,1,-1
 246 358 l 1,2,-1
 72 533 l 1,3,-1
 107 567 l 1,4,-1
 281 393 l 1,5,-1
 456 568 l 1,6,-1
 490 533 l 1,7,-1
 315 357 l 1,8,-1
 490 182 l 1,9,-1
 456 149 l 1,10,-1
 281 323 l 1,11,-1
 107 149 l 1,0,-1
EndSplineSet
EndChar

StartChar: divide.guru
Encoding: 247 247 259
Width: 563
Flags: W
LayerCount: 2
Fore
SplineSet
282 488 m 0,0,1
 261 488 261 488 247 500 c 128,-1,2
 233 512 233 512 233 540 c 0,3,4
 233 569 233 569 247 580 c 128,-1,5
 261 591 261 591 282 591 c 0,6,7
 302 591 302 591 316 580 c 128,-1,8
 330 569 330 569 330 540 c 0,9,10
 330 512 330 512 316 500 c 128,-1,11
 302 488 302 488 282 488 c 0,0,1
63 333 m 1,12,-1
 63 381 l 1,13,-1
 500 381 l 1,14,-1
 500 333 l 1,15,-1
 63 333 l 1,12,-1
282 124 m 0,16,17
 261 124 261 124 247 135.5 c 128,-1,18
 233 147 233 147 233 175 c 0,19,20
 233 204 233 204 247 215.5 c 128,-1,21
 261 227 261 227 282 227 c 0,22,23
 302 227 302 227 316 215.5 c 128,-1,24
 330 204 330 204 330 175 c 0,25,26
 330 147 330 147 316 135.5 c 128,-1,27
 302 124 302 124 282 124 c 0,16,17
EndSplineSet
EndChar

StartChar: minus.guru
Encoding: 8722 8722 260
Width: 563
Flags: W
LayerCount: 2
Fore
SplineSet
63 333 m 1,0,-1
 63 381 l 1,1,-1
 500 381 l 1,2,-1
 500 333 l 1,3,-1
 63 333 l 1,0,-1
EndSplineSet
EndChar

StartChar: uni20B9.guru
Encoding: 8377 8377 261
Width: 581
Flags: W
LayerCount: 2
Fore
SplineSet
424 -24 m 2,0,1
 354 -24 354 -24 308.5 1 c 128,-1,2
 263 26 263 26 228 74 c 2,3,-1
 90 266 l 1,4,-1
 91 297 l 1,5,-1
 124 297 l 2,6,7
 218 297 218 297 266 328 c 128,-1,8
 314 359 314 359 318 408 c 1,9,-1
 85 408 l 1,10,-1
 85 449 l 1,11,-1
 319 449 l 1,12,13
 317 472 317 472 308 495 c 128,-1,14
 299 518 299 518 280.5 536.5 c 128,-1,15
 262 555 262 555 231 566 c 128,-1,16
 200 577 200 577 154 577 c 2,17,-1
 75 577 l 1,18,-1
 75 622 l 1,19,-1
 510 622 l 1,20,-1
 510 577 l 1,21,-1
 338 577 l 1,22,23
 362 566 362 566 380 546 c 128,-1,24
 398 526 398 526 408 501 c 128,-1,25
 418 476 418 476 419 449 c 1,26,-1
 510 449 l 1,27,-1
 510 408 l 1,28,-1
 418 408 l 1,29,30
 413 372 413 372 387 339 c 128,-1,31
 361 306 361 306 313 284.5 c 128,-1,32
 265 263 265 263 192 261 c 1,33,-1
 315 97 l 2,34,35
 349 53 349 53 379 33.5 c 128,-1,36
 409 14 409 14 446 14 c 2,37,-1
 464 14 l 1,38,-1
 464 -24 l 1,39,-1
 424 -24 l 2,0,1
EndSplineSet
EndChar

StartChar: uni0964.guru
Encoding: 2404 2404 262
Width: 446
Flags: W
LayerCount: 2
Fore
SplineSet
242 642 m 1,0,-1
 314 605 l 1,1,-1
 314 -28 l 1,2,-1
 304 -33 l 1,3,-1
 232 4 l 1,4,-1
 232 637 l 1,5,-1
 242 642 l 1,0,-1
EndSplineSet
EndChar

StartChar: uni0965.guru
Encoding: 2405 2405 263
Width: 758
Flags: W
LayerCount: 2
Fore
SplineSet
242 642 m 1,0,-1
 314 605 l 1,1,-1
 314 -28 l 1,2,-1
 304 -33 l 1,3,-1
 232 4 l 1,4,-1
 232 637 l 1,5,-1
 242 642 l 1,0,-1
554 642 m 1,6,-1
 626 605 l 1,7,-1
 626 -28 l 1,8,-1
 616 -33 l 1,9,-1
 544 4 l 1,10,-1
 544 637 l 1,11,-1
 554 642 l 1,6,-1
EndSplineSet
EndChar

StartChar: uni25CC
Encoding: 9676 9676 267
Width: 594
Flags: W
LayerCount: 2
Fore
SplineSet
213 522 m 0,0,1
 224 522 224 522 231.5 514.5 c 128,-1,2
 239 507 239 507 239 496 c 0,3,4
 239 486 239 486 231.5 478 c 128,-1,5
 224 470 224 470 213 470 c 0,6,7
 203 470 203 470 195 478 c 128,-1,8
 187 486 187 486 187 496 c 0,9,10
 187 507 187 507 195 514.5 c 128,-1,11
 203 522 203 522 213 522 c 0,0,1
381 522 m 0,12,13
 392 522 392 522 399.5 514.5 c 128,-1,14
 407 507 407 507 407 496 c 0,15,16
 407 486 407 486 399.5 478 c 128,-1,17
 392 470 392 470 381 470 c 0,18,19
 371 470 371 470 363 478 c 128,-1,20
 355 486 355 486 355 496 c 0,21,22
 355 507 355 507 363 514.5 c 128,-1,23
 371 522 371 522 381 522 c 0,12,13
213 112 m 0,24,25
 224 112 224 112 231.5 104.5 c 128,-1,26
 239 97 239 97 239 86 c 0,27,28
 239 76 239 76 231.5 68 c 128,-1,29
 224 60 224 60 213 60 c 0,30,31
 203 60 203 60 195 68 c 128,-1,32
 187 76 187 76 187 86 c 0,33,34
 187 97 187 97 195 104.5 c 128,-1,35
 203 112 203 112 213 112 c 0,24,25
381 112 m 0,36,37
 392 112 392 112 399.5 104.5 c 128,-1,38
 407 97 407 97 407 86 c 0,39,40
 407 76 407 76 399.5 68 c 128,-1,41
 392 60 392 60 381 60 c 0,42,43
 371 60 371 60 363 68 c 128,-1,44
 355 76 355 76 355 86 c 0,45,46
 355 97 355 97 363 104.5 c 128,-1,47
 371 112 371 112 381 112 c 0,36,37
297 540 m 0,48,49
 308 540 308 540 315.5 532.5 c 128,-1,50
 323 525 323 525 323 514 c 0,51,52
 323 504 323 504 315.5 496 c 128,-1,53
 308 488 308 488 297 488 c 0,54,55
 287 488 287 488 279 496 c 128,-1,56
 271 504 271 504 271 514 c 0,57,58
 271 525 271 525 279 532.5 c 128,-1,59
 287 540 287 540 297 540 c 0,48,49
297 94 m 0,60,61
 308 94 308 94 315.5 86.5 c 128,-1,62
 323 79 323 79 323 68 c 0,63,64
 323 58 323 58 315.5 50 c 128,-1,65
 308 42 308 42 297 42 c 0,66,67
 287 42 287 42 279 50 c 128,-1,68
 271 58 271 58 271 68 c 0,69,70
 271 79 271 79 279 86.5 c 128,-1,71
 287 94 287 94 297 94 c 0,60,61
48 291 m 0,72,73
 48 302 48 302 56 309.5 c 128,-1,74
 64 317 64 317 74 317 c 0,75,76
 85 317 85 317 92.5 309.5 c 128,-1,77
 100 302 100 302 100 291 c 0,78,79
 100 281 100 281 92.5 273 c 128,-1,80
 85 265 85 265 74 265 c 0,81,82
 64 265 64 265 56 273 c 128,-1,83
 48 281 48 281 48 291 c 0,72,73
494 291 m 0,84,85
 494 302 494 302 502 309.5 c 128,-1,86
 510 317 510 317 520 317 c 0,87,88
 531 317 531 317 538.5 309.5 c 128,-1,89
 546 302 546 302 546 291 c 0,90,91
 546 281 546 281 538.5 273 c 128,-1,92
 531 265 531 265 520 265 c 0,93,94
 510 265 510 265 502 273 c 128,-1,95
 494 281 494 281 494 291 c 0,84,85
113 133 m 0,96,97
 113 144 113 144 121 151.5 c 128,-1,98
 129 159 129 159 139 159 c 0,99,100
 150 159 150 159 157.5 151.5 c 128,-1,101
 165 144 165 144 165 133 c 0,102,103
 165 123 165 123 157.5 115 c 128,-1,104
 150 107 150 107 139 107 c 0,105,106
 129 107 129 107 121 115 c 128,-1,107
 113 123 113 123 113 133 c 0,96,97
113 449 m 0,108,109
 113 460 113 460 121 467.5 c 128,-1,110
 129 475 129 475 139 475 c 0,111,112
 150 475 150 475 157.5 467.5 c 128,-1,113
 165 460 165 460 165 449 c 0,114,115
 165 439 165 439 157.5 431 c 128,-1,116
 150 423 150 423 139 423 c 0,117,118
 129 423 129 423 121 431 c 128,-1,119
 113 439 113 439 113 449 c 0,108,109
429 133 m 0,120,121
 429 144 429 144 437 151.5 c 128,-1,122
 445 159 445 159 455 159 c 0,123,124
 466 159 466 159 473.5 151.5 c 128,-1,125
 481 144 481 144 481 133 c 0,126,127
 481 123 481 123 473.5 115 c 128,-1,128
 466 107 466 107 455 107 c 0,129,130
 445 107 445 107 437 115 c 128,-1,131
 429 123 429 123 429 133 c 0,120,121
429 449 m 0,132,133
 429 460 429 460 437 467.5 c 128,-1,134
 445 475 445 475 455 475 c 0,135,136
 466 475 466 475 473.5 467.5 c 128,-1,137
 481 460 481 460 481 449 c 0,138,139
 481 439 481 439 473.5 431 c 128,-1,140
 466 423 466 423 455 423 c 0,141,142
 445 423 445 423 437 431 c 128,-1,143
 429 439 429 439 429 449 c 0,132,133
66 207 m 0,144,145
 66 218 66 218 74 225.5 c 128,-1,146
 82 233 82 233 92 233 c 0,147,148
 103 233 103 233 110.5 225.5 c 128,-1,149
 118 218 118 218 118 207 c 0,150,151
 118 197 118 197 110.5 189 c 128,-1,152
 103 181 103 181 92 181 c 0,153,154
 82 181 82 181 74 189 c 128,-1,155
 66 197 66 197 66 207 c 0,144,145
66 375 m 0,156,157
 66 386 66 386 74 393.5 c 128,-1,158
 82 401 82 401 92 401 c 0,159,160
 103 401 103 401 110.5 393.5 c 128,-1,161
 118 386 118 386 118 375 c 0,162,163
 118 365 118 365 110.5 357 c 128,-1,164
 103 349 103 349 92 349 c 0,165,166
 82 349 82 349 74 357 c 128,-1,167
 66 365 66 365 66 375 c 0,156,157
476 207 m 0,168,169
 476 218 476 218 484 225.5 c 128,-1,170
 492 233 492 233 502 233 c 0,171,172
 513 233 513 233 520.5 225.5 c 128,-1,173
 528 218 528 218 528 207 c 0,174,175
 528 197 528 197 520.5 189 c 128,-1,176
 513 181 513 181 502 181 c 0,177,178
 492 181 492 181 484 189 c 128,-1,179
 476 197 476 197 476 207 c 0,168,169
476 375 m 0,180,181
 476 386 476 386 484 393.5 c 128,-1,182
 492 401 492 401 502 401 c 0,183,184
 513 401 513 401 520.5 393.5 c 128,-1,185
 528 386 528 386 528 375 c 0,186,187
 528 365 528 365 520.5 357 c 128,-1,188
 513 349 513 349 502 349 c 0,189,190
 492 349 492 349 484 357 c 128,-1,191
 476 365 476 365 476 375 c 0,180,181
EndSplineSet
EndChar

StartChar: iiaddakguru
Encoding: 65662 -1 268
Width: 904
GlyphClass: 2
Flags: W
AnchorPoint: "Anchor-1" 546 -8 basechar 0
AnchorPoint: "Anchor-0" 886 622 basechar 0
LayerCount: 2
Fore
SplineSet
941 898 m 1,0,1
 950 864 950 864 947.5 831 c 128,-1,2
 945 798 945 798 932.5 771 c 128,-1,3
 920 744 920 744 896.5 728.5 c 128,-1,4
 873 713 873 713 838 713 c 0,5,6
 792 713 792 713 764 739.5 c 128,-1,7
 736 766 736 766 727.5 807.5 c 128,-1,8
 719 849 719 849 728 895 c 1,9,-1
 739 895 l 1,10,11
 741 856 741 856 754 830.5 c 128,-1,12
 767 805 767 805 788 793 c 128,-1,13
 809 781 809 781 834 781 c 0,14,15
 872 781 872 781 900 810 c 128,-1,16
 928 839 928 839 932 898 c 1,17,-1
 941 898 l 1,0,1
452 293 m 2,18,19
 358 293 358 293 278 261 c 128,-1,20
 198 229 198 229 148 170 c 1,21,22
 172 133 172 133 205.5 106 c 128,-1,23
 239 79 239 79 277.5 64.5 c 128,-1,24
 316 50 316 50 353 50 c 0,25,26
 404 50 404 50 447.5 71 c 128,-1,27
 491 92 491 92 522 126 c 1,28,-1
 533 126 l 1,29,-1
 577 64 l 1,30,31
 542 24 542 24 492.5 -2 c 128,-1,32
 443 -28 443 -28 380 -28 c 0,33,34
 328 -28 328 -28 280 -9 c 128,-1,35
 232 10 232 10 191 42.5 c 128,-1,36
 150 75 150 75 119.5 115.5 c 128,-1,37
 89 156 89 156 72 199 c 1,38,39
 107 249 107 249 157.5 285 c 128,-1,40
 208 321 208 321 266 336 c 1,41,42
 216 346 216 346 180.5 369 c 128,-1,43
 145 392 145 392 123 422.5 c 128,-1,44
 101 453 101 453 90.5 487.5 c 128,-1,45
 80 522 80 522 78 555 c 1,46,-1
 -13 555 l 1,47,-1
 -35 613 l 1,48,-1
 -30 622 l 1,49,-1
 642 622 l 1,50,-1
 664 565 l 1,51,-1
 660 555 l 1,52,-1
 523 555 l 1,53,-1
 523 315 l 1,54,-1
 505 293 l 1,55,-1
 452 293 l 2,18,19
441 555 m 1,56,-1
 163 555 l 1,57,58
 163 518 163 518 174.5 483 c 128,-1,59
 186 448 186 448 210.5 420.5 c 128,-1,60
 235 393 235 393 274 377 c 128,-1,61
 313 361 313 361 368 361 c 2,62,-1
 441 361 l 1,63,-1
 441 555 l 1,56,-1
923 565 m 1,64,-1
 918 555 l 1,65,-1
 796 555 l 1,66,-1
 796 -24 l 1,67,-1
 786 -29 l 1,68,-1
 714 8 l 1,69,-1
 714 555 l 1,70,-1
 599 555 l 1,71,-1
 577 613 l 1,72,-1
 582 622 l 1,73,-1
 714 622 l 1,74,75
 713 671 713 671 705 710 c 128,-1,76
 697 749 697 749 683 777 c 0,77,78
 667 809 667 809 640 826.5 c 128,-1,79
 613 844 613 844 581 844 c 0,80,81
 534 844 534 844 506 814.5 c 128,-1,82
 478 785 478 785 478 739 c 0,83,84
 478 721 478 721 484 701 c 128,-1,85
 490 681 490 681 498 663 c 1,86,-1
 493 655 l 1,87,-1
 469 655 l 1,88,89
 444 675 444 675 427 707 c 128,-1,90
 410 739 410 739 410 776 c 0,91,92
 410 816 410 816 430 848 c 128,-1,93
 450 880 450 880 485.5 899 c 128,-1,94
 521 918 521 918 566 918 c 0,95,96
 614 918 614 918 656.5 894.5 c 128,-1,97
 699 871 699 871 729 826 c 0,98,99
 756 786 756 786 771.5 735 c 128,-1,100
 787 684 787 684 791 622 c 1,101,-1
 901 622 l 1,102,-1
 923 565 l 1,64,-1
EndSplineSet
Ligature2: "'abvs' Above Base Substitutions lookup 10 subtable" iiguru addakguru
EndChar

StartChar: uaddakguru
Encoding: 65663 -1 269
Width: 632
GlyphClass: 2
Flags: W
AnchorPoint: "Anchor-1" 537 -8 basechar 0
AnchorPoint: "Anchor-0" 628 642 basechar 0
LayerCount: 2
Fore
SplineSet
714 892 m 1,0,1
 723 858 723 858 720.5 825 c 128,-1,2
 718 792 718 792 705 765 c 128,-1,3
 692 738 692 738 668.5 722.5 c 128,-1,4
 645 707 645 707 610 707 c 0,5,6
 564 707 564 707 536.5 733.5 c 128,-1,7
 509 760 509 760 500 801.5 c 128,-1,8
 491 843 491 843 501 889 c 1,9,-1
 511 889 l 1,10,11
 513 850 513 850 526 824.5 c 128,-1,12
 539 799 539 799 560.5 787 c 128,-1,13
 582 775 582 775 607 775 c 0,14,15
 645 775 645 775 672.5 804 c 128,-1,16
 700 833 700 833 704 892 c 1,17,-1
 714 892 l 1,0,1
575 555 m 1,18,19
 574 471 574 471 541.5 409.5 c 128,-1,20
 509 348 509 348 444 322 c 1,21,22
 478 307 478 307 506 282 c 128,-1,23
 534 257 534 257 550.5 223 c 128,-1,24
 567 189 567 189 567 144 c 0,25,26
 567 65 567 65 514 16 c 128,-1,27
 461 -33 461 -33 373 -33 c 0,28,29
 308 -33 308 -33 256.5 -4.5 c 128,-1,30
 205 24 205 24 167.5 73 c 128,-1,31
 130 122 130 122 105.5 185 c 128,-1,32
 81 248 81 248 69 319 c 128,-1,33
 57 390 57 390 57 460 c 0,34,35
 57 483 57 483 59 509.5 c 128,-1,36
 61 536 61 536 63 555 c 1,37,-1
 -13 555 l 1,38,-1
 -35 613 l 1,39,-1
 -30 622 l 1,40,-1
 74 622 l 1,41,42
 92 696 92 696 123 747 c 128,-1,43
 154 798 154 798 192.5 829 c 128,-1,44
 231 860 231 860 271.5 873.5 c 128,-1,45
 312 887 312 887 348 887 c 0,46,47
 421 887 421 887 471 850 c 128,-1,48
 521 813 521 813 547.5 753 c 128,-1,49
 574 693 574 693 574 622 c 1,50,-1
 646 622 l 1,51,-1
 668 565 l 1,52,-1
 664 555 l 1,53,-1
 575 555 l 1,18,19
360 811 m 0,54,55
 287 811 287 811 235 759.5 c 128,-1,56
 183 708 183 708 158 622 c 1,57,-1
 522 622 l 1,58,59
 522 657 522 657 512.5 690.5 c 128,-1,60
 503 724 503 724 483.5 751.5 c 128,-1,61
 464 779 464 779 433.5 795 c 128,-1,62
 403 811 403 811 360 811 c 0,54,55
144 555 m 1,63,64
 137 512 137 512 136.5 463 c 128,-1,65
 136 414 136 414 140 369 c 1,66,-1
 337 369 l 2,67,68
 392 369 392 369 432.5 395.5 c 128,-1,69
 473 422 473 422 496 464 c 128,-1,70
 519 506 519 506 520 555 c 1,71,-1
 144 555 l 1,63,64
360 40 m 0,72,73
 421 40 421 40 458.5 73.5 c 128,-1,74
 496 107 496 107 496 162 c 0,75,76
 496 197 496 197 478 227 c 128,-1,77
 460 257 460 257 424 275 c 128,-1,78
 388 293 388 293 334 293 c 2,79,-1
 147 293 l 1,80,81
 151 258 151 258 162.5 222 c 128,-1,82
 174 186 174 186 192 153.5 c 128,-1,83
 210 121 210 121 235 95.5 c 128,-1,84
 260 70 260 70 291.5 55 c 128,-1,85
 323 40 323 40 360 40 c 0,72,73
192 -78 m 1,86,87
 243 -118 243 -118 302 -130.5 c 128,-1,88
 361 -143 361 -143 419.5 -129 c 128,-1,89
 478 -115 478 -115 526 -78 c 1,90,-1
 555 -138 l 1,91,92
 515 -172 515 -172 465 -188.5 c 128,-1,93
 415 -205 415 -205 362 -202 c 128,-1,94
 309 -199 309 -199 259.5 -177.5 c 128,-1,95
 210 -156 210 -156 170 -114 c 1,96,-1
 192 -78 l 1,86,87
EndSplineSet
Ligature2: "'abvs' Above Base Substitutions lookup 10 subtable" uguru addakguru
EndChar

StartChar: uuaddakguru
Encoding: 65664 -1 270
Width: 632
GlyphClass: 2
Flags: W
AnchorPoint: "Anchor-1" 537 -8 basechar 0
AnchorPoint: "Anchor-0" 628 642 basechar 0
LayerCount: 2
Fore
SplineSet
714 892 m 1,0,1
 723 858 723 858 720.5 825 c 128,-1,2
 718 792 718 792 705 765 c 128,-1,3
 692 738 692 738 668.5 722.5 c 128,-1,4
 645 707 645 707 610 707 c 0,5,6
 564 707 564 707 536.5 733.5 c 128,-1,7
 509 760 509 760 500 801.5 c 128,-1,8
 491 843 491 843 501 889 c 1,9,-1
 511 889 l 1,10,11
 513 850 513 850 526 824.5 c 128,-1,12
 539 799 539 799 560.5 787 c 128,-1,13
 582 775 582 775 607 775 c 0,14,15
 645 775 645 775 672.5 804 c 128,-1,16
 700 833 700 833 704 892 c 1,17,-1
 714 892 l 1,0,1
575 555 m 1,18,19
 574 471 574 471 541.5 409.5 c 128,-1,20
 509 348 509 348 444 322 c 1,21,22
 478 307 478 307 506 282 c 128,-1,23
 534 257 534 257 550.5 223 c 128,-1,24
 567 189 567 189 567 144 c 0,25,26
 567 65 567 65 514 16 c 128,-1,27
 461 -33 461 -33 373 -33 c 0,28,29
 308 -33 308 -33 256.5 -4.5 c 128,-1,30
 205 24 205 24 167.5 73 c 128,-1,31
 130 122 130 122 105.5 185 c 128,-1,32
 81 248 81 248 69 319 c 128,-1,33
 57 390 57 390 57 460 c 0,34,35
 57 483 57 483 59 509.5 c 128,-1,36
 61 536 61 536 63 555 c 1,37,-1
 -13 555 l 1,38,-1
 -35 613 l 1,39,-1
 -30 622 l 1,40,-1
 74 622 l 1,41,42
 92 696 92 696 123 747 c 128,-1,43
 154 798 154 798 192.5 829 c 128,-1,44
 231 860 231 860 271.5 873.5 c 128,-1,45
 312 887 312 887 348 887 c 0,46,47
 421 887 421 887 471 850 c 128,-1,48
 521 813 521 813 547.5 753 c 128,-1,49
 574 693 574 693 574 622 c 1,50,-1
 646 622 l 1,51,-1
 668 565 l 1,52,-1
 664 555 l 1,53,-1
 575 555 l 1,18,19
360 811 m 0,54,55
 287 811 287 811 235 759.5 c 128,-1,56
 183 708 183 708 158 622 c 1,57,-1
 522 622 l 1,58,59
 522 657 522 657 512.5 690.5 c 128,-1,60
 503 724 503 724 483.5 751.5 c 128,-1,61
 464 779 464 779 433.5 795 c 128,-1,62
 403 811 403 811 360 811 c 0,54,55
144 555 m 1,63,64
 137 512 137 512 136.5 463 c 128,-1,65
 136 414 136 414 140 369 c 1,66,-1
 337 369 l 2,67,68
 392 369 392 369 432.5 395.5 c 128,-1,69
 473 422 473 422 496 464 c 128,-1,70
 519 506 519 506 520 555 c 1,71,-1
 144 555 l 1,63,64
360 40 m 0,72,73
 421 40 421 40 458.5 73.5 c 128,-1,74
 496 107 496 107 496 162 c 0,75,76
 496 197 496 197 478 227 c 128,-1,77
 460 257 460 257 424 275 c 128,-1,78
 388 293 388 293 334 293 c 2,79,-1
 147 293 l 1,80,81
 151 258 151 258 162.5 222 c 128,-1,82
 174 186 174 186 192 153.5 c 128,-1,83
 210 121 210 121 235 95.5 c 128,-1,84
 260 70 260 70 291.5 55 c 128,-1,85
 323 40 323 40 360 40 c 0,72,73
217 -74 m 1,86,87
 266 -108 266 -108 319.5 -117 c 128,-1,88
 373 -126 373 -126 425 -114 c 128,-1,89
 477 -102 477 -102 522 -73 c 1,90,-1
 549 -127 l 1,91,92
 510 -155 510 -155 464.5 -169 c 128,-1,93
 419 -183 419 -183 371 -182 c 128,-1,94
 323 -181 323 -181 278.5 -163.5 c 128,-1,95
 234 -146 234 -146 197 -110 c 1,96,-1
 217 -74 l 1,86,87
197 -178 m 1,97,98
 235 -209 235 -209 281.5 -225 c 128,-1,99
 328 -241 328 -241 376 -241.5 c 128,-1,100
 424 -242 424 -242 469.5 -227.5 c 128,-1,101
 515 -213 515 -213 551 -185 c 1,102,-1
 578 -236 l 1,103,104
 536 -270 536 -270 483.5 -286.5 c 128,-1,105
 431 -303 431 -303 375.5 -300.5 c 128,-1,106
 320 -298 320 -298 268 -276.5 c 128,-1,107
 216 -255 216 -255 175 -214 c 1,108,-1
 197 -178 l 1,97,98
EndSplineSet
Ligature2: "'abvs' Above Base Substitutions lookup 10 subtable" uuguru addakguru
EndChar

StartChar: eeaddakguru
Encoding: 65665 -1 271
Width: 629
GlyphClass: 2
Flags: W
AnchorPoint: "Anchor-1" 546 -8 basechar 0
AnchorPoint: "Anchor-0" 568 622 basechar 0
LayerCount: 2
Fore
SplineSet
642 880 m 1,0,1
 651 846 651 846 648.5 813 c 128,-1,2
 646 780 646 780 633.5 753 c 128,-1,3
 621 726 621 726 597.5 710.5 c 128,-1,4
 574 695 574 695 539 695 c 0,5,6
 493 695 493 695 465 721.5 c 128,-1,7
 437 748 437 748 428.5 789.5 c 128,-1,8
 420 831 420 831 429 877 c 1,9,-1
 440 877 l 1,10,11
 442 838 442 838 455 812.5 c 128,-1,12
 468 787 468 787 489 775 c 128,-1,13
 510 763 510 763 535 763 c 0,14,15
 573 763 573 763 601 792 c 128,-1,16
 629 821 629 821 633 880 c 1,17,-1
 642 880 l 1,0,1
452 293 m 2,18,19
 358 293 358 293 278 261 c 128,-1,20
 198 229 198 229 148 170 c 1,21,22
 172 133 172 133 205.5 106 c 128,-1,23
 239 79 239 79 277.5 64.5 c 128,-1,24
 316 50 316 50 353 50 c 0,25,26
 404 50 404 50 447.5 71 c 128,-1,27
 491 92 491 92 522 126 c 1,28,-1
 533 126 l 1,29,-1
 577 64 l 1,30,31
 542 24 542 24 492.5 -2 c 128,-1,32
 443 -28 443 -28 380 -28 c 0,33,34
 328 -28 328 -28 280 -9 c 128,-1,35
 232 10 232 10 191 42.5 c 128,-1,36
 150 75 150 75 119.5 115.5 c 128,-1,37
 89 156 89 156 72 199 c 1,38,39
 107 249 107 249 157.5 285 c 128,-1,40
 208 321 208 321 266 336 c 1,41,42
 216 346 216 346 180.5 369 c 128,-1,43
 145 392 145 392 123 422.5 c 128,-1,44
 101 453 101 453 90.5 487.5 c 128,-1,45
 80 522 80 522 78 555 c 1,46,-1
 -13 555 l 1,47,-1
 -35 613 l 1,48,-1
 -30 622 l 1,49,-1
 642 622 l 1,50,-1
 664 565 l 1,51,-1
 660 555 l 1,52,-1
 523 555 l 1,53,-1
 523 315 l 1,54,-1
 505 293 l 1,55,-1
 452 293 l 2,18,19
441 555 m 1,56,-1
 163 555 l 1,57,58
 163 518 163 518 174.5 483 c 128,-1,59
 186 448 186 448 210.5 420.5 c 128,-1,60
 235 393 235 393 274 377 c 128,-1,61
 313 361 313 361 368 361 c 2,62,-1
 441 361 l 1,63,-1
 441 555 l 1,56,-1
170 833 m 1,64,-1
 170 902 l 1,65,-1
 245 902 l 2,66,67
 290 902 290 902 324 890.5 c 128,-1,68
 358 879 358 879 387 850 c 0,69,70
 405 833 405 833 421 808.5 c 128,-1,71
 437 784 437 784 452.5 754.5 c 128,-1,72
 468 725 468 725 484 689 c 0,73,74
 492 673 492 673 499.5 655.5 c 128,-1,75
 507 638 507 638 515 620 c 128,-1,76
 523 602 523 602 531 583 c 1,77,-1
 481 583 l 1,78,79
 454 646 454 646 433.5 687.5 c 128,-1,80
 413 729 413 729 395 754.5 c 128,-1,81
 377 780 377 780 356 796 c 0,82,83
 337 811 337 811 312.5 817 c 128,-1,84
 288 823 288 823 253 823 c 2,85,-1
 180 823 l 1,86,-1
 170 833 l 1,64,-1
EndSplineSet
Ligature2: "'abvs' Above Base Substitutions lookup 10 subtable" eeguru addakguru
EndChar

StartChar: aiaddakguru
Encoding: 65666 -1 272
Width: 776
GlyphClass: 2
Flags: W
AnchorPoint: "Anchor-0" 757 622 basechar 0
LayerCount: 2
Fore
SplineSet
841 880 m 1,0,1
 850 846 850 846 847.5 813 c 128,-1,2
 845 780 845 780 832.5 753 c 128,-1,3
 820 726 820 726 796.5 710.5 c 128,-1,4
 773 695 773 695 738 695 c 0,5,6
 692 695 692 695 664 721.5 c 128,-1,7
 636 748 636 748 627.5 789.5 c 128,-1,8
 619 831 619 831 628 877 c 1,9,-1
 639 877 l 1,10,11
 641 838 641 838 654 812.5 c 128,-1,12
 667 787 667 787 688 775 c 128,-1,13
 709 763 709 763 734 763 c 0,14,15
 772 763 772 763 800 792 c 128,-1,16
 828 821 828 821 832 880 c 1,17,-1
 841 880 l 1,0,1
809 565 m 1,18,-1
 805 555 l 1,19,-1
 686 555 l 1,20,-1
 686 -24 l 1,21,-1
 677 -29 l 1,22,-1
 604 8 l 1,23,-1
 604 365 l 1,24,25
 577 348 577 348 547 326 c 128,-1,26
 517 304 517 304 489.5 280.5 c 128,-1,27
 462 257 462 257 440 235 c 1,28,29
 434 204 434 204 421.5 172 c 128,-1,30
 409 140 409 140 392.5 114 c 128,-1,31
 376 88 376 88 356.5 72 c 128,-1,32
 337 56 337 56 318 56 c 0,33,34
 297 56 297 56 284.5 70.5 c 128,-1,35
 272 85 272 85 272 107 c 0,36,37
 272 130 272 130 285.5 159.5 c 128,-1,38
 299 189 299 189 320.5 219 c 128,-1,39
 342 249 342 249 366 273 c 1,40,41
 374 321 374 321 370.5 378.5 c 128,-1,42
 367 436 367 436 353 488 c 1,43,44
 312 458 312 458 272.5 422 c 128,-1,45
 233 386 233 386 202 350 c 1,46,47
 198 318 198 318 186.5 287.5 c 128,-1,48
 175 257 175 257 158.5 232 c 128,-1,49
 142 207 142 207 124 192 c 128,-1,50
 106 177 106 177 89 177 c 0,51,52
 70 177 70 177 55.5 190 c 128,-1,53
 41 203 41 203 41 228 c 0,54,55
 41 249 41 249 53 276 c 128,-1,56
 65 303 65 303 86.5 333 c 128,-1,57
 108 363 108 363 136 392 c 1,58,59
 137 429 137 429 127.5 473.5 c 128,-1,60
 118 518 118 518 104 555 c 1,61,-1
 -7 555 l 1,62,-1
 -29 613 l 1,63,-1
 -24 622 l 1,64,-1
 132 622 l 1,65,66
 145 597 145 597 156.5 565 c 128,-1,67
 168 533 168 533 178 500 c 128,-1,68
 188 467 188 467 193 439 c 1,69,70
 219 463 219 463 249 489 c 128,-1,71
 279 515 279 515 309.5 538.5 c 128,-1,72
 340 562 340 562 366 579 c 1,73,-1
 372 579 l 1,74,75
 389 543 389 543 402.5 498 c 128,-1,76
 416 453 416 453 424.5 407 c 128,-1,77
 433 361 433 361 436 321 c 1,78,79
 459 342 459 342 487 364.5 c 128,-1,80
 515 387 515 387 545.5 408.5 c 128,-1,81
 576 430 576 430 604 447 c 1,82,-1
 604 622 l 1,83,-1
 787 622 l 1,84,-1
 809 565 l 1,18,-1
561 900 m 0,85,86
 602 863 602 863 633.5 786 c 128,-1,87
 665 709 665 709 698 587 c 1,88,-1
 643 587 l 1,89,90
 619 631 619 631 596.5 659 c 128,-1,91
 574 687 574 687 547 703 c 0,92,93
 525 716 525 716 499 720.5 c 128,-1,94
 473 725 473 725 440 725 c 2,95,-1
 346 725 l 1,96,-1
 336 735 l 1,97,-1
 336 794 l 1,98,-1
 431 794 l 2,99,100
 468 794 468 794 497.5 785.5 c 128,-1,101
 527 777 527 777 553 758 c 0,102,103
 580 739 580 739 603 709 c 128,-1,104
 626 679 626 679 651 634 c 1,105,106
 624 720 624 720 601 768 c 128,-1,107
 578 816 578 816 542 841 c 0,108,109
 520 857 520 857 492 865 c 128,-1,110
 464 873 464 873 426 873 c 2,111,-1
 345 873 l 1,112,-1
 335 883 l 1,113,-1
 335 947 l 1,114,-1
 417 947 l 2,115,116
 463 947 463 947 497 937.5 c 128,-1,117
 531 928 531 928 561 900 c 0,85,86
EndSplineSet
Ligature2: "'abvs' Above Base Substitutions lookup 10 subtable" aiguru addakguru
EndChar

StartChar: ooaddakguru
Encoding: 65667 -1 273
Width: 632
GlyphClass: 2
Flags: W
AnchorPoint: "Anchor-0" 642 630 basechar 0
LayerCount: 2
Fore
SplineSet
739 930 m 1,0,1
 748 896 748 896 745.5 863 c 128,-1,2
 743 830 743 830 730 803 c 128,-1,3
 717 776 717 776 693.5 760.5 c 128,-1,4
 670 745 670 745 635 745 c 0,5,6
 589 745 589 745 561.5 771.5 c 128,-1,7
 534 798 534 798 525.5 839.5 c 128,-1,8
 517 881 517 881 526 927 c 1,9,-1
 536 927 l 1,10,11
 538 887 538 887 551 861.5 c 128,-1,12
 564 836 564 836 585.5 824 c 128,-1,13
 607 812 607 812 632 812 c 0,14,15
 670 812 670 812 697.5 841 c 128,-1,16
 725 870 725 870 729 930 c 1,17,-1
 739 930 l 1,0,1
573 555 m 1,18,19
 572 468 572 468 540 408 c 128,-1,20
 508 348 508 348 444 322 c 1,21,22
 478 306 478 306 506 281.5 c 128,-1,23
 534 257 534 257 550.5 223 c 128,-1,24
 567 189 567 189 567 144 c 0,25,26
 567 65 567 65 515 16 c 128,-1,27
 463 -33 463 -33 374 -33 c 0,28,29
 308 -33 308 -33 257 -5 c 128,-1,30
 206 23 206 23 168 72 c 128,-1,31
 130 121 130 121 105.5 184.5 c 128,-1,32
 81 248 81 248 69 318.5 c 128,-1,33
 57 389 57 389 57 460 c 0,34,35
 57 484 57 484 59 509.5 c 128,-1,36
 61 535 61 535 63 555 c 1,37,-1
 -13 555 l 1,38,-1
 -35 613 l 1,39,-1
 -30 622 l 1,40,-1
 74 622 l 1,41,42
 99 718 99 718 151.5 773.5 c 128,-1,43
 204 829 204 829 272.5 853 c 128,-1,44
 341 877 341 877 413 877 c 2,45,-1
 544 877 l 1,46,-1
 571 816 l 1,47,-1
 566 807 l 1,48,-1
 413 807 l 2,49,50
 307 807 307 807 244.5 755 c 128,-1,51
 182 703 182 703 158 622 c 1,52,-1
 642 622 l 1,53,-1
 664 565 l 1,54,-1
 660 555 l 1,55,-1
 573 555 l 1,18,19
337 369 m 2,56,57
 392 369 392 369 432.5 395.5 c 128,-1,58
 473 422 473 422 496 464 c 128,-1,59
 519 506 519 506 520 555 c 1,60,-1
 144 555 l 1,61,62
 137 512 137 512 136 463.5 c 128,-1,63
 135 415 135 415 141 369 c 1,64,-1
 337 369 l 2,56,57
496 161 m 0,65,66
 496 197 496 197 478 227 c 128,-1,67
 460 257 460 257 424 275 c 128,-1,68
 388 293 388 293 334 293 c 2,69,-1
 147 293 l 1,70,71
 151 258 151 258 162.5 222 c 128,-1,72
 174 186 174 186 192.5 153 c 128,-1,73
 211 120 211 120 236 95 c 128,-1,74
 261 70 261 70 291.5 55 c 128,-1,75
 322 40 322 40 359 40 c 0,76,77
 421 40 421 40 458.5 73 c 128,-1,78
 496 106 496 106 496 161 c 0,65,66
EndSplineSet
Ligature2: "'abvs' Above Base Substitutions lookup 10 subtable" ooguru addakguru
EndChar

StartChar: auaddakguru
Encoding: 65668 -1 274
Width: 776
GlyphClass: 2
Flags: W
AnchorPoint: "Anchor-0" 744 721 basechar 0
LayerCount: 2
Fore
SplineSet
854 945 m 1,0,1
 863 911 863 911 860.5 878 c 128,-1,2
 858 845 858 845 845.5 818.5 c 128,-1,3
 833 792 833 792 809.5 776.5 c 128,-1,4
 786 761 786 761 751 761 c 0,5,6
 705 761 705 761 677 787.5 c 128,-1,7
 649 814 649 814 640.5 855.5 c 128,-1,8
 632 897 632 897 641 942 c 1,9,-1
 652 942 l 1,10,11
 654 903 654 903 667 877.5 c 128,-1,12
 680 852 680 852 701 840 c 128,-1,13
 722 828 722 828 747 828 c 0,14,15
 785 828 785 828 813 857 c 128,-1,16
 841 886 841 886 845 945 c 1,17,-1
 854 945 l 1,0,1
809 565 m 1,18,-1
 805 555 l 1,19,-1
 686 555 l 1,20,-1
 686 -24 l 1,21,-1
 677 -29 l 1,22,-1
 604 8 l 1,23,-1
 604 365 l 1,24,25
 577 348 577 348 547 326 c 128,-1,26
 517 304 517 304 489.5 280.5 c 128,-1,27
 462 257 462 257 440 235 c 1,28,29
 434 204 434 204 421.5 172 c 128,-1,30
 409 140 409 140 392.5 114 c 128,-1,31
 376 88 376 88 356.5 72 c 128,-1,32
 337 56 337 56 318 56 c 0,33,34
 297 56 297 56 284.5 70.5 c 128,-1,35
 272 85 272 85 272 107 c 0,36,37
 272 130 272 130 285.5 159.5 c 128,-1,38
 299 189 299 189 320.5 219 c 128,-1,39
 342 249 342 249 366 273 c 1,40,41
 374 321 374 321 370.5 378.5 c 128,-1,42
 367 436 367 436 353 488 c 1,43,44
 312 458 312 458 272.5 422 c 128,-1,45
 233 386 233 386 202 350 c 1,46,47
 198 318 198 318 186.5 287.5 c 128,-1,48
 175 257 175 257 158.5 232 c 128,-1,49
 142 207 142 207 124 192 c 128,-1,50
 106 177 106 177 89 177 c 0,51,52
 70 177 70 177 55.5 190 c 128,-1,53
 41 203 41 203 41 228 c 0,54,55
 41 249 41 249 53 276 c 128,-1,56
 65 303 65 303 86.5 333 c 128,-1,57
 108 363 108 363 136 392 c 1,58,59
 137 429 137 429 127.5 473.5 c 128,-1,60
 118 518 118 518 104 555 c 1,61,-1
 -7 555 l 1,62,-1
 -29 613 l 1,63,-1
 -24 622 l 1,64,-1
 132 622 l 1,65,66
 145 597 145 597 156.5 565 c 128,-1,67
 168 533 168 533 178 500 c 128,-1,68
 188 467 188 467 193 439 c 1,69,70
 219 463 219 463 249 489 c 128,-1,71
 279 515 279 515 309.5 538.5 c 128,-1,72
 340 562 340 562 366 579 c 1,73,-1
 372 579 l 1,74,75
 389 543 389 543 402.5 498 c 128,-1,76
 416 453 416 453 424.5 407 c 128,-1,77
 433 361 433 361 436 321 c 1,78,79
 459 342 459 342 487 364.5 c 128,-1,80
 515 387 515 387 545.5 408.5 c 128,-1,81
 576 430 576 430 604 447 c 1,82,-1
 604 622 l 1,83,-1
 787 622 l 1,84,-1
 809 565 l 1,18,-1
574 876 m 0,85,86
 636 876 636 876 669 839.5 c 128,-1,87
 702 803 702 803 702 755 c 0,88,89
 702 728 702 728 692.5 704 c 128,-1,90
 683 680 683 680 669 661 c 1,91,-1
 620 661 l 1,92,93
 629 675 629 675 638 695.5 c 128,-1,94
 647 716 647 716 647 738 c 0,95,96
 647 767 647 767 629 787.5 c 128,-1,97
 611 808 611 808 573 808 c 0,98,99
 539 808 539 808 520 789 c 128,-1,100
 501 770 501 770 501 739 c 0,101,102
 501 719 501 719 508 699 c 128,-1,103
 515 679 515 679 528 661 c 1,104,-1
 481 661 l 1,105,106
 465 677 465 677 456 699 c 128,-1,107
 447 721 447 721 447 742 c 0,108,109
 447 755 447 755 450.5 766.5 c 128,-1,110
 454 778 454 778 461 785 c 1,111,112
 438 775 438 775 415 769 c 128,-1,113
 392 763 392 763 366 763 c 0,114,115
 334 763 334 763 309 777 c 128,-1,116
 284 791 284 791 269.5 815.5 c 128,-1,117
 255 840 255 840 255 870 c 0,118,119
 255 884 255 884 258.5 898 c 128,-1,120
 262 912 262 912 267 923 c 1,121,-1
 272 923 l 1,122,123
 280 877 280 877 305 855 c 128,-1,124
 330 833 330 833 364 833 c 0,125,126
 397 833 397 833 432 844 c 128,-1,127
 467 855 467 855 503 865.5 c 128,-1,128
 539 876 539 876 574 876 c 0,85,86
EndSplineSet
Ligature2: "'abvs' Above Base Substitutions lookup 10 subtable" auguru addakguru
EndChar

StartChar: iimatraaddakguru
Encoding: 65669 -1 275
Width: 275
Flags: W
LayerCount: 2
Fore
SplineSet
336 880 m 1,0,1
 345 846 345 846 342.5 813 c 128,-1,2
 340 780 340 780 327.5 753 c 128,-1,3
 315 726 315 726 291 710.5 c 128,-1,4
 267 695 267 695 232 695 c 0,5,6
 186 695 186 695 158.5 721.5 c 128,-1,7
 131 748 131 748 122.5 789.5 c 128,-1,8
 114 831 114 831 123 877 c 1,9,-1
 133 877 l 1,10,11
 135 838 135 838 148.5 812.5 c 128,-1,12
 162 787 162 787 183 775 c 128,-1,13
 204 763 204 763 229 763 c 0,14,15
 267 763 267 763 294.5 792 c 128,-1,16
 322 821 322 821 326 880 c 1,17,-1
 336 880 l 1,0,1
310 565 m 1,18,-1
 305 555 l 1,19,-1
 183 555 l 1,20,-1
 183 -24 l 1,21,-1
 173 -29 l 1,22,-1
 101 8 l 1,23,-1
 101 555 l 1,24,-1
 -14 555 l 1,25,-1
 -36 613 l 1,26,-1
 -31 622 l 1,27,-1
 101 622 l 1,28,29
 100 671 100 671 92 710 c 128,-1,30
 84 749 84 749 70 777 c 0,31,32
 54 809 54 809 27 826.5 c 128,-1,33
 0 844 0 844 -32 844 c 0,34,35
 -79 844 -79 844 -107 814.5 c 128,-1,36
 -135 785 -135 785 -135 739 c 0,37,38
 -135 721 -135 721 -129 701 c 128,-1,39
 -123 681 -123 681 -115 663 c 1,40,-1
 -120 655 l 1,41,-1
 -144 655 l 1,42,43
 -169 675 -169 675 -186 707 c 128,-1,44
 -203 739 -203 739 -203 776 c 0,45,46
 -203 816 -203 816 -183 848 c 128,-1,47
 -163 880 -163 880 -127.5 899 c 128,-1,48
 -92 918 -92 918 -47 918 c 0,49,50
 1 918 1 918 43.5 894.5 c 128,-1,51
 86 871 86 871 116 826 c 0,52,53
 143 786 143 786 158.5 735 c 128,-1,54
 174 684 174 684 178 622 c 1,55,-1
 288 622 l 1,56,-1
 310 565 l 1,18,-1
EndSplineSet
Ligature2: "'abvs' Above Base Substitutions lookup 10 subtable" uni0A40 addakguru
EndChar

StartChar: eematraaddakguru
Encoding: 65670 -1 276
Width: 0
Flags: W
LayerCount: 2
Fore
SplineSet
34 880 m 1,0,1
 43 846 43 846 40.5 813 c 128,-1,2
 38 780 38 780 25 753 c 128,-1,3
 12 726 12 726 -11.5 710.5 c 128,-1,4
 -35 695 -35 695 -70 695 c 0,5,6
 -116 695 -116 695 -143.5 721.5 c 128,-1,7
 -171 748 -171 748 -179.5 789.5 c 128,-1,8
 -188 831 -188 831 -179 877 c 1,9,-1
 -169 877 l 1,10,11
 -167 838 -167 838 -153.5 812.5 c 128,-1,12
 -140 787 -140 787 -119 775 c 128,-1,13
 -98 763 -98 763 -73 763 c 0,14,15
 -35 763 -35 763 -7.5 792 c 128,-1,16
 20 821 20 821 24 880 c 1,17,-1
 34 880 l 1,0,1
-443 833 m 1,18,-1
 -443 902 l 1,19,-1
 -368 902 l 2,20,21
 -323 902 -323 902 -289 890.5 c 128,-1,22
 -255 879 -255 879 -226 850 c 0,23,24
 -208 833 -208 833 -192 808.5 c 128,-1,25
 -176 784 -176 784 -160.5 754.5 c 128,-1,26
 -145 725 -145 725 -129 689 c 0,27,28
 -121 673 -121 673 -113.5 655.5 c 128,-1,29
 -106 638 -106 638 -98 620 c 128,-1,30
 -90 602 -90 602 -82 583 c 1,31,-1
 -132 583 l 1,32,33
 -159 646 -159 646 -179.5 687.5 c 128,-1,34
 -200 729 -200 729 -218 754.5 c 128,-1,35
 -236 780 -236 780 -257 796 c 0,36,37
 -276 811 -276 811 -300.5 817 c 128,-1,38
 -325 823 -325 823 -360 823 c 2,39,-1
 -433 823 l 1,40,-1
 -443 833 l 1,18,-1
EndSplineSet
Ligature2: "'abvs' Above Base Substitutions lookup 10 subtable" eematraguru addakguru
EndChar

StartChar: aimatraaddakguru
Encoding: 65671 -1 277
Width: 0
Flags: W
LayerCount: 2
Fore
SplineSet
58 892 m 1,0,1
 67 858 67 858 64.5 825 c 128,-1,2
 62 792 62 792 49.5 765 c 128,-1,3
 37 738 37 738 13.5 722.5 c 128,-1,4
 -10 707 -10 707 -45 707 c 0,5,6
 -91 707 -91 707 -119 733.5 c 128,-1,7
 -147 760 -147 760 -155.5 801.5 c 128,-1,8
 -164 843 -164 843 -155 889 c 1,9,-1
 -144 889 l 1,10,11
 -142 850 -142 850 -129 824.5 c 128,-1,12
 -116 799 -116 799 -95 787 c 128,-1,13
 -74 775 -74 775 -49 775 c 0,14,15
 -11 775 -11 775 17 804 c 128,-1,16
 45 833 45 833 49 892 c 1,17,-1
 58 892 l 1,0,1
-220 900 m 0,18,19
 -179 863 -179 863 -147.5 786 c 128,-1,20
 -116 709 -116 709 -83 587 c 1,21,-1
 -138 587 l 1,22,23
 -162 631 -162 631 -184.5 659 c 128,-1,24
 -207 687 -207 687 -234 703 c 0,25,26
 -256 716 -256 716 -282 720.5 c 128,-1,27
 -308 725 -308 725 -341 725 c 2,28,-1
 -435 725 l 1,29,-1
 -445 735 l 1,30,-1
 -445 794 l 1,31,-1
 -350 794 l 2,32,33
 -313 794 -313 794 -283.5 785.5 c 128,-1,34
 -254 777 -254 777 -228 758 c 0,35,36
 -201 739 -201 739 -178 709 c 128,-1,37
 -155 679 -155 679 -130 634 c 1,38,39
 -157 720 -157 720 -180 768 c 128,-1,40
 -203 816 -203 816 -239 841 c 0,41,42
 -261 857 -261 857 -289 865 c 128,-1,43
 -317 873 -317 873 -355 873 c 2,44,-1
 -436 873 l 1,45,-1
 -446 883 l 1,46,-1
 -446 947 l 1,47,-1
 -364 947 l 2,48,49
 -318 947 -318 947 -284 937.5 c 128,-1,50
 -250 928 -250 928 -220 900 c 0,18,19
EndSplineSet
Ligature2: "'abvs' Above Base Substitutions lookup 10 subtable" aimatraguru addakguru
EndChar

StartChar: oomatraaddakguru
Encoding: 65672 -1 278
Width: 0
Flags: W
LayerCount: 2
Fore
SplineSet
9 922 m 1,0,1
 18 888 18 888 15.5 855 c 128,-1,2
 13 822 13 822 0.5 795 c 128,-1,3
 -12 768 -12 768 -36 752.5 c 128,-1,4
 -60 737 -60 737 -95 737 c 0,5,6
 -141 737 -141 737 -168.5 763.5 c 128,-1,7
 -196 790 -196 790 -204.5 831.5 c 128,-1,8
 -213 873 -213 873 -204 919 c 1,9,-1
 -194 919 l 1,10,11
 -192 880 -192 880 -178.5 854.5 c 128,-1,12
 -165 829 -165 829 -144 817 c 128,-1,13
 -123 805 -123 805 -98 805 c 0,14,15
 -60 805 -60 805 -32.5 834 c 128,-1,16
 -5 863 -5 863 -1 922 c 1,17,-1
 9 922 l 1,0,1
-471 910 m 1,18,19
 -463 869 -463 869 -440 844 c 128,-1,20
 -417 819 -417 819 -372 819 c 0,21,22
 -348 819 -348 819 -320 823.5 c 128,-1,23
 -292 828 -292 828 -265 828 c 0,24,25
 -215 828 -215 828 -184 801 c 128,-1,26
 -153 774 -153 774 -133 725 c 128,-1,27
 -113 676 -113 676 -97 609 c 1,28,-1
 -143 609 l 1,29,30
 -154 654 -154 654 -168 686 c 128,-1,31
 -182 718 -182 718 -204 734.5 c 128,-1,32
 -226 751 -226 751 -264 751 c 0,33,34
 -290 751 -290 751 -313 747 c 128,-1,35
 -336 743 -336 743 -362 743 c 0,36,37
 -403 743 -403 743 -431 758 c 128,-1,38
 -459 773 -459 773 -473.5 798.5 c 128,-1,39
 -488 824 -488 824 -488 856 c 0,40,41
 -488 870 -488 870 -485 883.5 c 128,-1,42
 -482 897 -482 897 -476 910 c 1,43,-1
 -471 910 l 1,18,19
EndSplineSet
Ligature2: "'abvs' Above Base Substitutions lookup 10 subtable" oomatraguru addakguru
EndChar

StartChar: aumatraaddakguru
Encoding: 65673 -1 279
Width: 0
Flags: W
LayerCount: 2
Fore
SplineSet
152 945 m 1,0,1
 161 911 161 911 158.5 878 c 128,-1,2
 156 845 156 845 143.5 818.5 c 128,-1,3
 131 792 131 792 107.5 776.5 c 128,-1,4
 84 761 84 761 49 761 c 0,5,6
 3 761 3 761 -24.5 787.5 c 128,-1,7
 -52 814 -52 814 -61 855.5 c 128,-1,8
 -70 897 -70 897 -60 942 c 1,9,-1
 -50 942 l 1,10,11
 -48 903 -48 903 -35 877.5 c 128,-1,12
 -22 852 -22 852 -0.5 840 c 128,-1,13
 21 828 21 828 46 828 c 0,14,15
 84 828 84 828 111.5 857 c 128,-1,16
 139 886 139 886 143 945 c 1,17,-1
 152 945 l 1,0,1
-131 876 m 0,18,19
 -69 876 -69 876 -36 839.5 c 128,-1,20
 -3 803 -3 803 -3 755 c 0,21,22
 -3 728 -3 728 -12.5 704 c 128,-1,23
 -22 680 -22 680 -36 661 c 1,24,-1
 -85 661 l 1,25,26
 -76 675 -76 675 -67 695.5 c 128,-1,27
 -58 716 -58 716 -58 738 c 0,28,29
 -58 767 -58 767 -76 787.5 c 128,-1,30
 -94 808 -94 808 -132 808 c 0,31,32
 -166 808 -166 808 -185 789 c 128,-1,33
 -204 770 -204 770 -204 739 c 0,34,35
 -204 719 -204 719 -197 699 c 128,-1,36
 -190 679 -190 679 -177 661 c 1,37,-1
 -224 661 l 1,38,39
 -240 677 -240 677 -249 699 c 128,-1,40
 -258 721 -258 721 -258 742 c 0,41,42
 -258 755 -258 755 -254.5 766.5 c 128,-1,43
 -251 778 -251 778 -244 785 c 1,44,45
 -267 775 -267 775 -290 769 c 128,-1,46
 -313 763 -313 763 -339 763 c 0,47,48
 -371 763 -371 763 -396 777 c 128,-1,49
 -421 791 -421 791 -435.5 815.5 c 128,-1,50
 -450 840 -450 840 -450 870 c 0,51,52
 -450 884 -450 884 -446.5 898 c 128,-1,53
 -443 912 -443 912 -438 923 c 1,54,-1
 -433 923 l 1,55,56
 -425 877 -425 877 -400 855 c 128,-1,57
 -375 833 -375 833 -341 833 c 0,58,59
 -308 833 -308 833 -273 844 c 128,-1,60
 -238 855 -238 855 -202 865.5 c 128,-1,61
 -166 876 -166 876 -131 876 c 0,18,19
EndSplineSet
Ligature2: "'abvs' Above Base Substitutions lookup 10 subtable" aumatraguru addakguru
EndChar

StartChar: uniA830
Encoding: 43056 43056 282
Width: 322
Flags: W
LayerCount: 2
Fore
SplineSet
130 642 m 1,0,-1
 202 605 l 1,1,-1
 202 -28 l 1,2,-1
 192 -33 l 1,3,-1
 120 4 l 1,4,-1
 120 637 l 1,5,-1
 130 642 l 1,0,-1
EndSplineSet
EndChar

StartChar: uniA831
Encoding: 43057 43057 283
Width: 634
Flags: W
LayerCount: 2
Fore
SplineSet
130 642 m 1,0,-1
 202 605 l 1,1,-1
 202 -28 l 1,2,-1
 192 -33 l 1,3,-1
 120 4 l 1,4,-1
 120 637 l 1,5,-1
 130 642 l 1,0,-1
442 642 m 1,6,-1
 514 605 l 1,7,-1
 514 -28 l 1,8,-1
 504 -33 l 1,9,-1
 432 4 l 1,10,-1
 432 637 l 1,11,-1
 442 642 l 1,6,-1
EndSplineSet
EndChar

StartChar: uniA832
Encoding: 43058 43058 284
Width: 946
Flags: W
LayerCount: 2
Fore
SplineSet
130 642 m 1,0,-1
 202 605 l 1,1,-1
 202 -28 l 1,2,-1
 192 -33 l 1,3,-1
 120 4 l 1,4,-1
 120 637 l 1,5,-1
 130 642 l 1,0,-1
442 642 m 1,6,-1
 514 605 l 1,7,-1
 514 -28 l 1,8,-1
 504 -33 l 1,9,-1
 432 4 l 1,10,-1
 432 637 l 1,11,-1
 442 642 l 1,6,-1
753 642 m 1,12,-1
 826 605 l 1,13,-1
 826 -28 l 1,14,-1
 816 -33 l 1,15,-1
 744 4 l 1,16,-1
 744 637 l 1,17,-1
 753 642 l 1,12,-1
EndSplineSet
EndChar

StartChar: uniA833
Encoding: 43059 43059 285
Width: 701
Flags: W
LayerCount: 2
Fore
SplineSet
53 399 m 1,0,-1
 20 445 l 1,1,-1
 22 455 l 1,2,-1
 647 622 l 1,3,-1
 681 575 l 1,4,-1
 678 566 l 1,5,-1
 53 399 l 1,0,-1
EndSplineSet
EndChar

StartChar: uniA834
Encoding: 43060 43060 286
Width: 701
Flags: W
LayerCount: 2
Fore
SplineSet
53 399 m 1,0,-1
 20 445 l 1,1,-1
 22 455 l 1,2,-1
 647 622 l 1,3,-1
 681 575 l 1,4,-1
 678 566 l 1,5,-1
 53 399 l 1,0,-1
53 199 m 1,6,-1
 20 245 l 1,7,-1
 22 255 l 1,8,-1
 647 422 l 1,9,-1
 681 375 l 1,10,-1
 678 366 l 1,11,-1
 53 199 l 1,6,-1
EndSplineSet
EndChar

StartChar: uniA835
Encoding: 43061 43061 287
Width: 701
Flags: W
LayerCount: 2
Fore
SplineSet
53 399 m 1,0,-1
 20 445 l 1,1,-1
 22 455 l 1,2,-1
 647 622 l 1,3,-1
 681 575 l 1,4,-1
 678 566 l 1,5,-1
 53 399 l 1,0,-1
53 199 m 1,6,-1
 20 245 l 1,7,-1
 22 255 l 1,8,-1
 647 422 l 1,9,-1
 681 375 l 1,10,-1
 678 366 l 1,11,-1
 53 199 l 1,6,-1
53 -1 m 1,12,-1
 20 45 l 1,13,-1
 22 55 l 1,14,-1
 647 222 l 1,15,-1
 681 175 l 1,16,-1
 678 166 l 1,17,-1
 53 -1 l 1,12,-1
EndSplineSet
EndChar

StartChar: uniA836
Encoding: 43062 43062 288
Width: 445
Flags: W
LayerCount: 2
Fore
SplineSet
70 298 m 0,0,1
 70 337 70 337 89 366.5 c 128,-1,2
 108 396 108 396 140 412.5 c 128,-1,3
 172 429 172 429 210 429 c 0,4,5
 255 429 255 429 292.5 407.5 c 128,-1,6
 330 386 330 386 352.5 351 c 128,-1,7
 375 316 375 316 375 273 c 0,8,9
 375 238 375 238 358.5 209 c 128,-1,10
 342 180 342 180 311.5 163 c 128,-1,11
 281 146 281 146 239 146 c 0,12,13
 194 146 194 146 155.5 166 c 128,-1,14
 117 186 117 186 93.5 220.5 c 128,-1,15
 70 255 70 255 70 298 c 0,0,1
221 201 m 0,16,17
 264 201 264 201 288 227 c 128,-1,18
 312 253 312 253 312 288 c 0,19,20
 312 322 312 322 289.5 346 c 128,-1,21
 267 370 267 370 227 370 c 0,22,23
 184 370 184 370 158.5 344 c 128,-1,24
 133 318 133 318 133 283 c 0,25,26
 133 249 133 249 157 225 c 128,-1,27
 181 201 181 201 221 201 c 0,16,17
EndSplineSet
EndChar

StartChar: uniA837
Encoding: 43063 43063 289
Width: 433
Flags: W
LayerCount: 2
Fore
SplineSet
380 598 m 1,0,-1
 383 590 l 1,1,-1
 213 420 l 1,2,3
 252 420 252 420 286.5 400.5 c 128,-1,4
 321 381 321 381 342.5 348 c 128,-1,5
 364 315 364 315 364 273 c 0,6,7
 364 220 364 220 327 183 c 128,-1,8
 290 146 290 146 227 146 c 0,9,10
 182 146 182 146 143.5 166 c 128,-1,11
 105 186 105 186 81.5 220 c 128,-1,12
 58 254 58 254 58 297 c 0,13,14
 58 329 58 329 72 355 c 128,-1,15
 86 381 86 381 111 406 c 2,16,-1
 328 622 l 1,17,-1
 380 598 l 1,0,-1
209 201 m 0,18,19
 252 201 252 201 276.5 227 c 128,-1,20
 301 253 301 253 301 288 c 0,21,22
 301 322 301 322 278 346 c 128,-1,23
 255 370 255 370 215 370 c 0,24,25
 172 370 172 370 146.5 344 c 128,-1,26
 121 318 121 318 121 283 c 0,27,28
 121 249 121 249 145 225 c 128,-1,29
 169 201 169 201 209 201 c 0,18,19
EndSplineSet
EndChar

StartChar: uniA838
Encoding: 43064 43064 290
Width: 331
Flags: W
LayerCount: 2
Fore
SplineSet
199 621 m 1,0,1
 223 482 223 482 238.5 364.5 c 128,-1,2
 254 247 254 247 254 153 c 0,3,4
 254 48 254 48 229.5 -27 c 128,-1,5
 205 -102 205 -102 148.5 -142.5 c 128,-1,6
 92 -183 92 -183 -3 -183 c 0,7,8
 -37 -183 -37 -183 -71 -177.5 c 128,-1,9
 -105 -172 -105 -172 -133 -161 c 1,10,-1
 -133 -119 l 1,11,12
 -113 -125 -113 -125 -92 -127.5 c 128,-1,13
 -71 -130 -71 -130 -49 -130 c 0,14,15
 34 -130 34 -130 82.5 -93.5 c 128,-1,16
 131 -57 131 -57 151.5 10 c 128,-1,17
 172 77 172 77 172 168 c 0,18,19
 172 252 172 252 158.5 365.5 c 128,-1,20
 145 479 145 479 122 611 c 1,21,-1
 187 628 l 1,22,-1
 199 621 l 1,0,1
EndSplineSet
EndChar

StartChar: uniA839
Encoding: 43065 43065 291
Width: 364
Flags: W
LayerCount: 2
Fore
SplineSet
264 579 m 1,0,1
 225 557 225 557 196 529 c 128,-1,2
 167 501 167 501 151 467.5 c 128,-1,3
 135 434 135 434 135 396 c 0,4,5
 135 354 135 354 151.5 312.5 c 128,-1,6
 168 271 168 271 189 230 c 0,7,8
 216 176 216 176 238.5 122.5 c 128,-1,9
 261 69 261 69 261 13 c 0,10,11
 261 -39 261 -39 239 -76 c 128,-1,12
 217 -113 217 -113 179.5 -136.5 c 128,-1,13
 142 -160 142 -160 94 -171 c 128,-1,14
 46 -182 46 -182 -6 -182 c 0,15,16
 -38 -182 -38 -182 -73 -176 c 128,-1,17
 -108 -170 -108 -170 -136 -159 c 1,18,-1
 -135 -117 l 1,19,20
 -114 -121 -114 -121 -90.5 -124 c 128,-1,21
 -67 -127 -67 -127 -45 -127 c 0,22,23
 0 -127 0 -127 41 -117.5 c 128,-1,24
 82 -108 82 -108 114.5 -87.5 c 128,-1,25
 147 -67 147 -67 166 -34 c 128,-1,26
 185 -1 185 -1 185 46 c 0,27,28
 185 92 185 92 168.5 134.5 c 128,-1,29
 152 177 152 177 129 222 c 0,30,31
 102 275 102 275 81 326.5 c 128,-1,32
 60 378 60 378 60 428 c 0,33,34
 60 475 60 475 80.5 515 c 128,-1,35
 101 555 101 555 133.5 586.5 c 128,-1,36
 166 618 166 618 203 639 c 1,37,-1
 264 591 l 1,38,-1
 264 579 l 1,0,1
EndSplineSet
EndChar

StartChar: uni0951
Encoding: 2385 2385 292
Width: 0
GlyphClass: 4
Flags: W
AnchorPoint: "Anchor-0" -143 622 mark 0
LayerCount: 2
Fore
SplineSet
-175 953 m 1,0,-1
 -109 921 l 1,1,-1
 -109 684 l 1,2,-1
 -119 679 l 1,3,-1
 -185 711 l 1,4,-1
 -185 948 l 1,5,-1
 -175 953 l 1,0,-1
EndSplineSet
EndChar

StartChar: uni0952
Encoding: 2386 2386 293
Width: 0
GlyphClass: 4
Flags: W
AnchorPoint: "Anchor-1" -93 0 mark 0
LayerCount: 2
Fore
SplineSet
-48 -176 m 1,0,-1
 -53 -185 l 1,1,-1
 -440 -185 l 1,2,-1
 -462 -128 l 1,3,-1
 -458 -119 l 1,4,-1
 -70 -119 l 1,5,-1
 -48 -176 l 1,0,-1
EndSplineSet
EndChar

StartChar: uni0080
Encoding: 128 128 294
Width: 563
Flags: W
LayerCount: 2
Fore
SplineSet
282 -10 m 0,0,1
 198 -10 198 -10 146.5 32 c 128,-1,2
 95 74 95 74 71.5 156 c 128,-1,3
 48 238 48 238 48 359 c 0,4,5
 48 477 48 477 71 558 c 128,-1,6
 94 639 94 639 146 681.5 c 128,-1,7
 198 724 198 724 283 724 c 0,8,9
 364 724 364 724 415 682.5 c 128,-1,10
 466 641 466 641 490.5 559.5 c 128,-1,11
 515 478 515 478 515 358 c 0,12,13
 515 240 515 240 490.5 158 c 128,-1,14
 466 76 466 76 415 33 c 128,-1,15
 364 -10 364 -10 282 -10 c 0,0,1
281 34 m 0,16,17
 333 34 333 34 364 71 c 128,-1,18
 395 108 395 108 408.5 180 c 128,-1,19
 422 252 422 252 422 358 c 256,20,21
 422 464 422 464 409.5 535.5 c 128,-1,22
 397 607 397 607 366.5 643.5 c 128,-1,23
 336 680 336 680 282 680 c 0,24,25
 227 680 227 680 196.5 642.5 c 128,-1,26
 166 605 166 605 153.5 533 c 128,-1,27
 141 461 141 461 141 358 c 0,28,29
 141 250 141 250 154.5 178 c 128,-1,30
 168 106 168 106 199 70 c 128,-1,31
 230 34 230 34 281 34 c 0,16,17
EndSplineSet
EndChar

StartChar: uni0081
Encoding: 129 129 295
Width: 563
Flags: W
LayerCount: 2
Fore
SplineSet
109 0 m 1,0,-1
 109 38 l 1,1,-1
 207 38 l 2,2,3
 229 38 229 38 240 44 c 128,-1,4
 251 50 251 50 255 66 c 128,-1,5
 259 82 259 82 259 113 c 2,6,-1
 259 647 l 1,7,8
 214 589 214 589 178 562 c 128,-1,9
 142 535 142 535 109 535 c 0,10,11
 88 535 88 535 76.5 548 c 128,-1,12
 65 561 65 561 65 582 c 1,13,14
 108 587 108 587 144.5 608 c 128,-1,15
 181 629 181 629 227 671 c 2,16,-1
 279 718 l 1,17,-1
 349 718 l 1,18,-1
 349 113 l 2,19,20
 349 85 349 85 353 68.5 c 128,-1,21
 357 52 357 52 368.5 45 c 128,-1,22
 380 38 380 38 402 38 c 2,23,-1
 492 38 l 1,24,-1
 492 0 l 1,25,-1
 109 0 l 1,0,-1
EndSplineSet
EndChar

StartChar: uni0082
Encoding: 130 130 296
Width: 563
Flags: W
LayerCount: 2
Fore
SplineSet
47 0 m 1,0,-1
 47 59 l 1,1,-1
 228 259 l 2,2,3
 273 309 273 309 302.5 345.5 c 128,-1,4
 332 382 332 382 349 413 c 128,-1,5
 366 444 366 444 373 475 c 128,-1,6
 380 506 380 506 380 543 c 0,7,8
 380 582 380 582 367.5 613.5 c 128,-1,9
 355 645 355 645 328.5 663.5 c 128,-1,10
 302 682 302 682 258 682 c 0,11,12
 219 682 219 682 190.5 666 c 128,-1,13
 162 650 162 650 147 616 c 128,-1,14
 132 582 132 582 132 528 c 1,15,16
 113 528 113 528 96 534 c 128,-1,17
 79 540 79 540 69 554.5 c 128,-1,18
 59 569 59 569 59 592 c 0,19,20
 59 620 59 620 80.5 650.5 c 128,-1,21
 102 681 102 681 146 702.5 c 128,-1,22
 190 724 190 724 258 724 c 0,23,24
 332 724 332 724 379.5 699.5 c 128,-1,25
 427 675 427 675 449.5 634 c 128,-1,26
 472 593 472 593 472 544 c 0,27,28
 472 513 472 513 466 485 c 128,-1,29
 460 457 460 457 445.5 429.5 c 128,-1,30
 431 402 431 402 406 370.5 c 128,-1,31
 381 339 381 339 342.5 300.5 c 128,-1,32
 304 262 304 262 251 213 c 1,33,-1
 119 68 l 1,34,-1
 384 68 l 2,35,36
 416 68 416 68 431 82 c 128,-1,37
 446 96 446 96 453 136 c 2,38,-1
 459 171 l 1,39,-1
 499 171 l 1,40,-1
 494 0 l 1,41,-1
 47 0 l 1,0,-1
EndSplineSet
EndChar

StartChar: uni0083
Encoding: 131 131 297
Width: 563
Flags: W
LayerCount: 2
Fore
SplineSet
252 -9 m 0,0,1
 180 -9 180 -9 135 8 c 128,-1,2
 90 25 90 25 69 52.5 c 128,-1,3
 48 80 48 80 48 112 c 0,4,5
 48 141 48 141 65 154 c 128,-1,6
 82 167 82 167 102 167 c 1,7,8
 102 106 102 106 139 72 c 128,-1,9
 176 38 176 38 248 38 c 0,10,11
 292 38 292 38 327 54 c 128,-1,12
 362 70 362 70 382 105.5 c 128,-1,13
 402 141 402 141 402 197 c 0,14,15
 402 268 402 268 357 309.5 c 128,-1,16
 312 351 312 351 217 351 c 2,17,-1
 173 351 l 1,18,-1
 173 394 l 1,19,-1
 218 394 l 2,20,21
 270 394 270 394 305 413 c 128,-1,22
 340 432 340 432 358.5 467.5 c 128,-1,23
 377 503 377 503 377 552 c 0,24,25
 377 613 377 613 345 647.5 c 128,-1,26
 313 682 313 682 260 682 c 0,27,28
 220 682 220 682 192.5 663 c 128,-1,29
 165 644 165 644 151 612 c 128,-1,30
 137 580 137 580 136 540 c 1,31,32
 104 540 104 540 85.5 554 c 128,-1,33
 67 568 67 568 67 598 c 0,34,35
 67 627 67 627 88 656 c 128,-1,36
 109 685 109 685 153 704.5 c 128,-1,37
 197 724 197 724 264 724 c 0,38,39
 360 724 360 724 415 679.5 c 128,-1,40
 470 635 470 635 470 557 c 0,41,42
 470 504 470 504 448 468.5 c 128,-1,43
 426 433 426 433 392 411.5 c 128,-1,44
 358 390 358 390 320 378 c 1,45,46
 362 372 362 372 402 352 c 128,-1,47
 442 332 442 332 468.5 294.5 c 128,-1,48
 495 257 495 257 495 196 c 0,49,50
 495 124 495 124 462 79 c 128,-1,51
 429 34 429 34 374 12.5 c 128,-1,52
 319 -9 319 -9 252 -9 c 0,0,1
EndSplineSet
EndChar

StartChar: uni0084
Encoding: 132 132 298
Width: 563
Flags: W
LayerCount: 2
Fore
SplineSet
223 0 m 1,0,-1
 223 36 l 1,1,-1
 266 36 l 2,2,3
 290 36 290 36 304.5 41.5 c 128,-1,4
 319 47 319 47 325.5 65 c 128,-1,5
 332 83 332 83 332 118 c 2,6,-1
 332 196 l 1,7,-1
 19 196 l 1,8,-1
 19 237 l 1,9,-1
 336 714 l 1,10,-1
 421 714 l 1,11,-1
 421 241 l 1,12,-1
 542 241 l 1,13,-1
 542 196 l 1,14,-1
 421 196 l 1,15,-1
 421 118 l 2,16,17
 421 83 421 83 428 65 c 128,-1,18
 435 47 435 47 449.5 41.5 c 128,-1,19
 464 36 464 36 488 36 c 2,20,-1
 516 36 l 1,21,-1
 516 0 l 1,22,-1
 223 0 l 1,0,-1
73 241 m 1,23,-1
 333 241 l 1,24,-1
 333 437 l 2,25,26
 333 466 333 466 333.5 504.5 c 128,-1,27
 334 543 334 543 335 582 c 128,-1,28
 336 621 336 621 337 652 c 1,29,30
 332 642 332 642 320 621 c 128,-1,31
 308 600 308 600 292.5 575 c 128,-1,32
 277 550 277 550 262.5 527.5 c 128,-1,33
 248 505 248 505 238 491 c 2,34,-1
 73 241 l 1,23,-1
EndSplineSet
EndChar

StartChar: uni0085
Encoding: 133 133 299
Width: 563
Flags: W
LayerCount: 2
Fore
SplineSet
249 -10 m 0,0,1
 155 -10 155 -10 106.5 25 c 128,-1,2
 58 60 58 60 58 106 c 0,3,4
 58 133 58 133 73.5 144.5 c 128,-1,5
 89 156 89 156 109 156 c 1,6,7
 109 121 109 121 125.5 93.5 c 128,-1,8
 142 66 142 66 171.5 51 c 128,-1,9
 201 36 201 36 239 36 c 0,10,11
 288 36 288 36 324 56 c 128,-1,12
 360 76 360 76 380 116.5 c 128,-1,13
 400 157 400 157 400 218 c 0,14,15
 400 301 400 301 356.5 342.5 c 128,-1,16
 313 384 313 384 241 384 c 0,17,18
 205 384 205 384 174.5 378 c 128,-1,19
 144 372 144 372 118 361 c 1,20,-1
 91 374 l 1,21,-1
 121 714 l 1,22,-1
 460 714 l 1,23,-1
 464 566 l 1,24,-1
 425 566 l 1,25,-1
 420 599 l 2,26,27
 417 620 417 620 412.5 629.5 c 128,-1,28
 408 639 408 639 397.5 642 c 128,-1,29
 387 645 387 645 365 645 c 2,30,-1
 160 645 l 1,31,-1
 139 410 l 1,32,33
 154 416 154 416 172.5 420 c 128,-1,34
 191 424 191 424 212.5 426.5 c 128,-1,35
 234 429 234 429 257 429 c 0,36,37
 325 429 325 429 378 405.5 c 128,-1,38
 431 382 431 382 461.5 335.5 c 128,-1,39
 492 289 492 289 492 219 c 0,40,41
 492 171 492 171 479 133.5 c 128,-1,42
 466 96 466 96 443 69 c 128,-1,43
 420 42 420 42 389 24.5 c 128,-1,44
 358 7 358 7 322.5 -1.5 c 128,-1,45
 287 -10 287 -10 249 -10 c 0,0,1
EndSplineSet
EndChar

StartChar: uni0086
Encoding: 134 134 300
Width: 563
Flags: W
LayerCount: 2
Fore
SplineSet
295 -10 m 0,0,1
 188 -10 188 -10 126 74.5 c 128,-1,2
 64 159 64 159 64 334 c 0,3,4
 64 469 64 469 96 555 c 128,-1,5
 128 641 128 641 186 682.5 c 128,-1,6
 244 724 244 724 322 724 c 0,7,8
 381 724 381 724 416.5 708.5 c 128,-1,9
 452 693 452 693 468.5 669 c 128,-1,10
 485 645 485 645 485 618 c 0,11,12
 485 594 485 594 470 577.5 c 128,-1,13
 455 561 455 561 419 561 c 1,14,15
 419 599 419 599 408 626 c 128,-1,16
 397 653 397 653 375 667.5 c 128,-1,17
 353 682 353 682 319 682 c 0,18,19
 269 682 269 682 231 648.5 c 128,-1,20
 193 615 193 615 172 547 c 128,-1,21
 151 479 151 479 149 377 c 1,22,23
 181 400 181 400 221.5 416.5 c 128,-1,24
 262 433 262 433 313 433 c 0,25,26
 400 433 400 433 454.5 379.5 c 128,-1,27
 509 326 509 326 509 225 c 0,28,29
 509 120 509 120 456 55 c 128,-1,30
 403 -10 403 -10 295 -10 c 0,0,1
298 34 m 0,31,32
 340 34 340 34 368 55.5 c 128,-1,33
 396 77 396 77 410 118.5 c 128,-1,34
 424 160 424 160 424 221 c 0,35,36
 424 301 424 301 391 344.5 c 128,-1,37
 358 388 358 388 295 388 c 0,38,39
 263 388 263 388 235 378.5 c 128,-1,40
 207 369 207 369 185.5 355 c 128,-1,41
 164 341 164 341 149 329 c 1,42,43
 151 181 151 181 188 107.5 c 128,-1,44
 225 34 225 34 298 34 c 0,31,32
EndSplineSet
EndChar

StartChar: uni0087
Encoding: 135 135 301
Width: 563
Flags: W
LayerCount: 2
Fore
SplineSet
168 0 m 1,0,-1
 447 645 l 1,1,-1
 154 645 l 2,2,3
 127 645 127 645 115 635 c 128,-1,4
 103 625 103 625 100 593 c 2,5,-1
 95 535 l 1,6,-1
 54 535 l 1,7,-1
 59 714 l 1,8,-1
 506 714 l 1,9,-1
 506 675 l 1,10,-1
 231 0 l 1,11,-1
 168 0 l 1,0,-1
EndSplineSet
EndChar

StartChar: uni0088
Encoding: 136 136 302
Width: 563
Flags: W
LayerCount: 2
Fore
SplineSet
277 -10 m 0,0,1
 200 -10 200 -10 149.5 13 c 128,-1,2
 99 36 99 36 75 77 c 128,-1,3
 51 118 51 118 51 171 c 0,4,5
 51 223 51 223 72 260 c 128,-1,6
 93 297 93 297 131 324 c 128,-1,7
 169 351 169 351 220 369 c 1,8,9
 176 391 176 391 143.5 415 c 128,-1,10
 111 439 111 439 93.5 472 c 128,-1,11
 76 505 76 505 76 552 c 0,12,13
 76 603 76 603 100 641.5 c 128,-1,14
 124 680 124 680 171 702 c 128,-1,15
 218 724 218 724 285 724 c 0,16,17
 354 724 354 724 399 702 c 128,-1,18
 444 680 444 680 466.5 643.5 c 128,-1,19
 489 607 489 607 489 562 c 0,20,21
 489 495 489 495 453 453.5 c 128,-1,22
 417 412 417 412 346 382 c 1,23,24
 406 353 406 353 442.5 324.5 c 128,-1,25
 479 296 479 296 495.5 260 c 128,-1,26
 512 224 512 224 512 174 c 0,27,28
 512 88 512 88 449.5 39 c 128,-1,29
 387 -10 387 -10 277 -10 c 0,0,1
297 404 m 1,30,31
 354 428 354 428 381.5 464.5 c 128,-1,32
 409 501 409 501 409 560 c 0,33,34
 409 593 409 593 396 621 c 128,-1,35
 383 649 383 649 356 666 c 128,-1,36
 329 683 329 683 285 683 c 0,37,38
 227 683 227 683 194.5 650 c 128,-1,39
 162 617 162 617 162 561 c 0,40,41
 162 520 162 520 178 492 c 128,-1,42
 194 464 194 464 224 443.5 c 128,-1,43
 254 423 254 423 297 404 c 1,30,31
279 32 m 0,44,45
 344 32 344 32 383.5 65 c 128,-1,46
 423 98 423 98 423 165 c 0,47,48
 423 202 423 202 408.5 233 c 128,-1,49
 394 264 394 264 360 291.5 c 128,-1,50
 326 319 326 319 267 345 c 1,51,52
 200 319 200 319 166.5 275.5 c 128,-1,53
 133 232 133 232 133 175 c 0,54,55
 133 105 133 105 171.5 68.5 c 128,-1,56
 210 32 210 32 279 32 c 0,44,45
EndSplineSet
EndChar

